<?xml version="1.0" encoding="UTF-8" standalone="no"?>
<!-- Created with Inkscape (http://www.inkscape.org/) -->

<svg
   width="210mm"
   height="297mm"
   viewBox="0 0 210 297"
   version="1.1"
   id="svg5"
   xml:space="preserve"
   xmlns="http://www.w3.org/2000/svg"
   xmlns:svg="http://www.w3.org/2000/svg"><defs
     id="defs2"><rect
       x="563.18767"
       y="321.68412"
       width="259.75097"
       height="91.846279"
       id="rect18490" /><rect
       x="579.66793"
       y="401.56637"
       width="116.35403"
       height="63.319566"
       id="rect1210" /><rect
       x="498.96833"
       y="318.83834"
       width="188.02915"
       height="125.51616"
       id="rect1046" /><marker
       id="DistanceX"
       orient="auto"
       refX="0.0"
       refY="0.0"
       style="overflow:visible"><path
         d="M 3,-3 L -3,3 M 0,-5 L  0,5"
         style="stroke:#000000; stroke-width:0.5"
         id="path150" /></marker><pattern
       id="Hatch"
       patternUnits="userSpaceOnUse"
       width="8"
       height="8"
       x="0"
       y="0"><path
         d="M8 4 l-4,4"
         stroke="#000000"
         stroke-width="0.25"
         linecap="square"
         id="path153" /><path
         d="M6 2 l-4,4"
         stroke="#000000"
         stroke-width="0.25"
         linecap="square"
         id="path155" /><path
         d="M4 0 l-4,4"
         stroke="#000000"
         stroke-width="0.25"
         linecap="square"
         id="path157" /></pattern><symbol
       id="*MODEL_SPACE" /><symbol
       id="*PAPER_SPACE" /></defs><g
     id="layer1"><g
       id="g266"
       transform="matrix(0.26458333,0,0,0.26458333,121.83991,-196.08702)"
       style="vector-effect:non-scaling-stroke;stroke-width:1;stroke-dasharray:none;-inkscape-stroke:hairline"><g
         id="g164"
         style="vector-effect:non-scaling-stroke;stroke-width:1;stroke-dasharray:none;-inkscape-stroke:hairline" /><g
         id="g166"
         style="vector-effect:non-scaling-stroke;stroke-width:1;stroke-dasharray:none;-inkscape-stroke:hairline" /><g
         id="g222"
         style="vector-effect:non-scaling-stroke;stroke-width:1;stroke-dasharray:none;-inkscape-stroke:hairline"><path
           d="m -52.374425,1030.8941 a 7.1811025,7.1811025 0 0 0 -14.362205,0 7.1811025,7.1811025 0 0 0 14.362205,0 z"
           style="vector-effect:non-scaling-stroke;fill:none;stroke:#000000;stroke-width:1;stroke-dasharray:none;-inkscape-stroke:hairline"
           id="path168" /><path
           d="m 23.216277,1106.4845 a 7.1811025,7.1811025 0 0 0 -14.362205,0 7.1811025,7.1811025 0 0 0 14.362205,0 z"
           style="vector-effect:non-scaling-stroke;fill:none;stroke:#000000;stroke-width:1;stroke-dasharray:none;-inkscape-stroke:hairline"
           id="path170" /><path
           d="m 98.806677,1182.0752 a 7.1811025,7.1811025 0 0 0 -14.362205,0 7.1811025,7.1811025 0 0 0 14.362205,0 z"
           style="vector-effect:non-scaling-stroke;fill:none;stroke:#000000;stroke-width:1;stroke-dasharray:none;-inkscape-stroke:hairline"
           id="path172" /><path
           d="m 98.806677,1030.8941 a 7.1811025,7.1811025 0 0 0 -14.362205,0 7.1811025,7.1811025 0 0 0 14.362205,0 z"
           style="vector-effect:non-scaling-stroke;fill:none;stroke:#000000;stroke-width:1;stroke-dasharray:none;-inkscape-stroke:hairline"
           id="path174" /><path
           style="vector-effect:non-scaling-stroke;fill:none;stroke:#000000;stroke-width:1;stroke-dasharray:none;-inkscape-stroke:hairline"
           d="M -396.85,1234.02 H 270.236"
           id="path176" /><path
           style="vector-effect:non-scaling-stroke;fill:none;stroke:#000000;stroke-width:1;stroke-dasharray:none;-inkscape-stroke:hairline"
           d="M 270.236,1234.02 V 803.15"
           id="path178" /><path
           style="vector-effect:non-scaling-stroke;fill:none;stroke:#000000;stroke-width:1;stroke-dasharray:none;-inkscape-stroke:hairline"
           d="M 270.236,803.15 H -396.85"
           id="path180" /><path
           style="vector-effect:non-scaling-stroke;fill:none;stroke:#000000;stroke-width:1;stroke-dasharray:none;-inkscape-stroke:hairline"
           d="m -396.85,803.15 v 430.87"
           id="path182" /><path
           d="m -371.71654,1215.1181 a 6.2362205,6.2362205 0 0 0 -12.47244,0 6.2362205,6.2362205 0 0 0 12.47244,0 z"
           style="vector-effect:non-scaling-stroke;fill:none;stroke:#000000;stroke-width:1;stroke-dasharray:none;-inkscape-stroke:hairline"
           id="path184" /><path
           d="m -371.71654,1018.5827 a 6.2362205,6.2362205 0 0 0 -12.47244,0 6.2362205,6.2362205 0 0 0 12.47244,0 z"
           style="vector-effect:non-scaling-stroke;fill:none;stroke:#000000;stroke-width:1;stroke-dasharray:none;-inkscape-stroke:hairline"
           id="path186" /><path
           d="m -371.71654,822.04724 a 6.2362205,6.2362205 0 0 0 -12.47244,0 6.2362205,6.2362205 0 0 0 12.47244,0 z"
           style="vector-effect:non-scaling-stroke;fill:none;stroke:#000000;stroke-width:1;stroke-dasharray:none;-inkscape-stroke:hairline"
           id="path188" /><path
           d="m 257.5748,1215.1181 a 6.2362205,6.2362205 0 0 0 -12.47244,0 6.2362205,6.2362205 0 0 0 12.47244,0 z"
           style="vector-effect:non-scaling-stroke;fill:none;stroke:#000000;stroke-width:1;stroke-dasharray:none;-inkscape-stroke:hairline"
           id="path190" /><path
           d="m 257.5748,822.04724 a 6.2362205,6.2362205 0 0 0 -12.47244,0 6.2362205,6.2362205 0 0 0 12.47244,0 z"
           style="vector-effect:non-scaling-stroke;fill:none;stroke:#000000;stroke-width:1;stroke-dasharray:none;-inkscape-stroke:hairline"
           id="path192" /><path
           d="m 257.5748,1018.5827 a 6.2362205,6.2362205 0 0 0 -12.47244,0 6.2362205,6.2362205 0 0 0 12.47244,0 z"
           style="vector-effect:non-scaling-stroke;fill:none;stroke:#000000;stroke-width:1;stroke-dasharray:none;-inkscape-stroke:hairline"
           id="path194" /><path
           d="m -240.68031,955.38898 a 6.047245,6.047245 0 0 0 -12.09449,0 6.047245,6.047245 0 0 0 12.09449,0 z"
           style="vector-effect:non-scaling-stroke;fill:none;stroke:#000000;stroke-width:1;stroke-dasharray:none;-inkscape-stroke:hairline"
           id="path196" /><path
           d="m -106.28032,955.38898 a 6.047244,6.047244 0 0 0 -12.09448,0 6.047244,6.047244 0 0 0 12.09448,0 z"
           style="vector-effect:non-scaling-stroke;fill:none;stroke:#000000;stroke-width:1;stroke-dasharray:none;-inkscape-stroke:hairline"
           id="path198" /><path
           d="m -106.28032,820.98898 a 6.047244,6.047244 0 0 0 -12.09448,0 6.047244,6.047244 0 0 0 12.09448,0 z"
           style="vector-effect:non-scaling-stroke;fill:none;stroke:#000000;stroke-width:1;stroke-dasharray:none;-inkscape-stroke:hairline"
           id="path200" /><path
           d="m -240.68031,820.98898 a 6.047245,6.047245 0 0 0 -12.09449,0 6.047245,6.047245 0 0 0 12.09449,0 z"
           style="vector-effect:non-scaling-stroke;fill:none;stroke:#000000;stroke-width:1;stroke-dasharray:none;-inkscape-stroke:hairline"
           id="path202" /><path
           d="m -277.41732,1124.4094 a 6.047245,6.047245 0 0 0 -12.09449,0 6.047245,6.047245 0 0 0 12.09449,0 z"
           style="vector-effect:non-scaling-stroke;fill:none;stroke:#000000;stroke-width:1;stroke-dasharray:none;-inkscape-stroke:hairline"
           id="path204" /><path
           d="m -277.41732,982.14803 a 6.047245,6.047245 0 0 0 -12.09449,0 6.047245,6.047245 0 0 0 12.09449,0 z"
           style="vector-effect:non-scaling-stroke;fill:none;stroke:#000000;stroke-width:1;stroke-dasharray:none;-inkscape-stroke:hairline"
           id="path206" /><path
           d="m -277.41732,839.88661 a 6.047245,6.047245 0 0 0 -12.09449,0 6.047245,6.047245 0 0 0 12.09449,0 z"
           style="vector-effect:non-scaling-stroke;fill:none;stroke:#000000;stroke-width:1;stroke-dasharray:none;-inkscape-stroke:hairline"
           id="path208" /><path
           d="m -107.33858,1179.2126 a 6.047245,6.047245 0 0 0 -12.09449,0 6.047245,6.047245 0 0 0 12.09449,0 z"
           style="vector-effect:non-scaling-stroke;fill:none;stroke:#000000;stroke-width:1;stroke-dasharray:none;-inkscape-stroke:hairline"
           id="path210" /><path
           d="m -107.33858,1065.8268 a 6.047245,6.047245 0 0 0 -12.09449,0 6.047245,6.047245 0 0 0 12.09449,0 z"
           style="vector-effect:non-scaling-stroke;fill:none;stroke:#000000;stroke-width:1;stroke-dasharray:none;-inkscape-stroke:hairline"
           id="path212" /><path
           d="m 106.20472,878.74016 a 6.047244,6.047244 0 0 0 -12.094484,0 6.047244,6.047244 0 0 0 12.094484,0 z"
           style="vector-effect:non-scaling-stroke;fill:none;stroke:#000000;stroke-width:1;stroke-dasharray:none;-inkscape-stroke:hairline"
           id="path214" /><path
           d="m 219.59055,878.74016 a 6.047245,6.047245 0 0 0 -12.09449,0 6.047245,6.047245 0 0 0 12.09449,0 z"
           style="vector-effect:non-scaling-stroke;fill:none;stroke:#000000;stroke-width:1;stroke-dasharray:none;-inkscape-stroke:hairline"
           id="path216" /><path
           d="m -57.070866,1215.1181 a 6.2362205,6.2362205 0 0 0 -12.472441,0 6.2362205,6.2362205 0 0 0 12.472441,0 z"
           style="vector-effect:non-scaling-stroke;fill:none;stroke:#000000;stroke-width:1;stroke-dasharray:none;-inkscape-stroke:hairline"
           id="path218" /><path
           d="m -57.070866,822.04724 a 6.2362205,6.2362205 0 0 0 -12.472441,0 6.2362205,6.2362205 0 0 0 12.472441,0 z"
           style="vector-effect:non-scaling-stroke;fill:none;stroke:#000000;stroke-width:1;stroke-dasharray:none;-inkscape-stroke:hairline"
           id="path220" /></g></g><g
       aria-label="Fenix
001"
       transform="matrix(0.26458333,0,0,0.26458333,1.9079143,1.024964)"
       id="text1044"
       style="font-size:45.3543px;line-height:0.9;font-family:Impact;-inkscape-font-specification:Impact;white-space:pre;shape-inside:url(#rect1046);display:inline;fill:none;stroke:none;stroke-width:1.88976"><g
         id="g4777"
         transform="translate(11.542045,-1.3877935)"
         style="stroke-width:2.64566932;stroke-dasharray:none;fill:#ff0000;fill-opacity:1;stroke:none"><g
           aria-label="Fenix-Laser
001"
           transform="translate(-132.63822,21.403309)"
           id="text18488"
           style="font-size:37.7953px;font-family:Ubuntu;-inkscape-font-specification:Ubuntu;text-align:end;text-anchor:end;shape-inside:url(#rect18490);stroke-width:2.64567;stroke:none"><path
             d="M 631.50673,350.31324 V 324.1211 h 15.79843 v 3.13701 h -12.13229 v 7.89921 h 10.77166 v 3.09922 h -10.77166 v 12.0567 z"
             id="path18894"
             style="stroke:none" /><path
             d="m 649.95072,340.52426 q 0,-2.60788 0.7559,-4.53544 0.75591,-1.96536 2.00315,-3.2504 1.24725,-1.28504 2.87245,-1.92756 1.6252,-0.64252 3.32598,-0.64252 3.96851,0 6.08505,2.49449 2.11653,2.4567 2.11653,7.52127 0,0.22677 0,0.60472 0,0.34016 -0.0378,0.64252 h -13.45513 q 0.22677,3.06142 1.77638,4.64882 1.54961,1.58741 4.8378,1.58741 1.85197,0 3.09921,-0.30237 1.28504,-0.34015 1.92756,-0.64252 l 0.49134,2.94804 q -0.64252,0.34016 -2.26771,0.71811 -1.58741,0.37795 -3.62835,0.37795 -2.57008,0 -4.45985,-0.7559 -1.85197,-0.79371 -3.06142,-2.15434 -1.20945,-1.36063 -1.81417,-3.2126 -0.56693,-1.88976 -0.56693,-4.11968 z m 13.49292,-1.92757 q 0.0378,-2.3811 -1.20945,-3.89291 -1.20945,-1.54961 -3.36378,-1.54961 -1.20945,0 -2.15433,0.49134 -0.90709,0.45354 -1.54961,1.20945 -0.64252,0.75591 -1.02047,1.73858 -0.34016,0.98268 -0.45355,2.00315 z"
             id="path18896"
             style="stroke:none" /><path
             d="m 672.17428,331.22661 q 1.20945,-0.30236 3.2126,-0.64252 2.00315,-0.34016 4.61103,-0.34016 2.34331,0 3.89292,0.68032 1.5496,0.64252 2.45669,1.85197 0.94488,1.17165 1.32283,2.83465 0.37796,1.66299 0.37796,3.66614 v 11.03623 h -3.51496 v -10.28032 q 0,-1.81418 -0.26457,-3.09922 -0.22677,-1.28504 -0.7937,-2.07874 -0.56693,-0.7937 -1.51182,-1.13386 -0.94488,-0.37795 -2.3433,-0.37795 -0.56693,0 -1.17166,0.0378 -0.60472,0.0378 -1.17165,0.11339 -0.52914,0.0378 -0.98268,0.11339 -0.41575,0.0756 -0.60472,0.11338 v 16.59214 h -3.51497 z"
             id="path18898"
             style="stroke:none" /><path
             d="m 697.38373,350.31324 h -3.51497 v -19.65356 h 3.51497 z m -1.77638,-23.20632 q -0.94489,0 -1.6252,-0.60472 -0.64252,-0.64252 -0.64252,-1.70079 0,-1.05827 0.64252,-1.66299 0.68031,-0.64252 1.6252,-0.64252 0.94488,0 1.5874,0.64252 0.68031,0.60472 0.68031,1.66299 0,1.05827 -0.68031,1.70079 -0.64252,0.60472 -1.5874,0.60472 z"
             id="path18900"
             style="stroke:none" /><path
             d="m 715.18525,350.31324 q -0.41575,-0.8315 -1.02047,-1.85197 -0.60473,-1.02048 -1.32284,-2.07874 -0.71811,-1.09607 -1.47401,-2.15434 -0.75591,-1.05826 -1.47402,-2.00315 -0.71811,0.94489 -1.47402,2.04095 -0.7559,1.05827 -1.47402,2.15433 -0.68031,1.05827 -1.28504,2.07874 -0.60472,1.02048 -1.02047,1.81418 h -3.62835 q 1.32284,-2.57008 3.13701,-5.21575 1.85197,-2.68347 3.66615,-5.10237 l -6.50079,-9.33544 h 3.9685 l 4.68662,6.87875 4.72441,-6.87875 h 3.74174 l -6.34961,9.10867 q 1.81417,2.45669 3.70394,5.21575 1.92756,2.72126 3.25039,5.32914 z"
             id="path18902"
             style="stroke:none" /><path
             d="m 720.70335,337.34945 h 9.33544 v 3.28819 h -9.33544 z"
             id="path18904"
             style="stroke:none" /><path
             d="m 750.03249,347.13843 v 3.17481 H 734.27185 V 324.1211 h 3.66614 v 23.01733 z"
             id="path18906"
             style="stroke:none" /><path
             d="m 760.31278,347.78095 q 1.24725,0 2.19213,-0.0378 0.98268,-0.0756 1.6252,-0.22677 v -5.85828 q -0.37796,-0.18897 -1.24725,-0.30236 -0.83149,-0.15118 -2.04094,-0.15118 -0.79371,0 -1.70079,0.11339 -0.86929,0.11338 -1.6252,0.49134 -0.71811,0.34015 -1.20945,0.98267 -0.49134,0.60473 -0.49134,1.6252 0,1.88977 1.20945,2.64567 1.20945,0.71811 3.28819,0.71811 z m -0.30236,-17.61261 q 2.11654,0 3.55276,0.56693 1.47401,0.52914 2.34331,1.54961 0.90708,0.98268 1.28504,2.3811 0.37795,1.36063 0.37795,3.02363 v 12.28347 q -0.45354,0.0756 -1.28504,0.22677 -0.7937,0.11339 -1.81418,0.22677 -1.02047,0.11339 -2.22992,0.18898 -1.17165,0.11339 -2.34331,0.11339 -1.66299,0 -3.06142,-0.34016 -1.39842,-0.34016 -2.4189,-1.05827 -1.02047,-0.75591 -1.5874,-1.96536 -0.56693,-1.20945 -0.56693,-2.91023 0,-1.6252 0.64252,-2.79686 0.68032,-1.17165 1.81418,-1.88976 1.13386,-0.71811 2.64567,-1.05827 1.51181,-0.34016 3.1748,-0.34016 0.52914,0 1.09607,0.0756 0.56693,0.0378 1.05827,0.15118 0.52913,0.0756 0.90708,0.15119 0.37796,0.0756 0.52914,0.11338 v -0.98268 q 0,-0.86929 -0.18898,-1.70078 -0.18898,-0.8693 -0.68032,-1.51182 -0.49133,-0.68031 -1.36063,-1.05826 -0.83149,-0.41575 -2.19212,-0.41575 -1.73859,0 -3.06142,0.26456 -1.28504,0.22678 -1.92756,0.49134 l -0.41575,-2.91024 q 0.68031,-0.30236 2.26772,-0.56692 1.5874,-0.30237 3.43937,-0.30237 z"
             id="path18908"
             style="stroke:none" /><path
             d="m 777.96316,347.78095 q 2.15433,0 3.1748,-0.56693 1.05827,-0.56693 1.05827,-1.81417 0,-1.28504 -1.02047,-2.04095 -1.02047,-0.7559 -3.36378,-1.70079 -1.13386,-0.45354 -2.19213,-0.90708 -1.02047,-0.49134 -1.77638,-1.13386 -0.75591,-0.64252 -1.20945,-1.54961 -0.45354,-0.90709 -0.45354,-2.22992 0,-2.60788 1.92756,-4.11969 1.92756,-1.54961 5.25354,-1.54961 0.8315,0 1.663,0.11339 0.83149,0.0756 1.5496,0.22677 0.71812,0.11339 1.24725,0.26457 0.56693,0.15118 0.86929,0.26456 l -0.64252,3.02363 q -0.56693,-0.30236 -1.77638,-0.60473 -1.20945,-0.34015 -2.91024,-0.34015 -1.47401,0 -2.57008,0.60472 -1.09606,0.56693 -1.09606,1.81418 0,0.64252 0.22677,1.13385 0.26457,0.49134 0.75591,0.90709 0.52913,0.37795 1.28504,0.71811 0.7559,0.34016 1.81417,0.71811 1.39843,0.52914 2.49449,1.05827 1.09607,0.49134 1.85197,1.17166 0.7937,0.68031 1.20945,1.66299 0.41575,0.94488 0.41575,2.34331 0,2.72126 -2.04095,4.11969 -2.00315,1.39842 -5.74488,1.39842 -2.60788,0 -4.08189,-0.45354 -1.47402,-0.41575 -2.00315,-0.64252 l 0.64252,-3.02363 q 0.60472,0.22678 1.92756,0.68032 1.32283,0.45354 3.51496,0.45354 z"
             id="path18910"
             style="stroke:none" /><path
             d="m 789.15054,340.52426 q 0,-2.60788 0.7559,-4.53544 0.75591,-1.96536 2.00315,-3.2504 1.24725,-1.28504 2.87245,-1.92756 1.6252,-0.64252 3.32598,-0.64252 3.96851,0 6.08505,2.49449 2.11653,2.4567 2.11653,7.52127 0,0.22677 0,0.60472 0,0.34016 -0.0378,0.64252 h -13.45513 q 0.22677,3.06142 1.77638,4.64882 1.54961,1.58741 4.8378,1.58741 1.85197,0 3.09921,-0.30237 1.28504,-0.34015 1.92756,-0.64252 l 0.49134,2.94804 q -0.64252,0.34016 -2.26772,0.71811 -1.5874,0.37795 -3.62834,0.37795 -2.57008,0 -4.45985,-0.7559 -1.85197,-0.79371 -3.06142,-2.15434 -1.20945,-1.36063 -1.81417,-3.2126 -0.56693,-1.88976 -0.56693,-4.11968 z m 13.49292,-1.92757 q 0.0378,-2.3811 -1.20945,-3.89291 -1.20945,-1.54961 -3.36378,-1.54961 -1.20945,0 -2.15433,0.49134 -0.90709,0.45354 -1.54961,1.20945 -0.64252,0.75591 -1.02047,1.73858 -0.34016,0.98268 -0.45355,2.00315 z"
             id="path18912"
             style="stroke:none" /><path
             d="m 818.6308,330.24393 q 0.45354,0 1.02047,0.0756 0.60473,0.0378 1.17166,0.15119 0.56693,0.0756 1.02047,0.18897 0.49134,0.0756 0.71811,0.15118 l -0.60472,3.06142 q -0.41575,-0.15118 -1.39843,-0.34016 -0.94488,-0.22677 -2.45669,-0.22677 -0.98268,0 -1.96536,0.22677 -0.94488,0.18898 -1.24724,0.26457 v 16.51655 h -3.51497 v -18.82206 q 1.24725,-0.45355 3.09922,-0.8315 1.85197,-0.41575 4.15748,-0.41575 z"
             id="path18914"
             style="stroke:none" /><path
             d="m 760.87966,371.21405 q 0,-6.57639 2.30552,-10.12914 2.34331,-3.55276 6.46299,-3.55276 4.11969,0 6.42521,3.55276 2.3433,3.55275 2.3433,10.12914 0,6.57638 -2.3433,10.12914 -2.30552,3.55275 -6.42521,3.55275 -4.11968,0 -6.46299,-3.55275 -2.30552,-3.55276 -2.30552,-10.12914 z m 13.83308,0 q 0,-2.15434 -0.26456,-4.0819 -0.22677,-1.92756 -0.8315,-3.36378 -0.56693,-1.43622 -1.54961,-2.26772 -0.98267,-0.86929 -2.4189,-0.86929 -1.43622,0 -2.41889,0.86929 -0.98268,0.8315 -1.58741,2.26772 -0.56693,1.43622 -0.83149,3.36378 -0.22678,1.92756 -0.22678,4.0819 0,2.15433 0.22678,4.08189 0.26456,1.92756 0.83149,3.36378 0.60473,1.43622 1.58741,2.30551 0.98267,0.8315 2.41889,0.8315 1.43623,0 2.4189,-0.8315 0.98268,-0.86929 1.54961,-2.30551 0.60473,-1.43622 0.8315,-3.36378 0.26456,-1.92756 0.26456,-4.08189 z"
             id="path18916"
             style="stroke:none" /><path
             d="m 782.19618,371.21405 q 0,-6.57639 2.30551,-10.12914 2.34331,-3.55276 6.463,-3.55276 4.11969,0 6.4252,3.55276 2.34331,3.55275 2.34331,10.12914 0,6.57638 -2.34331,10.12914 -2.30551,3.55275 -6.4252,3.55275 -4.11969,0 -6.463,-3.55275 -2.30551,-3.55276 -2.30551,-10.12914 z m 13.83308,0 q 0,-2.15434 -0.26457,-4.0819 -0.22677,-1.92756 -0.83149,-3.36378 -0.56693,-1.43622 -1.54961,-2.26772 -0.98268,-0.86929 -2.4189,-0.86929 -1.43622,0 -2.4189,0.86929 -0.98268,0.8315 -1.5874,2.26772 -0.56693,1.43622 -0.8315,3.36378 -0.22677,1.92756 -0.22677,4.0819 0,2.15433 0.22677,4.08189 0.26457,1.92756 0.8315,3.36378 0.60472,1.43622 1.5874,2.30551 0.98268,0.8315 2.4189,0.8315 1.43622,0 2.4189,-0.8315 0.98268,-0.86929 1.54961,-2.30551 0.60472,-1.43622 0.83149,-3.36378 0.26457,-1.92756 0.26457,-4.08189 z"
             id="path18918"
             style="stroke:none" /><path
             d="m 805.1379,363.5416 q 2.15433,-0.8315 4.19527,-2.11654 2.04095,-1.32283 3.74174,-3.28819 h 2.49449 v 26.19215 h -3.51496 v -21.31655 q -0.45355,0.41574 -1.13386,0.86929 -0.64252,0.45354 -1.43622,0.86929 -0.75591,0.41575 -1.6252,0.7937 -0.8315,0.37795 -1.6252,0.64252 z"
             id="path18920"
             style="stroke:none" /></g></g></g><text
       xml:space="preserve"
       transform="scale(0.26458333)"
       id="text1208"
       style="font-size:45.3543px;font-family:Impact;-inkscape-font-specification:Impact;white-space:pre;shape-inside:url(#rect1210);display:inline;vector-effect:non-scaling-stroke;fill:none;stroke:#000000;stroke-width:1;stroke-dasharray:none;-inkscape-stroke:hairline" /></g></svg>
