<?xml version="1.0" encoding="UTF-8" standalone="no"?>
<!-- Created with Inkscape (http://www.inkscape.org/) -->

<svg
   width="210mm"
   height="297mm"
   viewBox="0 0 210 297"
   version="1.1"
   id="svg24555"
   xml:space="preserve"
   inkscape:version="1.2.2 (732a01da63, 2022-12-09, custom)"
   sodipodi:docname="rear-and-front-wall.svg"
   xmlns:inkscape="http://www.inkscape.org/namespaces/inkscape"
   xmlns:sodipodi="http://sodipodi.sourceforge.net/DTD/sodipodi-0.dtd"
   xmlns="http://www.w3.org/2000/svg"
   xmlns:svg="http://www.w3.org/2000/svg"><sodipodi:namedview
     id="namedview24557"
     pagecolor="#ffffff"
     bordercolor="#000000"
     borderopacity="0.25"
     inkscape:showpageshadow="2"
     inkscape:pageopacity="0.0"
     inkscape:pagecheckerboard="0"
     inkscape:deskcolor="#d1d1d1"
     inkscape:document-units="mm"
     showgrid="false"
     inkscape:zoom="0.4865296"
     inkscape:cx="64.744262"
     inkscape:cy="759.46047"
     inkscape:window-width="1920"
     inkscape:window-height="1016"
     inkscape:window-x="0"
     inkscape:window-y="0"
     inkscape:window-maximized="1"
     inkscape:current-layer="layer1" /><defs
     id="defs24552"><rect
       x="-126.73947"
       y="310.70912"
       width="126.73947"
       height="160.44225"
       id="rect29965" /><marker
       id="DistanceX"
       orient="auto"
       refX="0.0"
       refY="0.0"
       style="overflow:visible"><path
         d="M 3,-3 L -3,3 M 0,-5 L  0,5"
         style="stroke:#000000; stroke-width:0.5"
         id="path24694" /></marker><pattern
       id="Hatch"
       patternUnits="userSpaceOnUse"
       width="8"
       height="8"
       x="0"
       y="0"><path
         d="M8 4 l-4,4"
         stroke="#000000"
         stroke-width="0.25"
         linecap="square"
         id="path24697" /><path
         d="M6 2 l-4,4"
         stroke="#000000"
         stroke-width="0.25"
         linecap="square"
         id="path24699" /><path
         d="M4 0 l-4,4"
         stroke="#000000"
         stroke-width="0.25"
         linecap="square"
         id="path24701" /></pattern><symbol
       id="*MODEL_SPACE" /><symbol
       id="*PAPER_SPACE" /><marker
       id="DistanceX-3"
       orient="auto"
       refX="0.0"
       refY="0.0"
       style="overflow:visible"><path
         d="M 3,-3 L -3,3 M 0,-5 L  0,5"
         style="stroke:#000000; stroke-width:0.5"
         id="path25478" /></marker><pattern
       id="Hatch-6"
       patternUnits="userSpaceOnUse"
       width="8"
       height="8"
       x="0"
       y="0"><path
         d="M8 4 l-4,4"
         stroke="#000000"
         stroke-width="0.25"
         linecap="square"
         id="path25481" /><path
         d="M6 2 l-4,4"
         stroke="#000000"
         stroke-width="0.25"
         linecap="square"
         id="path25483" /><path
         d="M4 0 l-4,4"
         stroke="#000000"
         stroke-width="0.25"
         linecap="square"
         id="path25485" /></pattern><symbol
       id="*MODEL_SPACE-0" /><symbol
       id="*PAPER_SPACE-6" /><marker
       id="DistanceX-9"
       orient="auto"
       refX="0.0"
       refY="0.0"
       style="overflow:visible"><path
         d="M 3,-3 L -3,3 M 0,-5 L  0,5"
         style="stroke:#000000; stroke-width:0.5"
         id="path48539" /></marker><pattern
       id="Hatch-2"
       patternUnits="userSpaceOnUse"
       width="8"
       height="8"
       x="0"
       y="0"><path
         d="M8 4 l-4,4"
         stroke="#000000"
         stroke-width="0.25"
         linecap="square"
         id="path48542" /><path
         d="M6 2 l-4,4"
         stroke="#000000"
         stroke-width="0.25"
         linecap="square"
         id="path48544" /><path
         d="M4 0 l-4,4"
         stroke="#000000"
         stroke-width="0.25"
         linecap="square"
         id="path48546" /></pattern><symbol
       id="*MODEL_SPACE-02" /><symbol
       id="*PAPER_SPACE-3" /></defs><g
     inkscape:label="Слой 1"
     inkscape:groupmode="layer"
     id="layer1"><text
       xml:space="preserve"
       transform="scale(0.26458333)"
       id="text29963"
       style="font-size:37.7953px;font-family:Ubuntu;-inkscape-font-specification:Ubuntu;text-align:end;white-space:pre;shape-inside:url(#rect29965);display:inline;vector-effect:non-scaling-stroke;fill:#ff0000;stroke-width:1;stroke-dasharray:none;-inkscape-stroke:hairline" /><g
       id="g54487"><g
         id="g39986"
         transform="translate(1.02992,18.978022)"
         style="vector-effect:non-scaling-stroke;stroke-width:0.264583;stroke-dasharray:none;-inkscape-stroke:hairline"><path
           style="vector-effect:non-scaling-stroke;fill:#ff0000;stroke-width:0.264583;stroke-dasharray:none;-inkscape-stroke:hairline"
           d="m 40.084176,94.606573 c -0.190266,-0.01574 -0.668102,-0.136133 -0.717384,-0.180745 -0.06491,-0.05872 0.0011,-0.11522 0.164279,-0.139392 0.115834,-0.01724 0.562885,-0.116291 0.706984,-0.156691 0.497093,-0.139345 1.092814,-0.491429 1.392204,-0.822836 0.235531,-0.260707 0.340662,-0.362722 0.368234,-0.357306 0.05644,0.01108 0.06133,0.04918 0.03267,0.256174 -0.02421,0.174724 -0.03864,0.225018 -0.121314,0.420804 -0.149789,0.35487 -0.205019,0.432224 -0.479649,0.671843 -0.10703,0.09335 -0.256221,0.169174 -0.467719,0.237697 -0.277822,0.08999 -0.46278,0.104863 -0.878308,0.07044 z m 2.304997,-0.170379 c -0.01943,-0.03148 0.0087,-0.09184 0.103774,-0.221705 0.317823,-0.434601 0.542228,-0.819585 0.702772,-1.205704 0.161143,-0.387534 0.227499,-0.735153 0.227336,-1.190931 -1.63e-4,-0.295896 -0.0022,-0.313839 -0.05709,-0.551834 -0.06112,-0.263548 -0.117038,-0.414638 -0.228106,-0.615683 -0.0901,-0.163204 -0.153695,-0.250783 -0.432831,-0.596622 -0.07674,-0.09509 -0.172008,-0.214635 -0.211737,-0.26573 -0.03973,-0.05102 -0.13928,-0.17141 -0.221235,-0.267379 -0.08196,-0.09596 -0.205452,-0.244269 -0.274468,-0.329546 -0.06903,-0.08521 -0.157853,-0.190808 -0.19743,-0.234511 -0.03962,-0.04364 -0.148561,-0.174721 -0.242196,-0.291184 -0.09368,-0.116453 -0.19654,-0.243488 -0.22866,-0.282305 -0.16061,-0.194065 -0.484023,-0.583422 -0.554168,-0.667146 -0.04364,-0.0521 -0.119339,-0.143829 -0.168252,-0.203889 -0.04896,-0.06013 -0.214765,-0.260433 -0.36857,-0.445239 -0.153804,-0.184816 -0.342484,-0.414193 -0.419294,-0.509727 -0.46608,-0.57971 -0.889402,-0.908279 -1.455358,-1.129569 -0.377287,-0.147519 -0.533739,-0.165636 -1.427461,-0.165277 -0.920795,3.15e-4 -2.472111,0.04179 -2.631613,0.07034 -0.01292,0.0022 -0.08347,0.0098 -0.156833,0.01585 -0.07327,0.0065 -0.150157,0.01802 -0.170748,0.02573 -0.02062,0.0076 -0.06296,0.01824 -0.09411,0.02323 -0.03115,0.0054 -0.06903,0.01552 -0.08413,0.02367 -0.01509,0.0076 -0.02746,0.0098 -0.02746,0.0032 0,-0.0065 -0.01237,-3.04e-4 -0.02746,0.01248 -0.05134,0.04364 -0.168523,0.102689 -0.189114,0.09542 -0.01129,-0.0043 -0.03452,0.0054 -0.05178,0.02095 -0.03506,0.0317 -0.07675,0.04266 -0.07675,0.02008 0,-0.0076 -0.04342,0.01466 -0.0965,0.0507 -0.181994,0.123595 -0.268595,0.204561 -0.350257,0.327494 -0.07088,0.106705 -0.133451,0.266283 -0.133603,0.340857 -1.52e-4,0.06969 -0.02887,0.154206 -0.06285,0.18499 -0.09129,0.08261 -0.432647,-0.05123 -0.719988,-0.282142 -0.09672,-0.07772 -0.318789,-0.300325 -0.410741,-0.411696 -0.6343,-0.878037 0.299683,-0.905207 -0.211509,-0.397585 -0.02236,-0.06405 -0.04657,-0.13763 -0.05362,-0.163509 -0.09465,-0.344027 -0.111686,-0.430388 -0.13394,-0.678761 -0.01595,-0.177826 -0.01172,-0.765167 0.0065,-0.913163 0.01889,-0.152914 0.0432,-0.32795 0.05655,-0.407788 0.01769,-0.10486 0.02301,-0.14968 0.03278,-0.274447 0.0054,-0.06903 0.01259,-0.129934 0.01595,-0.135394 0.0032,-0.0054 0.01346,-0.114878 0.02247,-0.243129 0.0087,-0.128241 0.03344,-0.434318 0.05449,-0.680162 0.02095,-0.245843 0.04939,-0.595221 0.06307,-0.776358 0.01368,-0.181159 0.03484,-0.424646 0.04689,-0.541109 0.01216,-0.116453 0.02583,-0.333595 0.0304,-0.482547 0.01747,-0.563959 0.05503,-0.577289 0.461412,-0.163932 0.172475,0.175417 0.27182,0.291434 0.345308,0.403252 0.187801,0.285745 0.220073,0.313361 0.264492,0.226315 0.03506,-0.06871 0.01618,-0.298512 -0.04407,-0.538189 -0.01563,-0.06198 -0.01433,-0.07794 0.0087,-0.113283 0.02627,-0.04005 0.0304,-0.04092 0.15477,-0.03343 0.364781,0.02215 1.10471,0.353916 1.503022,0.673996 0.236106,0.189723 0.321449,0.24669 0.370241,0.247081 0.01976,1.63e-4 0.06209,-0.01335 0.09411,-0.03007 0.0584,-0.0305 0.301095,-0.227922 0.520876,-0.423669 0.0647,-0.05764 0.174092,-0.15312 0.243096,-0.212215 0.06903,-0.05905 0.181941,-0.161283 0.250945,-0.227119 0.06904,-0.06578 0.18193,-0.165071 0.250946,-0.220497 0.170314,-0.136815 0.62821,-0.529787 0.884224,-0.75887 0.115399,-0.103231 0.243433,-0.216404 0.284508,-0.251444 0.17495,-0.149191 0.533598,-0.461456 0.829755,-0.722431 0.117461,-0.103557 0.284008,-0.247841 0.37011,-0.32071 0.08608,-0.07284 0.195411,-0.168165 0.242934,-0.211737 0.04755,-0.04364 0.20632,-0.18156 0.352896,-0.306642 0.146563,-0.125082 0.291173,-0.252454 0.321372,-0.283065 0.03018,-0.03061 0.157234,-0.140985 0.282305,-0.245301 0.287928,-0.240123 0.441667,-0.373205 0.784206,-0.678793 0.15096,-0.134678 0.345047,-0.304558 0.431311,-0.377525 0.0863,-0.07295 0.299098,-0.256189 0.472962,-0.407159 0.461814,-0.400994 0.727163,-0.621838 1.055374,-0.87833 0.04972,-0.03886 0.142526,-0.113457 0.206343,-0.165842 0.06382,-0.05232 0.23248,-0.182266 0.374811,-0.288613 0.14234,-0.106269 0.294082,-0.220833 0.337209,-0.25445 0.04309,-0.03365 0.120773,-0.09042 0.172518,-0.126233 0.05178,-0.03582 0.173322,-0.123659 0.270137,-0.195216 0.09683,-0.07154 0.217414,-0.156626 0.268009,-0.189017 0.05059,-0.03235 0.219531,-0.143568 0.375419,-0.247091 0.899573,-0.597328 1.616869,-0.986033 2.37523,-1.287096 0.118091,-0.04678 0.218597,-0.08521 0.22334,-0.08521 0.0043,0 0.102255,-0.03441 0.216579,-0.07631 0.174005,-0.06394 0.629349,-0.213496 0.944589,-0.310355 0.321447,-0.09878 0.898009,-0.238365 1.608141,-0.389379 0.355251,-0.07555 1.155588,-0.211845 1.466452,-0.24974 0.112154,-0.01368 0.228606,-0.02822 0.258794,-0.03224 0.422116,-0.0571 0.864044,-0.108115 1.097871,-0.12683 0.309725,-0.02475 0.372759,-0.02974 0.666581,-0.05373 0.103449,-0.0087 0.424636,-0.0191 0.713617,-0.02377 1.364447,-0.02193 2.058178,-0.09031 2.744689,-0.270289 0.618397,-0.162151 1.046745,-0.31677 1.482137,-0.535052 0.243716,-0.122173 0.364532,-0.193631 0.689205,-0.407626 0.17954,-0.118341 0.218195,-0.12798 0.225196,-0.05612 0.0087,0.09031 -0.15884,0.455019 -0.31869,0.693285 -0.115877,0.172746 -0.09314,0.20313 0.09596,0.128046 0.237268,-0.09422 0.742513,-0.374215 0.89243,-0.494553 0.02583,-0.02073 0.09998,-0.07772 0.164682,-0.12646 0.114704,-0.08651 0.398084,-0.362284 0.557999,-0.543063 0.0965,-0.109049 0.132094,-0.116615 0.132094,-0.028 0,0.03409 -0.0098,0.09943 -0.02193,0.145077 -0.05525,0.210043 -0.108441,0.383809 -0.126233,0.412467 -0.01085,0.01726 -0.04982,0.112533 -0.08695,0.211736 -0.06763,0.180714 -0.168545,0.39702 -0.219521,0.470519 -0.01498,0.0215 -0.05036,0.08152 -0.07859,0.133321 -0.02833,0.05177 -0.111437,0.182331 -0.184807,0.290143 -0.426057,0.626169 -0.948593,1.081264 -1.767948,1.539755 -0.146651,0.08206 -0.298382,0.163921 -0.33721,0.181929 -0.189158,0.08782 -0.181853,0.136871 0.02041,0.136871 0.169729,0 0.4431,-0.03344 0.599151,-0.07317 0.274555,-0.07001 0.504322,-0.14474 0.645534,-0.209881 0.05124,-0.02367 0.09824,-0.01704 0.101169,0.01422 0.0098,0.106813 -0.05102,0.234479 -0.210934,0.441385 -0.194304,0.251498 -0.577734,0.486118 -0.946706,0.579286 -0.183622,0.04635 -0.565879,0.110123 -0.851572,0.142015 -0.107789,0.01205 -0.263102,0.02963 -0.345057,0.03908 -0.09031,0.01085 -0.609116,0.01953 -1.317446,0.02301 -1.107434,0.0054 -1.700593,0.02073 -2.125185,0.0546 -0.103556,0.0076 -0.311722,0.01921 -0.462671,0.02442 -0.150961,0.0054 -0.337992,0.01585 -0.415627,0.02377 -0.07772,0.0076 -0.261138,0.0254 -0.407788,0.03908 -0.14664,0.01357 -0.333671,0.03495 -0.415626,0.04733 -0.08196,0.01237 -0.208991,0.03007 -0.282316,0.0393 -0.07327,0.0087 -0.207417,0.0305 -0.29799,0.04733 -0.09053,0.01683 -0.25291,0.04504 -0.360733,0.06264 -0.10779,0.01769 -0.259564,0.04255 -0.337199,0.05525 -0.206635,0.03398 -0.664085,0.129294 -0.862622,0.179704 -0.510042,0.129489 -0.900116,0.25164 -1.301771,0.407648 -0.06903,0.02681 -0.178412,0.06871 -0.243108,0.09324 -0.485021,0.183394 -1.485665,0.657974 -1.94482,0.92239 -0.617582,0.355652 -0.861254,0.52258 -1.482126,1.01533 -0.336678,0.267184 -0.664487,0.523904 -0.829569,0.649637 -0.06133,0.04667 -0.153826,0.121359 -0.205582,0.165907 -0.05178,0.04461 -0.224677,0.185241 -0.384255,0.312656 -0.330719,0.264026 -0.528637,0.424581 -0.671814,0.544974 -0.0546,0.04592 -0.175807,0.147063 -0.269247,0.224697 -0.253474,0.210598 -0.544767,0.455681 -0.6498,0.546722 -0.05124,0.0444 -0.135871,0.113793 -0.188214,0.154304 -0.285572,0.221072 -0.702447,0.580708 -0.721095,0.622097 -0.02247,0.04971 0.152338,-0.04016 0.210303,-0.108115 0.0043,-0.0054 0.05287,-0.03625 0.107899,-0.06947 0.05503,-0.0331 0.14182,-0.09498 0.19286,-0.137445 0.05102,-0.04245 0.136578,-0.107356 0.190092,-0.14422 0.309128,-0.212865 0.427523,-0.296351 0.434503,-0.306348 0.0043,-0.0065 0.187813,-0.132528 0.407789,-0.280775 0.219964,-0.148235 0.452869,-0.308032 0.517565,-0.355088 0.0647,-0.04711 0.191741,-0.132636 0.282315,-0.19019 0.09053,-0.05753 0.231732,-0.150102 0.313676,-0.205701 0.141842,-0.09617 0.256634,-0.172356 0.87046,-0.577289 0.146651,-0.09672 0.284281,-0.184784 0.305839,-0.19566 0.02161,-0.01085 0.102688,-0.06003 0.180366,-0.109104 0.428825,-0.271342 0.481407,-0.303234 0.776359,-0.470791 0.05612,-0.03181 0.183372,-0.107464 0.28288,-0.167948 0.09954,-0.06057 0.24657,-0.142971 0.32681,-0.183199 0.08022,-0.04028 0.171595,-0.09064 0.203042,-0.11198 0.03148,-0.02139 0.06274,-0.03886 0.06958,-0.03886 0.0065,0 0.03908,-0.01693 0.07164,-0.03745 0.03256,-0.02052 0.09715,-0.05373 0.143546,-0.0736 0.04635,-0.01998 0.174461,-0.0838 0.284694,-0.142038 0.110231,-0.05818 0.251932,-0.128229 0.314891,-0.155638 0.06296,-0.02746 0.165874,-0.0737 0.228682,-0.102905 0.283184,-0.131584 1.046929,-0.379587 1.485567,-0.482384 0.796353,-0.186618 1.362896,-0.296287 1.756605,-0.34001 0.07761,-0.0087 0.187031,-0.0229 0.243097,-0.03159 0.135612,-0.02116 0.166364,-0.02562 0.258793,-0.03723 0.0432,-0.0054 0.145467,-0.01998 0.227412,-0.03213 0.08196,-0.01226 0.346621,-0.04038 0.588155,-0.0623 0.241534,-0.02193 0.499144,-0.0469 0.572458,-0.05536 0.07327,-0.0087 0.263895,-0.02247 0.423474,-0.03126 0.159579,-0.0087 0.321915,-0.01954 0.360732,-0.02388 0.109429,-0.01237 1.646482,-0.05351 2.336912,-0.06253 0.69652,-0.0087 1.100401,-0.01932 1.262552,-0.03192 0.258261,-0.02008 0.837635,-0.09487 0.97241,-0.125668 0.368711,-0.08423 0.567997,-0.138791 0.711804,-0.195009 0.187063,-0.07317 0.228909,-0.07218 0.213223,0.0054 -0.03561,0.175481 -0.502465,0.748406 -0.881868,1.082239 -0.134808,0.118623 -0.358941,0.279071 -0.592779,0.424332 -0.145207,0.0902 -0.806188,0.344417 -1.026619,0.394839 -0.370817,0.08478 -0.713367,0.236063 -0.863231,0.38115 -0.116289,0.112577 -0.15528,0.278778 -0.102579,0.437358 0.0305,0.09172 0.117125,0.180029 0.205159,0.209012 0.166819,0.05492 0.705225,-6.08e-4 0.925353,-0.09563 0.04928,-0.02128 0.48702,-0.140919 0.515502,-0.140919 0.05395,0 0.0215,0.06144 -0.08814,0.166558 -0.107899,0.103557 -0.262289,0.225534 -0.285443,0.225534 -0.0065,0 -0.03321,0.01672 -0.06068,0.03702 -0.203487,0.150808 -0.823979,0.372401 -1.147804,0.409916 -0.04309,0.0054 -0.09324,0.01226 -0.111296,0.01606 -0.01813,0.0032 -0.233339,0.02106 -0.478357,0.03831 -0.245019,0.01726 -0.4949,0.04179 -0.555264,0.05471 -0.235683,0.05015 -0.361774,0.08934 -0.499611,0.155063 -0.148257,0.07077 -0.195324,0.10638 -0.412771,0.312342 -0.07055,0.06686 -0.141809,0.121554 -0.158309,0.121554 -0.01943,0 -0.06101,-0.04288 -0.117765,-0.121554 -0.105945,-0.146684 -0.201349,-0.242218 -0.294702,-0.29505 -0.39206,-0.221897 -0.737877,-0.313144 -1.253705,-0.330783 -0.227531,-0.0076 -0.332466,-0.0043 -0.486205,0.0164 -0.10779,0.01454 -0.252508,0.03365 -0.321524,0.04277 -0.432896,0.05666 -0.913001,0.183579 -1.452308,0.383787 -0.125929,0.04678 -0.2331,0.085 -0.238158,0.085 -0.01324,0 -0.580068,0.25762 -0.701339,0.318722 -0.356141,0.179476 -0.662544,0.349574 -0.971401,0.539275 -0.08141,0.05004 -0.211976,0.128296 -0.290153,0.173995 -0.17546,0.102579 -1.106967,0.722431 -1.31192,0.872989 -0.08261,0.06068 -0.233849,0.170412 -0.335961,0.243727 -0.102146,0.07327 -0.281524,0.207481 -0.398649,0.298131 -0.117137,0.09064 -0.23767,0.182233 -0.267868,0.203553 -0.03018,0.02138 -0.125473,0.09563 -0.211737,0.165267 -0.0863,0.06958 -0.188595,0.149363 -0.227412,0.177272 -0.09498,0.06828 -0.584648,0.461954 -0.626852,0.503985 -0.01335,0.01324 -0.108887,0.09552 -0.212345,0.182874 -0.198787,0.167742 -0.330969,0.299629 -0.315641,0.314957 0.01835,0.01824 0.149321,-0.04516 0.285931,-0.138695 0.07674,-0.05254 0.305459,-0.201814 0.508175,-0.331738 0.367332,-0.235423 0.759718,-0.494932 1.590622,-1.051955 0.240818,-0.161435 0.505483,-0.334626 0.588155,-0.384874 0.08261,-0.05026 0.220876,-0.137163 0.30713,-0.193153 0.0863,-0.05601 0.188605,-0.117646 0.227422,-0.137033 0.03886,-0.01943 0.169392,-0.09346 0.290154,-0.164648 0.549174,-0.323619 1.101486,-0.608616 1.458614,-0.752651 0.06903,-0.02789 0.139584,-0.05861 0.156844,-0.06839 0.08586,-0.04863 0.396477,-0.165224 0.705779,-0.265014 0.479952,-0.154857 0.774512,-0.208003 1.152764,-0.208003 0.255451,0 0.396077,0.01629 0.556785,0.06459 0.422323,0.12684 0.757698,0.389314 0.929684,0.727587 0.06296,0.123681 0.0635,0.24237 0.0022,0.24237 -0.01726,0 -0.106813,-0.02497 -0.198918,-0.05547 -0.318344,-0.105401 -0.354252,-0.111697 -0.724298,-0.126623 -0.2764,-0.01118 -0.326115,-0.0032 -0.562613,0.08608 -0.210445,0.07978 -0.433569,0.255993 -0.601083,0.474698 -0.124105,0.162021 -0.171932,0.259988 -0.174873,0.358128 -0.0022,0.07598 0.0011,0.08467 0.06264,0.141668 0.136794,0.127665 0.36222,0.14398 0.57743,0.04179 0.156084,-0.07413 0.257903,-0.142948 0.397064,-0.268389 0.06285,-0.05655 0.120892,-0.103013 0.129033,-0.103013 0.0076,0 0.02562,0.01661 0.03897,0.03691 0.02193,0.03355 0.0215,0.04538 -0.0054,0.130434 -0.01595,0.05134 -0.05786,0.135415 -0.09281,0.186596 -0.133092,0.194391 -0.481049,0.532046 -0.702045,0.681258 -0.06035,0.04082 -0.213127,0.150949 -0.339413,0.244856 -0.126308,0.0939 -0.27805,0.205517 -0.337209,0.248036 -0.05916,0.04255 -0.291076,0.213712 -0.515362,0.380444 -0.224285,0.166733 -0.467773,0.347576 -0.541098,0.401906 -0.07327,0.05428 -0.250001,0.186596 -0.392613,0.293963 -0.142613,0.107356 -0.388782,0.29049 -0.547037,0.406942 -0.158243,0.116441 -0.356748,0.264666 -0.441091,0.329361 -0.08434,0.0647 -0.214473,0.163498 -0.289166,0.219575 -0.207926,0.156105 -0.227314,0.173027 -0.251271,0.219367 -0.03256,0.06296 -0.0043,0.09151 0.109679,0.110114 0.05818,0.0098 0.902699,0.01552 2.21144,0.01552 1.253693,0 2.200671,0.0065 2.321627,0.01574 0.327017,0.02497 0.835008,0.137327 1.093986,0.242012 0.47726,0.192915 0.868744,0.462584 1.092389,0.752455 0.123226,0.159731 0.0673,0.193566 -0.147269,0.08912 -0.118276,-0.05753 -0.469478,-0.203867 -0.642592,-0.267727 -0.0863,-0.03181 -0.139509,-0.02247 -0.146803,0.02573 -0.0022,0.01824 0.03962,0.09031 0.104968,0.178662 0.109276,0.14778 0.301171,0.4949 0.380846,0.688878 0.153153,0.372922 0.194911,0.914857 0.100951,1.309989 -0.09791,0.411783 -0.153413,0.576485 -0.269225,0.799294 -0.124626,0.239787 -0.290989,0.510716 -0.398507,0.648997 -0.05134,0.06611 -0.13724,0.179237 -0.190842,0.251488 -0.05362,0.07218 -0.165722,0.202836 -0.249164,0.290153 -0.08337,0.08738 -0.172226,0.181256 -0.197301,0.208709 -0.0939,0.102796 -0.394827,0.372955 -0.508283,0.456245 -0.0647,0.04744 -0.167818,0.124181 -0.22916,0.170423 -0.112077,0.08445 -0.336992,0.209544 -0.37683,0.209544 -0.01183,0 -0.02139,-0.0087 -0.02139,-0.01998 0,-0.03528 0.115334,-0.217882 0.189572,-0.300194 0.09118,-0.10106 0.288329,-0.417754 0.362187,-0.581664 0.153358,-0.340369 0.1954,-0.572078 0.180734,-0.995932 -0.01704,-0.49401 -0.124668,-0.80101 -0.37772,-1.077898 -0.147725,-0.16161 -0.327331,-0.269986 -0.605729,-0.365433 -0.145673,-0.04993 -0.15642,-0.05124 -0.482373,-0.05861 -0.582988,-0.01314 -0.991916,0.07403 -0.991916,0.211401 0,0.0304 0.04266,0.08282 0.173745,0.213756 0.204106,0.20378 0.338229,0.376309 0.421227,0.541836 0.06264,0.125017 0.171812,0.444891 0.206592,0.605544 0.0292,0.135113 0.02519,0.670274 -0.0065,0.823404 -0.01325,0.0647 -0.02887,0.145869 -0.03473,0.180377 -0.02225,0.131226 -0.137098,0.527432 -0.222646,0.767739 -0.09259,0.260064 -0.325735,0.751403 -0.461011,0.971487 -0.103556,0.168502 -0.31437,0.46786 -0.423018,0.600715 -0.04798,0.05872 -0.105727,0.134091 -0.128229,0.167503 -0.06524,0.09683 -0.519052,0.577636 -0.733329,0.776944 -0.373476,0.34738 -1.053551,0.859225 -1.231518,0.926884 -0.128696,0.04896 -0.134026,-0.01454 -0.01443,-0.172453 0.04798,-0.06328 0.09835,-0.136849 0.1121,-0.163498 0.01368,-0.0266 0.05797,-0.0978 0.09824,-0.15821 0.07424,-0.111253 0.25964,-0.490222 0.302995,-0.619527 0.03723,-0.111132 0.100951,-0.413867 0.129879,-0.616887 0.03571,-0.251097 0.02367,-0.818877 -0.02247,-1.057393 -0.06665,-0.34457 -0.258663,-0.816783 -0.447637,-1.10064 -0.285171,-0.42837 -0.903209,-1.019867 -1.085975,-1.039352 -0.06545,-0.0065 -0.05395,0.02746 0.07946,0.238331 0.195977,0.30965 0.331827,0.562917 0.445836,0.831241 0.138368,0.325649 0.177164,0.443263 0.230212,0.697943 0.03951,0.189473 0.04255,0.231634 0.04309,0.595991 6.19e-4,0.439985 -0.01617,0.561451 -0.123497,0.893994 -0.103882,0.321741 -0.291185,0.728802 -0.414953,0.90182 -0.03398,0.04744 -0.105293,0.149776 -0.15858,0.227422 -0.188703,0.274967 -0.524783,0.630435 -0.894666,0.94623 -0.469152,0.400561 -1.237988,0.912406 -1.590547,1.058873 -0.06969,0.02896 -0.159611,0.07532 -0.199796,0.102903 -0.124995,0.08608 -0.243509,0.120762 -0.269322,0.07903 z m -9.606396,-10.2628 c 2.61e-4,-0.0076 -0.01346,-0.0022 -0.0305,0.01389 -0.01704,0.01552 -0.02692,0.03462 -0.02204,0.04266 0.0098,0.01487 0.05167,-0.03072 0.05254,-0.05645 z m 0.205202,0.03854 c -0.0178,-0.01129 -0.01378,-0.01661 0.019,-0.02486 0.0229,-0.0065 0.04928,-0.01965 0.05861,-0.03083 0.0098,-0.01129 0.03072,-0.01683 0.04755,-0.01237 0.02193,0.0065 0.03452,-0.0022 0.0444,-0.02909 0.0076,-0.02041 0.01085,-0.04559 0.0065,-0.05591 -0.0043,-0.01085 -0.0011,-0.028 0.0054,-0.03919 0.01672,-0.02648 0.01726,-0.106596 6.19e-4,-0.106596 -0.0065,0 -0.0087,-0.01303 -0.0032,-0.02888 0.0054,-0.01683 -0.0043,-0.04537 -0.02193,-0.06849 -0.01715,-0.02171 -0.02627,-0.0444 -0.0203,-0.05037 0.0054,-0.0065 -8.66e-4,-0.0065 -0.01488,-8.65e-4 -0.01411,0.0054 -0.04494,-2.28e-4 -0.06839,-0.01259 -0.03713,-0.01943 -0.05482,-0.01932 -0.134384,5.98e-4 -0.05037,0.0127 -0.08825,0.02844 -0.08423,0.03517 0.0043,0.0065 -0.0043,0.02171 -0.01889,0.03344 -0.02268,0.01835 -0.02442,0.01813 -0.01248,-0.0022 0.01194,-0.02019 0.0098,-0.02052 -0.01248,-0.0022 -0.01454,0.01173 -0.02247,0.02768 -0.0178,0.03528 0.0043,0.0076 6.19e-4,0.01389 -0.0087,0.01389 -0.0098,0 -0.01346,0.0065 -0.0087,0.01455 0.0054,0.0076 0.0032,0.01824 -0.0043,0.02258 -0.0098,0.0065 -0.01346,0.167623 -0.0043,0.194109 6.19e-4,0.0022 6.19e-4,0.0087 -1.52e-4,0.01422 -0.0022,0.01379 0.04092,0.03713 0.08293,0.04516 0.01856,0.0032 0.03788,0.01314 0.04288,0.02106 0.0054,0.0076 0.03376,0.02161 0.06393,0.03029 0.0711,0.02041 0.09183,0.0216 0.0635,0.0032 z m 0.625703,-0.414219 c -0.01509,-0.014 -0.01715,-0.01151 -0.0098,0.01085 0.0054,0.01585 0.01096,0.03702 0.01194,0.04711 8.66e-4,0.0098 0.0054,0.0054 0.0098,-0.01085 0.0043,-0.01595 -0.0011,-0.03713 -0.01194,-0.04711 z m 16.029888,7.304112 c -0.04157,-0.01683 -0.07837,-0.05655 -0.07837,-0.08456 0,-0.01498 0.08944,-0.10703 0.19997,-0.205734 0.196344,-0.175329 0.422736,-0.406671 0.479865,-0.490362 0.0394,-0.05775 0.101277,-0.08565 0.122064,-0.05514 0.03419,0.05004 -0.02952,0.432593 -0.09248,0.555677 -0.0495,0.09672 -0.137044,0.182364 -0.23691,0.231602 -0.08478,0.04179 -0.12049,0.04993 -0.235248,0.05373 -0.07436,0.0022 -0.145892,1.63e-4 -0.15883,-0.0054 z M 34.483479,79.853215 c -0.537918,-0.486248 -1.159267,-1.212359 -1.585596,-1.852964 -0.1323,-0.198776 -0.379186,-0.605403 -0.438052,-0.721465 -0.09846,-0.194162 -0.272546,-0.563286 -0.272546,-0.577962 0,-0.0076 -0.02052,-0.06307 -0.04549,-0.122248 -0.128653,-0.3042 -0.258685,-0.819941 -0.315792,-1.252446 -0.02225,-0.168633 -0.02247,-0.892279 -2.94e-4,-1.105753 0.02399,-0.231135 0.06068,-0.477977 0.08565,-0.576735 0.01248,-0.04939 0.0343,-0.153316 0.04852,-0.23095 0.04461,-0.243228 0.193273,-0.726393 0.270538,-0.879014 0.01726,-0.03409 0.05026,-0.114683 0.07338,-0.179042 0.04266,-0.118721 0.101928,-0.2373 0.266837,-0.533879 0.152892,-0.27487 0.197842,-0.345547 0.339099,-0.533251 0.243183,-0.323142 0.46228,-0.557837 0.776032,-0.831251 0.163323,-0.142342 0.346436,-0.305177 0.406909,-0.361873 0.06046,-0.05666 0.180529,-0.164387 0.266793,-0.239298 0.166635,-0.144696 0.27817,-0.243259 0.580307,-0.512788 0.103556,-0.09238 0.238071,-0.209425 0.299,-0.260194 0.144751,-0.120598 0.324661,-0.281122 0.491806,-0.438844 0.07403,-0.06991 0.21571,-0.194803 0.314913,-0.277735 0.09922,-0.08293 0.250946,-0.214799 0.33721,-0.293052 0.27234,-0.247048 0.593181,-0.527551 0.671847,-0.587384 0.08326,-0.06339 0.302104,-0.165625 0.354371,-0.165625 0.028,0 0.03148,0.0065 0.02301,0.04309 -0.0054,0.02377 -0.03289,0.08554 -0.06101,0.13724 -0.170065,0.314045 -0.201208,0.559357 -0.09118,0.718143 0.05373,0.0775 0.110786,0.10627 0.212899,0.107247 0.176285,0.0022 0.290653,-0.08662 0.550966,-0.425417 0.08022,-0.104425 0.270766,-0.450058 0.325682,-0.590836 0.131388,-0.336797 0.182244,-0.570646 0.217403,-0.999645 0.01932,-0.235162 0.0317,-0.286842 0.0724,-0.302473 0.04581,-0.01758 0.171856,0.160599 0.266706,0.376819 0.03843,0.08771 0.08065,0.182646 0.09357,0.210966 0.06426,0.139845 0.125505,0.410003 0.154868,0.683157 0.01987,0.184947 0.05591,0.208329 0.162107,0.105293 0.08,-0.07772 0.09531,-0.107789 0.166896,-0.330186 0.05645,-0.17508 0.07728,-0.219574 0.103013,-0.219574 0.02236,0 0.07599,0.130618 0.119112,0.290153 0.03831,0.141777 0.04234,0.181702 0.04146,0.415626 -8.65e-4,0.211727 -0.0065,0.280786 -0.03387,0.379805 -0.09726,0.357725 -0.230125,0.599031 -0.485999,0.882759 -0.212833,0.236007 -0.752998,0.779397 -1.279789,1.287453 -0.258598,0.249403 -0.643255,0.623411 -0.854775,0.831121 -0.421378,0.41377 -0.941136,0.910493 -1.006277,0.961696 -0.04982,0.03908 -0.326094,0.361167 -0.432006,0.50353 -0.127122,0.170835 -0.263526,0.393253 -0.389064,0.634353 -0.256296,0.492251 -0.352026,0.84913 -0.355717,1.32614 -0.0032,0.437586 0.07099,0.704607 0.322827,1.159549 0.209935,0.379187 0.703738,1.001653 0.764711,0.963965 0.02562,-0.01584 0.01173,-0.05861 -0.08011,-0.24669 -0.134026,-0.274511 -0.25901,-0.603764 -0.330067,-0.869515 -0.03398,-0.127025 -0.06534,-0.252128 -0.06969,-0.278007 -0.05764,-0.340282 -0.05743,-0.902243 6.19e-4,-1.166757 0.0483,-0.220508 0.211791,-0.606793 0.355858,-0.840793 0.120262,-0.195336 0.359701,-0.557685 0.389085,-0.588785 0.0393,-0.04157 0.130336,-0.148332 0.194174,-0.227628 0.11275,-0.140062 0.645914,-0.678153 0.817249,-0.824815 0.04386,-0.03756 0.163877,-0.145924 0.26663,-0.240763 0.102797,-0.09487 0.207678,-0.190103 0.233186,-0.211726 0.02551,-0.02161 0.09607,-0.08554 0.156833,-0.141994 0.06079,-0.05645 0.205757,-0.186923 0.322208,-0.289893 0.116452,-0.103014 0.218793,-0.195628 0.227412,-0.205908 0.0087,-0.0098 0.04744,-0.0445 0.0863,-0.07621 0.03886,-0.03158 0.15528,-0.136826 0.258793,-0.233783 0.103556,-0.09694 0.216438,-0.200079 0.250945,-0.229149 0.03452,-0.02909 0.119264,-0.106161 0.188355,-0.171248 0.06903,-0.06513 0.182016,-0.167046 0.250946,-0.22651 0.127469,-0.109971 0.345807,-0.308661 0.587807,-0.534933 0.07381,-0.06893 0.17635,-0.160762 0.227868,-0.203889 0.599856,-0.502227 1.041284,-0.927524 1.374021,-1.323784 0.268412,-0.319657 0.510608,-0.726947 0.571091,-0.960394 0.03289,-0.126829 0.04841,-0.154683 0.08608,-0.154683 0.03821,0 0.09498,0.08716 0.176263,0.270788 0.130759,0.295092 0.158048,0.65361 0.07469,0.98093 -0.05058,0.198429 -0.107898,0.349085 -0.189365,0.497049 -0.06958,0.126461 -0.170542,0.292564 -0.195411,0.321525 -0.04841,0.05644 -0.182494,0.33392 -0.227282,0.470519 -0.06708,0.204627 -0.07207,0.404814 -0.01314,0.533251 0.04907,0.106921 0.140952,0.191709 0.245409,0.226412 0.06589,0.02193 0.09542,0.02356 0.170738,0.0098 0.222234,-0.04049 0.401656,-0.185381 0.516946,-0.417471 0.08955,-0.180345 0.114976,-0.336037 0.115128,-0.705877 1.52e-4,-0.314447 0.0076,-0.33683 0.09389,-0.293204 0.07739,0.03897 0.271711,0.271744 0.343473,0.411317 0.03343,0.06491 0.08337,0.186999 0.111101,0.271244 0.05546,0.168513 0.08152,0.206407 0.133277,0.193424 0.01878,-0.0043 0.0495,0.0022 0.06828,0.01552 0.08261,0.05786 0.01477,0.315315 -0.145098,0.550596 -0.07207,0.106053 -0.314447,0.339837 -0.598576,0.577344 -0.164496,0.137488 -0.62086,0.507318 -0.735445,0.595991 -0.298425,0.230896 -1.053431,0.853125 -1.529769,1.260729 -0.523546,0.448006 -1.244968,1.154882 -1.510436,1.479999 -0.487356,0.59686 -0.671477,1.178849 -0.479366,1.515223 0.05591,0.09791 0.126992,0.147931 0.195606,0.13775 0.02768,-0.0043 0.234348,-0.129804 0.486205,-0.295755 0.650353,-0.428533 0.709872,-0.4671 0.720813,-0.4671 0.0054,0 0.0394,-0.02052 0.07533,-0.04538 0.09389,-0.06534 0.212443,-0.13864 0.567194,-0.350844 0.172518,-0.103231 0.348965,-0.20898 0.392103,-0.235075 0.150374,-0.09096 0.362426,-0.212009 0.603829,-0.344569 0.133701,-0.07349 0.310387,-0.172399 0.392614,-0.219944 0.08228,-0.04755 0.208817,-0.116278 0.281285,-0.152707 0.07251,-0.03647 0.158471,-0.08315 0.191101,-0.103665 0.07924,-0.05015 0.491991,-0.225925 0.530167,-0.225925 0.08196,0 0.05102,0.03441 -0.305133,0.338751 -0.214971,0.183753 -0.434252,0.36539 -1.005256,0.832717 -0.156084,0.127741 -0.514917,0.422823 -0.797406,0.655727 -0.28249,0.232905 -0.582608,0.479931 -0.666919,0.548936 -0.08434,0.06893 -0.212475,0.175829 -0.28479,0.237377 -0.126124,0.107355 -0.318182,0.26955 -0.758839,0.640953 -0.112143,0.09455 -0.218011,0.185098 -0.235259,0.201283 -0.01726,0.01617 -0.147824,0.12543 -0.290154,0.242771 -0.14233,0.117332 -0.3329,0.277258 -0.423474,0.355371 -0.183926,0.158645 -0.251281,0.215872 -0.572773,0.486639 -0.122911,0.103556 -0.30662,0.262321 -0.408256,0.352884 -0.101602,0.09053 -0.246277,0.21762 -0.321415,0.282316 -0.351744,0.302854 -0.483046,0.416993 -0.548263,0.47662 -0.06654,0.06079 -0.300661,0.265914 -0.564632,0.494574 -0.0647,0.05601 -0.177847,0.158645 -0.251455,0.227998 -0.0736,0.06936 -0.257013,0.235498 -0.407572,0.369199 -0.150558,0.133711 -0.323662,0.292704 -0.384667,0.353318 -0.288373,0.286495 -0.296058,0.287537 -0.534043,0.0724 z m 23.254369,-4.297177 c -0.02052,-0.03832 0.03658,-0.123345 0.118656,-0.176644 0.06676,-0.04342 0.389801,-0.170889 0.43294,-0.170889 0.08934,0 -0.0495,0.17572 -0.217838,0.275683 -0.176198,0.104643 -0.301757,0.131672 -0.333758,0.07186 z m 1.858327,-4.1677 c -0.01357,-0.01357 -0.02464,-0.03072 -0.02464,-0.0381 0,-0.03473 0.09281,-0.11681 0.186423,-0.164886 0.05699,-0.02931 0.140919,-0.07501 0.18638,-0.101603 0.07316,-0.04277 0.0838,-0.04527 0.09281,-0.02193 0.01454,0.0381 -0.05297,0.156377 -0.119177,0.208415 -0.08261,0.06491 -0.226402,0.142548 -0.264221,0.142548 -0.01813,0 -0.04407,-0.01107 -0.05753,-0.02464 z"
           id="path23477"
           sodipodi:nodetypes="ssssssssssscssccssssssscssscsccssssscccscsccscccscccssccscsssccssscssscssssssssssssssssssssssssssssssssssssssscssccsssssssssssssssssssssssssssssssscscsssssssssssssssssssssssssssssssssssssssssssssssssssssssssssssssssscssssssssssssscsscsscccsccsssscssssssssssssccsssscssssssssssssssssssssssccssssssssssscscssscssssssccccsccccscsscsccccccccscssscccccccccscscssssssscsscsssccssssssssssssssssscsssscsssssssssccsssssscssssccsssssssssssssssssssssssssssscsssscsssssssssssssssssssssssssssscsssssccssssssssssssss" /><path
           d="m 45.716544,110.19933 v -0.70376 h 0.70376 q 0.149548,0 0.250711,0.10122 0.101171,0.10123 0.101171,0.25072 0,0.14954 -0.101171,0.25071 -0.10117,0.10122 -0.250711,0.10122 z m 0,1.40752 v -0.70377 h 0.70376 q 0.149548,0 0.250711,0.10122 0.101171,0.10123 0.101171,0.25072 0,0.14955 -0.101171,0.25071 -0.10117,0.10123 -0.250711,0.10123 z m -1.407521,0.35187 q -0.290302,0 -0.49703,-0.20673 -0.20673,-0.20672 -0.20673,-0.49703 h -0.70376 v -1.40752 h 0.70376 q 0,-0.2903 0.20673,-0.49703 0.20673,-0.20672 0.49703,-0.20672 h 1.05564 v 2.81503 z m -2.46316,-1.05564 q -0.5806,0 -0.994061,-0.41345 -0.413458,-0.41347 -0.413458,-0.99406 0,-0.5806 0.413458,-0.99407 0.41346,-0.41345 0.994061,-0.41345 h 0.527821 q 0.219926,0 0.373873,-0.15396 0.153947,-0.15394 0.153947,-0.37386 0,-0.21993 -0.153947,-0.37388 -0.153947,-0.15394 -0.373873,-0.15394 h -1.231578 q -0.14955,0 -0.250715,-0.10123 -0.101171,-0.10122 -0.101171,-0.25071 0,-0.14956 0.101171,-0.25071 0.10117,-0.10123 0.250715,-0.10123 h 1.231578 q 0.510226,0 0.870903,0.36067 0.360677,0.36068 0.360677,0.87091 0,0.51022 -0.360677,0.8709 -0.360677,0.36069 -0.870903,0.36069 h -0.527821 q -0.290301,0 -0.49703,0.20672 -0.206727,0.20673 -0.206727,0.49703 0,0.2903 0.206727,0.49703 0.206731,0.20673 0.49703,0.20673 h 0.703761 v 0.70376 z"
           id="path31122"
           style="vector-effect:non-scaling-stroke;fill:#ff0000;fill-opacity:1;stroke:none;stroke-width:0.264583;stroke-dasharray:none;-inkscape-stroke:hairline" /><g
           style="vector-effect:non-scaling-stroke;fill:#fd0000;fill-opacity:1;stroke:none;stroke-width:2.22682;stroke-dasharray:none;-inkscape-stroke:hairline"
           id="g35816"
           transform="matrix(0.11881684,0,0,0.11881684,115.7692,107.48332)"><path
             d="M 0,62.5 V 0 H 87.5 L 75,12.5 H 12.5 V 25 h 75 L 75,37.5 H 12.5 v 25 z m 212.5,0 H 200 V 0 l 75,40.723 V 0 h 12.5 v 62.5 l -75,-39.941 z m 106.25,0 L 353.125,31.25 318.75,0 h 18.75 l 25,22.754 L 387.5,0 h 18.75 L 371.875,31.25 406.25,62.5 H 387.5 l -25,-22.754 -25,22.754 z M 187.5,50 175,62.5 H 100 V 50 Z m 0,-25 L 175,37.5 H 100 V 25 Z M 187.5,0 175,12.5 H 100 V 0 Z M 300,0 h 12.5 V 62.5 H 300 Z"
             vector-effect="non-scaling-stroke"
             id="path35805"
             style="font-size:12px;vector-effect:non-scaling-stroke;fill:#fd0000;fill-opacity:1;fill-rule:evenodd;stroke:none;stroke-width:2.22682;stroke-linecap:round;stroke-dasharray:none;-inkscape-stroke:hairline" /></g><g
           style="vector-effect:non-scaling-stroke;fill:#fd0000;fill-opacity:1;stroke:none;stroke-width:2.22682;stroke-dasharray:none;-inkscape-stroke:hairline"
           id="g49970"
           transform="matrix(0.11881684,0,0,0.11881684,22.254706,202.11029)"><path
             d="M 0,62.5 V 0 H 87.5 L 75,12.5 H 12.5 V 25 h 75 L 75,37.5 H 12.5 v 25 z m 212.5,0 H 200 V 0 l 75,40.723 V 0 h 12.5 v 62.5 l -75,-39.941 z m 106.25,0 L 353.125,31.25 318.75,0 h 18.75 l 25,22.754 L 387.5,0 h 18.75 L 371.875,31.25 406.25,62.5 H 387.5 l -25,-22.754 -25,22.754 z M 187.5,50 175,62.5 H 100 V 50 Z m 0,-25 L 175,37.5 H 100 V 25 Z M 187.5,0 175,12.5 H 100 V 0 Z M 300,0 h 12.5 V 62.5 H 300 Z"
             vector-effect="non-scaling-stroke"
             id="path49968"
             style="font-size:12px;vector-effect:non-scaling-stroke;fill:#fd0000;fill-opacity:1;fill-rule:evenodd;stroke:none;stroke-width:2.22682;stroke-linecap:round;stroke-dasharray:none;-inkscape-stroke:hairline" /></g><path
           d="m 168.3766,189.41923 q -0.88498,0 -1.50445,-0.61948 -0.61948,-0.61948 -0.61948,-1.50445 0,-0.88497 0.61948,-1.50445 0.61947,-0.61947 1.50445,-0.61947 0.88496,0 1.50444,0.61947 0.61948,0.61948 0.61948,1.50445 0,0.88497 -0.61948,1.50445 -0.61948,0.61948 -1.50444,0.61948 z m 3.16819,-2.46023 q -0.10621,-0.97345 -0.72569,-1.71685 -0.61947,-0.74336 -1.53984,-1.00886 l 1.87614,-1.89382 h -4.97352 q -0.56639,0 -0.95577,-0.38939 -0.38939,-0.38938 -0.38939,-0.95577 0,-0.35399 0.18584,-0.66371 0.18583,-0.30975 0.48673,-0.50444 l 8.6019,-5.15051 q 0.31858,-0.1948 0.67256,-0.0974 0.354,0.0974 0.54868,0.41592 0.1947,0.31858 0.0973,0.66374 -0.0973,0.34512 -0.39824,0.53981 l -6.65495,4.01776 h 6.44257 q 0.56638,0 0.95576,0.38938 0.38939,0.38938 0.38939,0.95577 0,0.31858 -0.0796,0.62834 -0.0796,0.30972 -0.30974,0.53981 z"
           id="path51131"
           style="fill:#ff0000;fill-opacity:1;stroke:none;stroke-width:0.00468296" /></g><g
         id="g43001"
         transform="rotate(180,107.63633,111.64526)"
         style="vector-effect:non-scaling-stroke;stroke:#000000;stroke-width:0.264583;stroke-dasharray:none;stroke-opacity:1;-inkscape-stroke:hairline"><path
           style="vector-effect:non-scaling-stroke;fill:none;stroke:#000000;stroke-width:0.264583;stroke-dasharray:none;stroke-opacity:1;-inkscape-stroke:hairline"
           d="M 24.675057,68.89236 H 201.17489"
           id="path38348" /><path
           style="vector-effect:non-scaling-stroke;fill:none;stroke:#000000;stroke-width:0.264583;stroke-dasharray:none;stroke-opacity:1;-inkscape-stroke:hairline"
           d="M 24.675057,162.89299 V 68.89236"
           id="path38350" /><path
           style="vector-effect:non-scaling-stroke;fill:none;stroke:#000000;stroke-width:0.264583;stroke-dasharray:none;stroke-opacity:1;-inkscape-stroke:hairline"
           d="m 201.17489,68.89236 v 94.00063"
           id="path38352" /><path
           style="vector-effect:non-scaling-stroke;fill:none;stroke:#000000;stroke-width:0.264583;stroke-dasharray:none;stroke-opacity:1;-inkscape-stroke:hairline"
           d="M 201.17489,162.89299 H 24.675057"
           id="path38354" /><path
           d="m 36.624947,70.34233 a 1.5500001,1.5500001 0 1 0 1e-5,0"
           style="vector-effect:non-scaling-stroke;fill:none;stroke:#000000;stroke-width:0.264583;stroke-dasharray:none;stroke-opacity:1;-inkscape-stroke:hairline"
           id="path38356" /><path
           d="m 55.212447,76.39233 a 1.4999999,1.4999999 0 1 0 1e-5,0"
           style="vector-effect:non-scaling-stroke;fill:none;stroke:#000000;stroke-width:0.264583;stroke-dasharray:none;stroke-opacity:1;-inkscape-stroke:hairline"
           id="path38358" /><path
           d="m 73.799947,70.34233 a 1.5500001,1.5500001 0 1 0 1e-5,0"
           style="vector-effect:non-scaling-stroke;fill:none;stroke:#000000;stroke-width:0.264583;stroke-dasharray:none;stroke-opacity:1;-inkscape-stroke:hairline"
           id="path38360" /><path
           d="m 65.760197,112.68889 a 1.9999999,1.9999999 0 0 0 -1.73205,-3.00001"
           style="vector-effect:non-scaling-stroke;fill:none;stroke:#000000;stroke-width:0.264583;stroke-dasharray:none;stroke-opacity:1;-inkscape-stroke:hairline"
           id="path38362" /><path
           style="vector-effect:non-scaling-stroke;fill:none;stroke:#000000;stroke-width:0.264583;stroke-dasharray:none;stroke-opacity:1;-inkscape-stroke:hairline"
           d="m 55.956477,109.68793 h 8.07164"
           id="path38364" /><path
           d="m 55.956347,109.68888 a 1.9999999,1.9999999 0 0 0 -1.73205,3.00001"
           style="vector-effect:non-scaling-stroke;fill:none;stroke:#000000;stroke-width:0.264583;stroke-dasharray:none;stroke-opacity:1;-inkscape-stroke:hairline"
           id="path38366" /><path
           style="vector-effect:non-scaling-stroke;fill:none;stroke:#000000;stroke-width:0.264583;stroke-dasharray:none;stroke-opacity:1;-inkscape-stroke:hairline"
           d="m 58.260207,119.6786 -4.03596,-6.99029"
           id="path38368" /><path
           d="m 58.260207,119.67928 a 1.9999999,1.9999999 0 0 0 3.46409,-2e-5"
           style="vector-effect:non-scaling-stroke;fill:none;stroke:#000000;stroke-width:0.264583;stroke-dasharray:none;stroke-opacity:1;-inkscape-stroke:hairline"
           id="path38370" /><path
           style="vector-effect:non-scaling-stroke;fill:none;stroke:#000000;stroke-width:0.264583;stroke-dasharray:none;stroke-opacity:1;-inkscape-stroke:hairline"
           d="m 65.760077,112.68831 -4.03595,6.99029"
           id="path38372" /><path
           d="m 90.760197,112.68889 a 1.9999999,1.9999999 0 0 0 -1.73205,-3.00001"
           style="vector-effect:non-scaling-stroke;fill:none;stroke:#000000;stroke-width:0.264583;stroke-dasharray:none;stroke-opacity:1;-inkscape-stroke:hairline"
           id="path38374" /><path
           style="vector-effect:non-scaling-stroke;fill:none;stroke:#000000;stroke-width:0.264583;stroke-dasharray:none;stroke-opacity:1;-inkscape-stroke:hairline"
           d="m 80.956427,109.68793 h 8.07164"
           id="path38376" /><path
           d="m 80.956347,109.68888 a 1.9999999,1.9999999 0 0 0 -1.73205,3.00001"
           style="vector-effect:non-scaling-stroke;fill:none;stroke:#000000;stroke-width:0.264583;stroke-dasharray:none;stroke-opacity:1;-inkscape-stroke:hairline"
           id="path38378" /><path
           style="vector-effect:non-scaling-stroke;fill:none;stroke:#000000;stroke-width:0.264583;stroke-dasharray:none;stroke-opacity:1;-inkscape-stroke:hairline"
           d="m 83.260147,119.6786 -4.03595,-6.99029"
           id="path38380" /><path
           d="m 83.260207,119.67928 a 1.9999999,1.9999999 0 0 0 3.46409,-2e-5"
           style="vector-effect:non-scaling-stroke;fill:none;stroke:#000000;stroke-width:0.264583;stroke-dasharray:none;stroke-opacity:1;-inkscape-stroke:hairline"
           id="path38382" /><path
           style="vector-effect:non-scaling-stroke;fill:none;stroke:#000000;stroke-width:0.264583;stroke-dasharray:none;stroke-opacity:1;-inkscape-stroke:hairline"
           d="m 90.760027,112.68831 -4.03569,6.99029"
           id="path38384" /><path
           d="m 115.7602,112.68889 a 1.9999999,1.9999999 0 0 0 -1.73205,-3.00001"
           style="vector-effect:non-scaling-stroke;fill:none;stroke:#000000;stroke-width:0.264583;stroke-dasharray:none;stroke-opacity:1;-inkscape-stroke:hairline"
           id="path38386" /><path
           style="vector-effect:non-scaling-stroke;fill:none;stroke:#000000;stroke-width:0.264583;stroke-dasharray:none;stroke-opacity:1;-inkscape-stroke:hairline"
           d="m 105.95635,109.68793 h 8.0718"
           id="path38388" /><path
           d="m 105.95635,109.68888 a 1.9999999,1.9999999 0 0 0 -1.73205,3.00001"
           style="vector-effect:non-scaling-stroke;fill:none;stroke:#000000;stroke-width:0.264583;stroke-dasharray:none;stroke-opacity:1;-inkscape-stroke:hairline"
           id="path38390" /><path
           style="vector-effect:non-scaling-stroke;fill:none;stroke:#000000;stroke-width:0.264583;stroke-dasharray:none;stroke-opacity:1;-inkscape-stroke:hairline"
           d="m 108.26016,119.6786 -4.0359,-6.99029"
           id="path38392" /><path
           d="m 108.2602,119.67928 a 1.9999999,1.9999999 0 0 0 3.4641,-2e-5"
           style="vector-effect:non-scaling-stroke;fill:none;stroke:#000000;stroke-width:0.264583;stroke-dasharray:none;stroke-opacity:1;-inkscape-stroke:hairline"
           id="path38394" /><path
           style="vector-effect:non-scaling-stroke;fill:none;stroke:#000000;stroke-width:0.264583;stroke-dasharray:none;stroke-opacity:1;-inkscape-stroke:hairline"
           d="m 115.76014,112.68831 -4.0359,6.99029"
           id="path38396" /><path
           d="m 49.224297,112.68889 a 1.9999999,1.9999999 0 0 0 -3.4641,0"
           style="vector-effect:non-scaling-stroke;fill:none;stroke:#000000;stroke-width:0.264583;stroke-dasharray:none;stroke-opacity:1;-inkscape-stroke:hairline"
           id="path38398" /><path
           style="vector-effect:non-scaling-stroke;fill:none;stroke:#000000;stroke-width:0.264583;stroke-dasharray:none;stroke-opacity:1;-inkscape-stroke:hairline"
           d="m 41.724277,119.6786 4.03595,-6.99029"
           id="path38400" /><path
           d="m 41.724297,119.67926 a 1.9999999,1.9999999 0 0 0 1.73205,3"
           style="vector-effect:non-scaling-stroke;fill:none;stroke:#000000;stroke-width:0.264583;stroke-dasharray:none;stroke-opacity:1;-inkscape-stroke:hairline"
           id="path38402" /><path
           style="vector-effect:non-scaling-stroke;fill:none;stroke:#000000;stroke-width:0.264583;stroke-dasharray:none;stroke-opacity:1;-inkscape-stroke:hairline"
           d="m 51.528147,122.67897 h -8.07191"
           id="path38404" /><path
           d="m 51.528147,122.67926 a 1.9999999,1.9999999 0 0 0 1.73205,-3"
           style="vector-effect:non-scaling-stroke;fill:none;stroke:#000000;stroke-width:0.264583;stroke-dasharray:none;stroke-opacity:1;-inkscape-stroke:hairline"
           id="path38406" /><path
           style="vector-effect:non-scaling-stroke;fill:none;stroke:#000000;stroke-width:0.264583;stroke-dasharray:none;stroke-opacity:1;-inkscape-stroke:hairline"
           d="m 49.224157,112.68831 4.03595,6.99029"
           id="path38408" /><path
           d="m 49.224297,128.68893 a 1.9999999,1.9999999 0 0 0 -3.4641,0"
           style="vector-effect:non-scaling-stroke;fill:none;stroke:#000000;stroke-width:0.264583;stroke-dasharray:none;stroke-opacity:1;-inkscape-stroke:hairline"
           id="path38410" /><path
           style="vector-effect:non-scaling-stroke;fill:none;stroke:#000000;stroke-width:0.264583;stroke-dasharray:none;stroke-opacity:1;-inkscape-stroke:hairline"
           d="m 41.724277,135.67795 4.03595,-6.99029"
           id="path38412" /><path
           d="m 41.724297,135.67922 a 1.9999999,1.9999999 0 0 0 1.73205,3.00001"
           style="vector-effect:non-scaling-stroke;fill:none;stroke:#000000;stroke-width:0.264583;stroke-dasharray:none;stroke-opacity:1;-inkscape-stroke:hairline"
           id="path38414" /><path
           style="vector-effect:non-scaling-stroke;fill:none;stroke:#000000;stroke-width:0.264583;stroke-dasharray:none;stroke-opacity:1;-inkscape-stroke:hairline"
           d="m 51.528147,138.67833 h -8.07191"
           id="path38416" /><path
           d="m 51.528147,138.67923 a 1.9999999,1.9999999 0 0 0 1.73205,-3.00001"
           style="vector-effect:non-scaling-stroke;fill:none;stroke:#000000;stroke-width:0.264583;stroke-dasharray:none;stroke-opacity:1;-inkscape-stroke:hairline"
           id="path38418" /><path
           style="vector-effect:non-scaling-stroke;fill:none;stroke:#000000;stroke-width:0.264583;stroke-dasharray:none;stroke-opacity:1;-inkscape-stroke:hairline"
           d="m 49.224157,128.68766 4.03595,6.99029"
           id="path38420" /><path
           d="m 74.224297,112.68889 a 1.9999999,1.9999999 0 0 0 -3.4641,0"
           style="vector-effect:non-scaling-stroke;fill:none;stroke:#000000;stroke-width:0.264583;stroke-dasharray:none;stroke-opacity:1;-inkscape-stroke:hairline"
           id="path38422" /><path
           style="vector-effect:non-scaling-stroke;fill:none;stroke:#000000;stroke-width:0.264583;stroke-dasharray:none;stroke-opacity:1;-inkscape-stroke:hairline"
           d="m 66.724227,119.6786 4.03595,-6.99029"
           id="path38424" /><path
           d="m 66.724297,119.67926 a 1.9999999,1.9999999 0 0 0 1.73204,3"
           style="vector-effect:non-scaling-stroke;fill:none;stroke:#000000;stroke-width:0.264583;stroke-dasharray:none;stroke-opacity:1;-inkscape-stroke:hairline"
           id="path38426" /><path
           style="vector-effect:non-scaling-stroke;fill:none;stroke:#000000;stroke-width:0.264583;stroke-dasharray:none;stroke-opacity:1;-inkscape-stroke:hairline"
           d="m 76.528097,122.67897 h -8.07165"
           id="path38428" /><path
           d="m 76.528147,122.67926 a 1.9999999,1.9999999 0 0 0 1.73205,-3"
           style="vector-effect:non-scaling-stroke;fill:none;stroke:#000000;stroke-width:0.264583;stroke-dasharray:none;stroke-opacity:1;-inkscape-stroke:hairline"
           id="path38430" /><path
           style="vector-effect:non-scaling-stroke;fill:none;stroke:#000000;stroke-width:0.264583;stroke-dasharray:none;stroke-opacity:1;-inkscape-stroke:hairline"
           d="m 74.224367,112.68831 4.03569,6.99029"
           id="path38432" /><path
           d="m 65.760197,128.68893 a 1.9999999,1.9999999 0 0 0 -1.73205,-3.00001"
           style="vector-effect:non-scaling-stroke;fill:none;stroke:#000000;stroke-width:0.264583;stroke-dasharray:none;stroke-opacity:1;-inkscape-stroke:hairline"
           id="path38434" /><path
           style="vector-effect:non-scaling-stroke;fill:none;stroke:#000000;stroke-width:0.264583;stroke-dasharray:none;stroke-opacity:1;-inkscape-stroke:hairline"
           d="m 55.956477,125.68993 h 8.07164"
           id="path38436" /><path
           d="m 55.956347,125.68892 a 1.9999999,1.9999999 0 0 0 -1.73205,3.00001"
           style="vector-effect:non-scaling-stroke;fill:none;stroke:#000000;stroke-width:0.264583;stroke-dasharray:none;stroke-opacity:1;-inkscape-stroke:hairline"
           id="path38438" /><path
           style="vector-effect:non-scaling-stroke;fill:none;stroke:#000000;stroke-width:0.264583;stroke-dasharray:none;stroke-opacity:1;-inkscape-stroke:hairline"
           d="m 58.260207,135.67795 -4.03596,-6.99029"
           id="path38440" /><path
           d="m 58.260207,135.67925 a 1.9999999,1.9999999 0 0 0 3.46409,-3e-5"
           style="vector-effect:non-scaling-stroke;fill:none;stroke:#000000;stroke-width:0.264583;stroke-dasharray:none;stroke-opacity:1;-inkscape-stroke:hairline"
           id="path38442" /><path
           style="vector-effect:non-scaling-stroke;fill:none;stroke:#000000;stroke-width:0.264583;stroke-dasharray:none;stroke-opacity:1;-inkscape-stroke:hairline"
           d="m 65.760077,128.68766 -4.03595,6.99029"
           id="path38444" /><path
           d="m 74.224297,128.68893 a 1.9999999,1.9999999 0 0 0 -3.4641,0"
           style="vector-effect:non-scaling-stroke;fill:none;stroke:#000000;stroke-width:0.264583;stroke-dasharray:none;stroke-opacity:1;-inkscape-stroke:hairline"
           id="path38446" /><path
           style="vector-effect:non-scaling-stroke;fill:none;stroke:#000000;stroke-width:0.264583;stroke-dasharray:none;stroke-opacity:1;-inkscape-stroke:hairline"
           d="m 66.724227,135.67795 4.03595,-6.99029"
           id="path38448" /><path
           d="m 66.724297,135.67922 a 1.9999999,1.9999999 0 0 0 1.73204,3.00001"
           style="vector-effect:non-scaling-stroke;fill:none;stroke:#000000;stroke-width:0.264583;stroke-dasharray:none;stroke-opacity:1;-inkscape-stroke:hairline"
           id="path38450" /><path
           style="vector-effect:non-scaling-stroke;fill:none;stroke:#000000;stroke-width:0.264583;stroke-dasharray:none;stroke-opacity:1;-inkscape-stroke:hairline"
           d="m 76.528097,138.67833 h -8.07165"
           id="path38452" /><path
           d="m 76.528147,138.67923 a 1.9999999,1.9999999 0 0 0 1.73205,-3.00001"
           style="vector-effect:non-scaling-stroke;fill:none;stroke:#000000;stroke-width:0.264583;stroke-dasharray:none;stroke-opacity:1;-inkscape-stroke:hairline"
           id="path38454" /><path
           style="vector-effect:non-scaling-stroke;fill:none;stroke:#000000;stroke-width:0.264583;stroke-dasharray:none;stroke-opacity:1;-inkscape-stroke:hairline"
           d="m 74.224367,128.68766 4.03569,6.99029"
           id="path38456" /><path
           d="m 36.624947,158.34232 a 1.5500001,1.5500001 0 1 0 1e-5,0"
           style="vector-effect:non-scaling-stroke;fill:none;stroke:#000000;stroke-width:0.264583;stroke-dasharray:none;stroke-opacity:1;-inkscape-stroke:hairline"
           id="path38458" /><path
           d="m 55.212447,152.39231 a 1.4999999,1.4999999 0 1 0 1e-5,0"
           style="vector-effect:non-scaling-stroke;fill:none;stroke:#000000;stroke-width:0.264583;stroke-dasharray:none;stroke-opacity:1;-inkscape-stroke:hairline"
           id="path38460" /><path
           d="m 73.799947,158.34232 a 1.5500001,1.5500001 0 1 0 1e-5,0"
           style="vector-effect:non-scaling-stroke;fill:none;stroke:#000000;stroke-width:0.264583;stroke-dasharray:none;stroke-opacity:1;-inkscape-stroke:hairline"
           id="path38462" /><path
           d="m 90.760197,128.68893 a 1.9999999,1.9999999 0 0 0 -1.73205,-3.00001"
           style="vector-effect:non-scaling-stroke;fill:none;stroke:#000000;stroke-width:0.264583;stroke-dasharray:none;stroke-opacity:1;-inkscape-stroke:hairline"
           id="path38464" /><path
           style="vector-effect:non-scaling-stroke;fill:none;stroke:#000000;stroke-width:0.264583;stroke-dasharray:none;stroke-opacity:1;-inkscape-stroke:hairline"
           d="m 80.956427,125.68993 h 8.07164"
           id="path38466" /><path
           d="m 80.956347,125.68892 a 1.9999999,1.9999999 0 0 0 -1.73205,3.00001"
           style="vector-effect:non-scaling-stroke;fill:none;stroke:#000000;stroke-width:0.264583;stroke-dasharray:none;stroke-opacity:1;-inkscape-stroke:hairline"
           id="path38468" /><path
           style="vector-effect:non-scaling-stroke;fill:none;stroke:#000000;stroke-width:0.264583;stroke-dasharray:none;stroke-opacity:1;-inkscape-stroke:hairline"
           d="m 83.260147,135.67795 -4.03595,-6.99029"
           id="path38470" /><path
           d="m 83.260207,135.67925 a 1.9999999,1.9999999 0 0 0 3.46409,-3e-5"
           style="vector-effect:non-scaling-stroke;fill:none;stroke:#000000;stroke-width:0.264583;stroke-dasharray:none;stroke-opacity:1;-inkscape-stroke:hairline"
           id="path38472" /><path
           style="vector-effect:non-scaling-stroke;fill:none;stroke:#000000;stroke-width:0.264583;stroke-dasharray:none;stroke-opacity:1;-inkscape-stroke:hairline"
           d="m 90.760027,128.68766 -4.03569,6.99029"
           id="path38474" /><path
           d="m 99.224297,112.68889 a 1.9999999,1.9999999 0 0 0 -3.4641,0"
           style="vector-effect:non-scaling-stroke;fill:none;stroke:#000000;stroke-width:0.264583;stroke-dasharray:none;stroke-opacity:1;-inkscape-stroke:hairline"
           id="path38476" /><path
           style="vector-effect:non-scaling-stroke;fill:none;stroke:#000000;stroke-width:0.264583;stroke-dasharray:none;stroke-opacity:1;-inkscape-stroke:hairline"
           d="m 91.724177,119.6786 4.03595,-6.99029"
           id="path38478" /><path
           d="m 91.724297,119.67926 a 1.9999999,1.9999999 0 0 0 1.73204,3"
           style="vector-effect:non-scaling-stroke;fill:none;stroke:#000000;stroke-width:0.264583;stroke-dasharray:none;stroke-opacity:1;-inkscape-stroke:hairline"
           id="path38480" /><path
           style="vector-effect:non-scaling-stroke;fill:none;stroke:#000000;stroke-width:0.264583;stroke-dasharray:none;stroke-opacity:1;-inkscape-stroke:hairline"
           d="M 101.52805,122.67897 H 93.456397"
           id="path38482" /><path
           d="m 101.52814,122.67926 a 1.9999999,1.9999999 0 0 0 1.73206,-3"
           style="vector-effect:non-scaling-stroke;fill:none;stroke:#000000;stroke-width:0.264583;stroke-dasharray:none;stroke-opacity:1;-inkscape-stroke:hairline"
           id="path38484" /><path
           style="vector-effect:non-scaling-stroke;fill:none;stroke:#000000;stroke-width:0.264583;stroke-dasharray:none;stroke-opacity:1;-inkscape-stroke:hairline"
           d="m 99.224317,112.68831 4.035823,6.99029"
           id="path38486" /><path
           d="m 99.224297,128.68893 a 1.9999999,1.9999999 0 0 0 -3.4641,0"
           style="vector-effect:non-scaling-stroke;fill:none;stroke:#000000;stroke-width:0.264583;stroke-dasharray:none;stroke-opacity:1;-inkscape-stroke:hairline"
           id="path38488" /><path
           style="vector-effect:non-scaling-stroke;fill:none;stroke:#000000;stroke-width:0.264583;stroke-dasharray:none;stroke-opacity:1;-inkscape-stroke:hairline"
           d="m 99.224317,128.68766 4.035823,6.99029"
           id="path38490" /><path
           style="vector-effect:non-scaling-stroke;fill:none;stroke:#000000;stroke-width:0.264583;stroke-dasharray:none;stroke-opacity:1;-inkscape-stroke:hairline"
           d="m 91.724177,135.67795 4.03595,-6.99029"
           id="path38492" /><path
           d="m 101.52814,138.67923 a 1.9999999,1.9999999 0 0 0 1.73206,-3.00001"
           style="vector-effect:non-scaling-stroke;fill:none;stroke:#000000;stroke-width:0.264583;stroke-dasharray:none;stroke-opacity:1;-inkscape-stroke:hairline"
           id="path38494" /><path
           d="m 91.724297,135.67922 a 1.9999999,1.9999999 0 0 0 1.73204,3.00001"
           style="vector-effect:non-scaling-stroke;fill:none;stroke:#000000;stroke-width:0.264583;stroke-dasharray:none;stroke-opacity:1;-inkscape-stroke:hairline"
           id="path38496" /><path
           style="vector-effect:non-scaling-stroke;fill:none;stroke:#000000;stroke-width:0.264583;stroke-dasharray:none;stroke-opacity:1;-inkscape-stroke:hairline"
           d="M 101.52805,138.67833 H 93.456397"
           id="path38498" /><path
           d="m 115.7602,128.68893 a 1.9999999,1.9999999 0 0 0 -1.73205,-3.00001"
           style="vector-effect:non-scaling-stroke;fill:none;stroke:#000000;stroke-width:0.264583;stroke-dasharray:none;stroke-opacity:1;-inkscape-stroke:hairline"
           id="path38500" /><path
           style="vector-effect:non-scaling-stroke;fill:none;stroke:#000000;stroke-width:0.264583;stroke-dasharray:none;stroke-opacity:1;-inkscape-stroke:hairline"
           d="m 115.76014,128.68766 -4.0359,6.99029"
           id="path38502" /><path
           style="vector-effect:non-scaling-stroke;fill:none;stroke:#000000;stroke-width:0.264583;stroke-dasharray:none;stroke-opacity:1;-inkscape-stroke:hairline"
           d="m 105.95635,125.68993 h 8.0718"
           id="path38504" /><path
           d="m 108.2602,135.67925 a 1.9999999,1.9999999 0 0 0 3.4641,-3e-5"
           style="vector-effect:non-scaling-stroke;fill:none;stroke:#000000;stroke-width:0.264583;stroke-dasharray:none;stroke-opacity:1;-inkscape-stroke:hairline"
           id="path38506" /><path
           d="m 105.95635,125.68892 a 1.9999999,1.9999999 0 0 0 -1.73205,3.00001"
           style="vector-effect:non-scaling-stroke;fill:none;stroke:#000000;stroke-width:0.264583;stroke-dasharray:none;stroke-opacity:1;-inkscape-stroke:hairline"
           id="path38508" /><path
           style="vector-effect:non-scaling-stroke;fill:none;stroke:#000000;stroke-width:0.264583;stroke-dasharray:none;stroke-opacity:1;-inkscape-stroke:hairline"
           d="m 108.26016,135.67795 -4.0359,-6.99029"
           id="path38510" /><path
           d="m 152.04995,70.34233 a 1.5500001,1.5500001 0 1 0 1e-5,0"
           style="vector-effect:non-scaling-stroke;fill:none;stroke:#000000;stroke-width:0.264583;stroke-dasharray:none;stroke-opacity:1;-inkscape-stroke:hairline"
           id="path38512" /><path
           d="m 170.63745,76.39233 a 1.4999999,1.4999999 0 1 0 1e-5,0"
           style="vector-effect:non-scaling-stroke;fill:none;stroke:#000000;stroke-width:0.264583;stroke-dasharray:none;stroke-opacity:1;-inkscape-stroke:hairline"
           id="path38514" /><path
           d="m 172.88744,89.89233 a 3.250004,3.250004 0 1 0 1e-5,-6.5"
           style="vector-effect:non-scaling-stroke;fill:none;stroke:#000000;stroke-width:0.264583;stroke-dasharray:none;stroke-opacity:1;-inkscape-stroke:hairline"
           id="path38516" /><path
           style="vector-effect:non-scaling-stroke;fill:none;stroke:#000000;stroke-width:0.264583;stroke-dasharray:none;stroke-opacity:1;-inkscape-stroke:hairline"
           d="m 168.38746,89.89181 h 4.50003"
           id="path38518" /><path
           style="vector-effect:non-scaling-stroke;fill:none;stroke:#000000;stroke-width:0.264583;stroke-dasharray:none;stroke-opacity:1;-inkscape-stroke:hairline"
           d="m 172.88749,83.39232 h -4.50003"
           id="path38520" /><path
           d="m 168.38745,83.39233 a 3.250004,3.250004 0 0 0 -1e-5,6.5"
           style="vector-effect:non-scaling-stroke;fill:none;stroke:#000000;stroke-width:0.264583;stroke-dasharray:none;stroke-opacity:1;-inkscape-stroke:hairline"
           id="path38522" /><path
           d="m 189.22495,70.34233 a 1.5500001,1.5500001 0 1 0 1e-5,0"
           style="vector-effect:non-scaling-stroke;fill:none;stroke:#000000;stroke-width:0.264583;stroke-dasharray:none;stroke-opacity:1;-inkscape-stroke:hairline"
           id="path38524" /><path
           d="m 152.04995,158.34232 a 1.5500001,1.5500001 0 1 0 1e-5,0"
           style="vector-effect:non-scaling-stroke;fill:none;stroke:#000000;stroke-width:0.264583;stroke-dasharray:none;stroke-opacity:1;-inkscape-stroke:hairline"
           id="path38526" /><path
           d="m 170.63745,152.39231 a 1.4999999,1.4999999 0 1 0 1e-5,0"
           style="vector-effect:non-scaling-stroke;fill:none;stroke:#000000;stroke-width:0.264583;stroke-dasharray:none;stroke-opacity:1;-inkscape-stroke:hairline"
           id="path38528" /><path
           d="m 189.22495,158.34232 a 1.5500001,1.5500001 0 1 0 1e-5,0"
           style="vector-effect:non-scaling-stroke;fill:none;stroke:#000000;stroke-width:0.264583;stroke-dasharray:none;stroke-opacity:1;-inkscape-stroke:hairline"
           id="path38530" /></g><g
         id="g48646"
         transform="matrix(-0.26458333,0,0,-0.26458333,119.09766,498.39882)"
         style="vector-effect:non-scaling-stroke;-inkscape-stroke:hairline;stroke-width:1.00000001;stroke-dasharray:none"><g
           inkscape:label="0"
           id="g48553"
           style="vector-effect:non-scaling-stroke;-inkscape-stroke:hairline;stroke-width:1.00000001;stroke-dasharray:none" /><g
           inkscape:label="none"
           id="g48555"
           style="vector-effect:non-scaling-stroke;-inkscape-stroke:hairline;stroke-width:1.00000001;stroke-dasharray:none" /><g
           inkscape:label="Shape2DView002"
           id="g48605"
           style="vector-effect:non-scaling-stroke;-inkscape-stroke:hairline;stroke-width:1.00000001;stroke-dasharray:none"><path
             style="fill:none;stroke:#000000;vector-effect:non-scaling-stroke;-inkscape-stroke:hairline;stroke-width:1.00000001;stroke-dasharray:none"
             d="M 396.85,944.882 H -270.236"
             id="path48557" /><path
             style="fill:none;stroke:#000000;vector-effect:non-scaling-stroke;-inkscape-stroke:hairline;stroke-width:1.00000001;stroke-dasharray:none"
             d="M -270.236,944.882 V 1300.16"
             id="path48559" /><path
             style="fill:none;stroke:#000000;vector-effect:non-scaling-stroke;-inkscape-stroke:hairline;stroke-width:1.00000001;stroke-dasharray:none"
             d="M 396.85,1300.16 V 944.882"
             id="path48563" /><path
             style="fill:none;stroke:#000000;vector-effect:non-scaling-stroke;-inkscape-stroke:hairline;stroke-width:1.00000001;stroke-dasharray:none"
             d="m 141.732,1073.39 v 151.18"
             id="path48565" /><path
             d="m 113.38571,1252.9134 a 28.346457,28.346457 -89.99992 0 0 28.34657,-28.3465"
             style="fill:none;stroke:#000000;vector-effect:non-scaling-stroke;-inkscape-stroke:hairline;stroke-width:1.00000001;stroke-dasharray:none"
             id="path48567" /><path
             style="fill:none;stroke:#000000;vector-effect:non-scaling-stroke;-inkscape-stroke:hairline;stroke-width:1.00000001;stroke-dasharray:none"
             d="M 113.386,1252.91 H -113.386"
             id="path48569" /><path
             d="m -141.73228,1224.567 a 28.346457,28.346457 -89.99992 0 0 28.34634,28.3464"
             style="fill:none;stroke:#000000;vector-effect:non-scaling-stroke;-inkscape-stroke:hairline;stroke-width:1.00000001;stroke-dasharray:none"
             id="path48571" /><path
             style="fill:none;stroke:#000000;vector-effect:non-scaling-stroke;-inkscape-stroke:hairline;stroke-width:1.00000001;stroke-dasharray:none"
             d="M -141.732,1224.57 V 1073.39"
             id="path48573" /><path
             d="m -113.38583,1045.0394 a 28.346457,28.346457 -89.99992 0 0 -28.34645,28.3465"
             style="fill:none;stroke:#000000;vector-effect:non-scaling-stroke;-inkscape-stroke:hairline;stroke-width:1.00000001;stroke-dasharray:none"
             id="path48575" /><path
             style="fill:none;stroke:#000000;vector-effect:non-scaling-stroke;-inkscape-stroke:hairline;stroke-width:1.00000001;stroke-dasharray:none"
             d="M -113.386,1045.04 H 113.386"
             id="path48577" /><path
             d="m 141.73228,1073.3858 a 28.346457,28.346457 -89.99992 0 0 -28.34645,-28.3464"
             style="fill:none;stroke:#000000;vector-effect:non-scaling-stroke;-inkscape-stroke:hairline;stroke-width:1.00000001;stroke-dasharray:none"
             id="path48579" /><path
             d="m -84.566921,1282.9606 a 5.858268,5.858268 -89.99992 1 0 3.1e-5,0"
             style="fill:none;stroke:#000000;vector-effect:non-scaling-stroke;-inkscape-stroke:hairline;stroke-width:1.00000001;stroke-dasharray:none"
             id="path48581" /><path
             d="m -84.566921,950.36221 a 5.858268,5.858268 -89.99992 1 0 3.1e-5,0"
             style="fill:none;stroke:#000000;vector-effect:non-scaling-stroke;-inkscape-stroke:hairline;stroke-width:1.00000001;stroke-dasharray:none"
             id="path48583" /><path
             d="m 351.68505,1282.9606 a 5.858268,5.858268 -89.99992 1 0 3e-5,0"
             style="fill:none;stroke:#000000;vector-effect:non-scaling-stroke;-inkscape-stroke:hairline;stroke-width:1.00000001;stroke-dasharray:none"
             id="path48585" /><path
             d="m 281.43308,1260.2835 a 5.858268,5.858268 -89.99992 1 0 3e-5,0"
             style="fill:none;stroke:#000000;vector-effect:non-scaling-stroke;-inkscape-stroke:hairline;stroke-width:1.00000001;stroke-dasharray:none"
             id="path48587" /><path
             d="m 211.18111,1282.9606 a 5.858268,5.858268 -89.99992 1 0 3e-5,0"
             style="fill:none;stroke:#000000;vector-effect:non-scaling-stroke;-inkscape-stroke:hairline;stroke-width:1.00000001;stroke-dasharray:none"
             id="path48589" /><path
             d="m -225.07086,1282.9606 a 5.858268,5.858268 -89.99992 1 0 3e-5,0"
             style="fill:none;stroke:#000000;vector-effect:non-scaling-stroke;-inkscape-stroke:hairline;stroke-width:1.00000001;stroke-dasharray:none"
             id="path48591" /><path
             d="m -154.81889,1260.2835 a 5.858268,5.858268 -89.99992 1 0 3e-5,0"
             style="fill:none;stroke:#000000;vector-effect:non-scaling-stroke;-inkscape-stroke:hairline;stroke-width:1.00000001;stroke-dasharray:none"
             id="path48593" /><path
             d="m -154.81889,973.03937 a 5.858268,5.858268 -89.99992 1 0 3e-5,0"
             style="fill:none;stroke:#000000;vector-effect:non-scaling-stroke;-inkscape-stroke:hairline;stroke-width:1.00000001;stroke-dasharray:none"
             id="path48595" /><path
             d="m -225.07086,950.36221 a 5.858268,5.858268 -89.99992 1 0 3e-5,0"
             style="fill:none;stroke:#000000;vector-effect:non-scaling-stroke;-inkscape-stroke:hairline;stroke-width:1.00000001;stroke-dasharray:none"
             id="path48597" /><path
             d="m 281.43308,973.03937 a 5.858268,5.858268 -89.99992 1 0 3e-5,0"
             style="fill:none;stroke:#000000;vector-effect:non-scaling-stroke;-inkscape-stroke:hairline;stroke-width:1.00000001;stroke-dasharray:none"
             id="path48599" /><path
             d="m 211.18111,950.36221 a 5.858268,5.858268 -89.99992 1 0 3e-5,0"
             style="fill:none;stroke:#000000;vector-effect:non-scaling-stroke;-inkscape-stroke:hairline;stroke-width:1.00000001;stroke-dasharray:none"
             id="path48601" /><path
             d="m 351.68505,950.36221 a 5.858268,5.858268 -89.99992 1 0 3e-5,0"
             style="fill:none;stroke:#000000;vector-effect:non-scaling-stroke;-inkscape-stroke:hairline;stroke-width:1.00000001;stroke-dasharray:none"
             id="path48603" /></g></g><g
         id="g53926"
         style="fill:#ff0000;fill-opacity:1;stroke:none"
         transform="matrix(0.16053375,0,0,0.16053375,190.87176,167.17069)"><path
           d="m -97.68289,94.726953 h 8.26823 c 1.7496,0 2.80502,0.694179 3.16626,2.082536 0.0987,0.400634 0.14607,0.812179 0.14103,1.224756 v 13.229165 h -3.30729 V 98.034245 h -9.92188 v 13.229165 h -3.30729 V 98.034245 h -9.92188 V 111.26341 H -115.873 V 98.034245 c 0,-1.749601 0.69418,-2.805024 2.08254,-3.166269 0.40063,-0.09867 0.81218,-0.14606 1.22475,-0.141023 h 8.26823 c 2.17047,0 3.2729,0.551215 3.3073,1.653646 0.0125,-0.540753 0.3413,-1.023788 0.83978,-1.233752 0.42863,-0.217664 1.02112,-0.350661 1.77747,-0.398992 0.22973,-0.01431 0.45986,-0.02128 0.69004,-0.0209 z m -44.64844,16.536457 V 98.034245 c 0,-1.749601 0.69418,-2.805024 2.08253,-3.166269 0.40064,-0.09867 0.81218,-0.146061 1.22476,-0.141023 h 16.53646 c 1.7496,0 2.80502,0.694179 3.16627,2.082536 0.0987,0.400635 0.14606,0.81218 0.14102,1.224756 v 13.229165 h -3.30729 v -6.61459 h -16.53646 v 6.61459 z m -52.91667,0 V 94.726953 h 19.84375 c 1.7496,0 2.80502,0.694179 3.16627,2.082536 0.0987,0.400635 0.14606,0.81218 0.14102,1.224756 v 1.653646 c 0.002,0.369549 -0.0201,0.738849 -0.0669,1.105429 -0.17709,1.31656 -0.70599,2.05052 -1.5867,2.20186 0.56009,0.0961 1.03251,0.47111 1.25307,0.99483 0.23054,0.47449 0.3616,1.11381 0.39317,1.91797 0.005,0.13144 0.007,0.26296 0.007,0.39449 v 1.65365 c 0,1.7496 -0.69418,2.80502 -2.08253,3.16626 -0.40064,0.0987 -0.81218,0.14607 -1.22476,0.14103 z m 49.60938,-3.30729 -3.30729,3.30729 h -19.84375 v -3.30729 z m 0,-6.61459 -3.30729,3.30729 h -19.84375 v -3.30729 z m 0,-6.614577 -3.30729,3.307292 h -19.84375 v -3.307292 z m -29.76563,9.921867 h -16.53646 v 3.3073 h 16.53646 z m -16.53646,-6.614575 v 3.307285 h 16.53646 v -3.307285 z m 52.91667,0 v 3.307285 h 16.53646 v -3.307285 z"
           vector-effect="non-scaling-stroke"
           id="path53469"
           style="font-size:12px;fill:#ff0000;fill-opacity:1;fill-rule:evenodd;stroke:none;stroke-width:0.0661458mm;stroke-linecap:round"
           sodipodi:nodetypes="csccccccccccccsccscccsccsccsccccccccccsccccccccsccccccccccccccccccccccccccccccccc" /><path
           d="m -122.48759,69.660165 -3.30729,3.307292 h -16.53646 v 3.307292 h 16.53646 c 1.7496,0 2.80502,0.694179 3.16626,2.082535 0.0987,0.400634 0.14607,0.81218 0.14103,1.224756 v 3.307292 c 0,1.749602 -0.69418,2.805025 -2.08254,3.166269 -0.40063,0.09867 -0.81218,0.14606 -1.22475,0.141022 h -19.84375 l 3.30729,-3.307291 h 16.53646 V 79.58204 h -16.53646 c -1.7496,0 -2.80502,-0.694178 -3.16627,-2.082535 -0.0987,-0.400634 -0.14606,-0.81218 -0.14102,-1.224756 v -3.307292 c 0,-1.749601 0.69418,-2.805024 2.08253,-3.166269 0.40064,-0.09867 0.81218,-0.146061 1.22476,-0.141023 z m 48.136701,16.536458 -6.76963,-6.614583 h -8.29416 v 6.614583 h -3.30729 V 69.660165 h 19.84375 c 1.7496,0 2.80502,0.694179 3.16627,2.082536 0.0987,0.400635 0.14606,0.81218 0.14102,1.224756 v 3.307292 c 0.006,0.434531 -0.0463,0.867902 -0.15557,1.28852 -0.37095,1.345848 -1.40423,2.018771 -3.09986,2.018771 h -3.53986 l 6.76963,6.614583 z m -97.746071,0 V 72.967457 c 0,-1.749601 0.69418,-2.805024 2.08254,-3.166269 0.40063,-0.09867 0.81218,-0.14606 1.22475,-0.141023 h 16.53645 c 1.7496,0 2.80503,0.694179 3.16627,2.082536 0.0987,0.400635 0.14606,0.81218 0.14102,1.224756 v 13.229166 h -3.30729 V 79.58204 h -16.53645 v 6.614583 z m -3.30729,-3.307291 -3.30729,3.307291 H -195.248 V 69.660165 h 3.30729 v 13.229167 z m 79.374991,0 -3.30729,3.307291 H -119.1803 v -3.307291 z m 0,-6.614583 -3.30729,3.307291 H -119.1803 v -3.307291 z m 0,-6.614584 -3.30729,3.307292 H -119.1803 v -3.307292 z m -72.760411,3.307292 v 3.307292 h 16.53645 v -3.307292 z m 79.374991,0 v 3.307292 h 16.53646 v -3.307292 z"
           vector-effect="non-scaling-stroke"
           id="path53919"
           style="font-size:12px;fill:#ff0000;fill-opacity:1;fill-rule:evenodd;stroke:none;stroke-width:0.0661458mm;stroke-linecap:round"
           sodipodi:nodetypes="ccccsccsccccccsccscccccccccsccccsccccsccscccccccccccccccccccccccccccccccccccccccc" /><path
           d="m -26.575747,54.818135 v 9.921874 h -19.84375 c -1.7496,0 -2.805023,-0.694178 -3.16627,-2.082535 -0.09867,-0.400635 -0.146059,-0.81218 -0.14102,-1.224756 v -9.921875 c 0,-1.749601 0.694177,-2.805024 2.08253,-3.166269 0.400636,-0.09867 0.812183,-0.146061 1.22476,-0.141023 h 19.84375 l -3.30729,3.307292 h -16.53646 v 9.921875 h 16.53646 v -3.307292 h -9.92188 l 3.30729,-3.307291 z m -157.096373,9.921874 h -8.26822 c -1.74961,0 -2.80503,-0.694178 -3.16627,-2.082535 -0.0987,-0.400634 -0.14607,-0.812179 -0.14103,-1.224756 V 48.203551 h 3.3073 v 13.229167 h 9.92187 V 48.203551 h 3.30729 v 13.229167 h 9.92188 V 48.203551 h 3.30729 v 13.229167 c 0,1.749601 -0.69418,2.805024 -2.08254,3.166269 -0.40063,0.09867 -0.81218,0.14606 -1.22475,0.141022 h -8.26823 c -2.17029,0 -3.27272,-0.551215 -3.30729,-1.653645 -0.0125,0.540755 -0.3413,1.023791 -0.83979,1.233752 -0.42845,0.217487 -1.02085,0.350484 -1.77721,0.398991 -0.22982,0.01431 -0.46004,0.02128 -0.6903,0.0209 z m 77.72137,0 h -3.30729 V 48.203551 l 19.843754,10.774627 V 48.203551 h 3.30729 V 64.740009 L -105.95075,54.172022 Z m 33.072924,0 h -3.3073 V 48.203551 l 19.843749,10.774627 V 48.203551 h 3.3073 V 64.740009 L -72.877826,54.172022 Z m -44.467474,0 -6.76963,-6.614583 h -8.29415 v 6.614583 h -3.3073 V 48.203551 h 19.84375 c 1.74961,0 2.80503,0.694179 3.16627,2.082536 0.0987,0.400634 0.14606,0.81218 0.14103,1.224756 v 3.307292 c 0.006,0.434531 -0.0463,0.867902 -0.15558,1.28852 -0.37095,1.345847 -1.40423,2.018771 -3.09986,2.018771 h -3.53986 l 6.76963,6.614583 z m -44.82942,0 V 51.510843 c 0,-1.749601 0.69418,-2.805024 2.08254,-3.166269 0.40063,-0.09867 0.81218,-0.14606 1.22475,-0.141023 h 16.53647 c 1.7496,0 2.80502,0.694179 3.16627,2.082536 0.0987,0.400635 0.14606,0.81218 0.14102,1.224756 v 13.229166 h -3.30729 v -6.614583 h -16.53647 v 6.614583 z m 3.30729,-13.229166 v 3.307292 h 16.53647 v -3.307292 z m 26.45835,0 v 3.307292 h 16.53645 v -3.307292 z m 49.609374,-3.307292 h 3.30729 v 16.536458 h -3.30729 z m 59.531249,0 h 3.307291 v 9.921875 h -3.307291 z m 0,13.229167 h 3.307291 v 3.307291 h -3.307291 z"
           vector-effect="non-scaling-stroke"
           id="path53921"
           style="font-size:12px;fill:#ff0000;fill-opacity:1;fill-rule:evenodd;stroke:none;stroke-width:0.0661458mm;stroke-linecap:round"
           sodipodi:nodetypes="ccsccsccccccccccccsccccccccccccsccscccscccccccccccccccccccccccccsccccsccccsccsccccccccccccccccccccccccccccccccc" /></g></g></g></svg>
