<?xml version="1.0" encoding="UTF-8" standalone="no"?>
<svg
   viewBox="0 0 793.7007874015749 1122.5196850393702"
   width="793.7007874015749"
   height="1122.5196850393702"
   version="1.1"
   id="svg58143"
   sodipodi:docname="top-wall.svg"
   xml:space="preserve"
   inkscape:version="1.2.2 (732a01da63, 2022-12-09, custom)"
   xmlns:inkscape="http://www.inkscape.org/namespaces/inkscape"
   xmlns:sodipodi="http://sodipodi.sourceforge.net/DTD/sodipodi-0.dtd"
   xmlns="http://www.w3.org/2000/svg"
   xmlns:svg="http://www.w3.org/2000/svg"><sodipodi:namedview
     id="namedview58145"
     pagecolor="#ffffff"
     bordercolor="#000000"
     borderopacity="0.25"
     inkscape:showpageshadow="2"
     inkscape:pageopacity="0.0"
     inkscape:pagecheckerboard="0"
     inkscape:deskcolor="#d1d1d1"
     showgrid="false"
     inkscape:zoom="0.46644366"
     inkscape:cx="206.88458"
     inkscape:cy="442.71156"
     inkscape:window-width="1920"
     inkscape:window-height="1016"
     inkscape:window-x="0"
     inkscape:window-y="0"
     inkscape:window-maximized="1"
     inkscape:current-layer="g58141" /><desc
     id="desc58097">top-wall.dxf - scale = 1.000000, origin = (0.000000, 0.000000), method = manual</desc><defs
     id="defs58111"><marker
       id="DistanceX"
       orient="auto"
       refX="0.0"
       refY="0.0"
       style="overflow:visible"><path
         d="M 3,-3 L -3,3 M 0,-5 L  0,5"
         style="stroke:#000000; stroke-width:0.5"
         id="path58099" /></marker><pattern
       id="Hatch"
       patternUnits="userSpaceOnUse"
       width="8"
       height="8"
       x="0"
       y="0"><path
         d="M8 4 l-4,4"
         stroke="#000000"
         stroke-width="0.25"
         linecap="square"
         id="path58102" /><path
         d="M6 2 l-4,4"
         stroke="#000000"
         stroke-width="0.25"
         linecap="square"
         id="path58104" /><path
         d="M4 0 l-4,4"
         stroke="#000000"
         stroke-width="0.25"
         linecap="square"
         id="path58106" /></pattern><symbol
       id="*MODEL_SPACE" /><symbol
       id="*PAPER_SPACE" /></defs><g
     inkscape:groupmode="layer"
     inkscape:label="0"
     id="g58113" /><g
     inkscape:groupmode="layer"
     inkscape:label="none"
     id="g58115" /><g
     inkscape:groupmode="layer"
     inkscape:label="Shape2DView003"
     id="g58141"><g
       id="g59806"
       transform="rotate(90,344.69712,763.94432)"
       style="vector-effect:non-scaling-stroke;-inkscape-stroke:hairline;stroke-width:1;stroke-dasharray:none" /><g
       id="g70475"><path
         style="vector-effect:non-scaling-stroke;-inkscape-stroke:hairline;stroke-width:1;stroke-dasharray:none;fill:none;stroke:#000000"
         d="M 123.90549,1056.7408 V 389.64985"
         id="path58117"
         transform="rotate(90,344.69712,763.94432)" /><path
         style="vector-effect:non-scaling-stroke;-inkscape-stroke:hairline;stroke-width:1;stroke-dasharray:none;fill:none;stroke:#000000"
         d="m 123.90549,389.64985 h 430.866"
         id="path58119"
         transform="rotate(90,344.69712,763.94432)" /><path
         style="vector-effect:non-scaling-stroke;-inkscape-stroke:hairline;stroke-width:1;stroke-dasharray:none;fill:none;stroke:#000000"
         d="m 554.77149,1056.7408 h -430.866"
         id="path58121"
         transform="rotate(90,344.69712,763.94432)" /><path
         style="vector-effect:non-scaling-stroke;-inkscape-stroke:hairline;stroke-width:1;stroke-dasharray:none;fill:none;stroke:#000000"
         d="M 554.77148,389.64985 V 1056.7408"
         id="path58123"
         transform="rotate(90,344.69712,763.94432)" /><path
         style="vector-effect:non-scaling-stroke;-inkscape-stroke:hairline;stroke-width:1;stroke-dasharray:none;fill:none;stroke:#000000"
         d="m 350.86649,912.17085 h -23.0556"
         id="path58125"
         transform="rotate(90,344.69712,763.94432)" /><path
         style="vector-effect:non-scaling-stroke;-inkscape-stroke:hairline;stroke-width:1;stroke-dasharray:none;fill:none;stroke:#000000"
         d="m 327.81089,912.17085 v 75.59"
         id="path58127"
         transform="rotate(90,344.69712,763.94432)" /><path
         style="vector-effect:non-scaling-stroke;-inkscape-stroke:hairline;stroke-width:1;stroke-dasharray:none;fill:none;stroke:#000000"
         d="m 327.81089,987.76085 h 23.0556"
         id="path58129"
         transform="rotate(90,344.69712,763.94432)" /><path
         style="vector-effect:non-scaling-stroke;-inkscape-stroke:hairline;stroke-width:1;stroke-dasharray:none;fill:none;stroke:#000000"
         d="m 350.86649,987.76085 v -75.59"
         id="path58131"
         transform="rotate(90,344.69712,763.94432)" /><path
         style="vector-effect:non-scaling-stroke;-inkscape-stroke:hairline;stroke-width:1;stroke-dasharray:none;fill:none;stroke:#000000"
         d="m 350.86649,458.62685 v 75.59"
         id="path58133"
         transform="rotate(90,344.69712,763.94432)" /><path
         style="vector-effect:non-scaling-stroke;-inkscape-stroke:hairline;stroke-width:1;stroke-dasharray:none;fill:none;stroke:#000000"
         d="m 327.81089,458.62685 h 23.0556"
         id="path58135"
         transform="rotate(90,344.69712,763.94432)" /><path
         style="vector-effect:non-scaling-stroke;-inkscape-stroke:hairline;stroke-width:1;stroke-dasharray:none;fill:none;stroke:#000000"
         d="m 327.81089,534.21685 v -75.59"
         id="path58137"
         transform="rotate(90,344.69712,763.94432)" /><path
         style="vector-effect:non-scaling-stroke;-inkscape-stroke:hairline;stroke-width:1;stroke-dasharray:none;fill:none;stroke:#000000"
         d="m 350.86649,534.21685 h -23.0556"
         id="path58139"
         transform="rotate(90,344.69712,763.94432)" /><path
         d="m 291.72921,915.51069 a 7.5590548,7.5590548 0 0 0 6.54633,11.33862"
         style="fill:none;stroke:#f40000;stroke-width:1.88976378;stroke-dasharray:none;stroke-opacity:1"
         id="path38362" /><path
         style="fill:none;stroke:#f40000;stroke-width:1.88976378;stroke-dasharray:none;stroke-opacity:1"
         d="M 328.78264,926.8529 H 298.27565"
         id="path38364" /><path
         d="m 328.78313,926.84931 a 7.5590548,7.5590548 0 0 0 6.54633,-11.33862"
         style="fill:none;stroke:#f40000;stroke-width:1.88976378;stroke-dasharray:none;stroke-opacity:1"
         id="path38366" /><path
         style="fill:none;stroke:#f40000;stroke-width:1.88976378;stroke-dasharray:none;stroke-opacity:1"
         d="m 320.07563,889.09289 15.25402,26.41999"
         id="path38368" /><path
         d="m 320.07563,889.09032 a 7.5590548,7.5590548 0 0 0 -13.09262,7e-5"
         style="fill:none;stroke:#f40000;stroke-width:1.88976378;stroke-dasharray:none;stroke-opacity:1"
         id="path38370" /><path
         style="fill:none;stroke:#f40000;stroke-width:1.88976378;stroke-dasharray:none;stroke-opacity:1"
         d="m 291.72966,915.51288 15.25399,-26.41999"
         id="path38372" /><path
         d="m 197.24102,915.51069 a 7.5590548,7.5590548 0 0 0 6.54633,11.33862"
         style="fill:none;stroke:#f40000;stroke-width:1.88976378;stroke-dasharray:none;stroke-opacity:1"
         id="path38374" /><path
         style="fill:none;stroke:#f40000;stroke-width:1.88976378;stroke-dasharray:none;stroke-opacity:1"
         d="M 234.29464,926.8529 H 203.78765"
         id="path38376" /><path
         d="m 234.29494,926.84931 a 7.5590548,7.5590548 0 0 0 6.54633,-11.33862"
         style="fill:none;stroke:#f40000;stroke-width:1.88976378;stroke-dasharray:none;stroke-opacity:1"
         id="path38378" /><path
         style="fill:none;stroke:#f40000;stroke-width:1.88976378;stroke-dasharray:none;stroke-opacity:1"
         d="m 225.58767,889.09289 15.25398,26.41999"
         id="path38380" /><path
         d="m 225.58744,889.09032 a 7.5590548,7.5590548 0 0 0 -13.09262,7e-5"
         style="fill:none;stroke:#f40000;stroke-width:1.88976378;stroke-dasharray:none;stroke-opacity:1"
         id="path38382" /><path
         style="fill:none;stroke:#f40000;stroke-width:1.88976378;stroke-dasharray:none;stroke-opacity:1"
         d="m 197.24166,915.51288 15.253,-26.41999"
         id="path38384" /><path
         d="m 102.75282,915.51069 a 7.5590548,7.5590548 0 0 0 6.54633,11.33862"
         style="fill:none;stroke:#f40000;stroke-width:1.88976378;stroke-dasharray:none;stroke-opacity:1"
         id="path38386" /><path
         style="fill:none;stroke:#f40000;stroke-width:1.88976378;stroke-dasharray:none;stroke-opacity:1"
         d="M 139.80674,926.8529 H 109.29915"
         id="path38388" /><path
         d="m 139.80674,926.84931 a 7.5590548,7.5590548 0 0 0 6.54633,-11.33862"
         style="fill:none;stroke:#f40000;stroke-width:1.88976378;stroke-dasharray:none;stroke-opacity:1"
         id="path38390" /><path
         style="fill:none;stroke:#f40000;stroke-width:1.88976378;stroke-dasharray:none;stroke-opacity:1"
         d="m 131.09943,889.09289 15.25379,26.41999"
         id="path38392" /><path
         d="m 131.09928,889.09032 a 7.5590548,7.5590548 0 0 0 -13.09267,7e-5"
         style="fill:none;stroke:#f40000;stroke-width:1.88976378;stroke-dasharray:none;stroke-opacity:1"
         id="path38394" /><path
         style="fill:none;stroke:#f40000;stroke-width:1.88976378;stroke-dasharray:none;stroke-opacity:1"
         d="m 102.75305,915.51288 15.25379,-26.41999"
         id="path38396" /><path
         d="m 354.2271,915.51069 a 7.5590548,7.5590548 0 0 0 13.09266,0"
         style="fill:none;stroke:#f40000;stroke-width:1.88976378;stroke-dasharray:none;stroke-opacity:1"
         id="path38398" /><path
         style="fill:none;stroke:#f40000;stroke-width:1.88976378;stroke-dasharray:none;stroke-opacity:1"
         d="m 382.57363,889.09289 -15.25398,26.41999"
         id="path38400" /><path
         d="m 382.57356,889.09039 a 7.5590548,7.5590548 0 0 0 -6.54633,-11.33858"
         style="fill:none;stroke:#f40000;stroke-width:1.88976378;stroke-dasharray:none;stroke-opacity:1"
         id="path38402" /><path
         style="fill:none;stroke:#f40000;stroke-width:1.88976378;stroke-dasharray:none;stroke-opacity:1"
         d="m 345.51964,877.75291 h 30.508"
         id="path38404" /><path
         d="m 345.51964,877.75181 a 7.5590548,7.5590548 0 0 0 -6.54633,11.33858"
         style="fill:none;stroke:#f40000;stroke-width:1.88976378;stroke-dasharray:none;stroke-opacity:1"
         id="path38406" /><path
         style="fill:none;stroke:#f40000;stroke-width:1.88976378;stroke-dasharray:none;stroke-opacity:1"
         d="M 354.22763,915.51288 338.97365,889.09289"
         id="path38408" /><path
         d="m 354.2271,855.0381 a 7.5590548,7.5590548 0 0 0 13.09266,0"
         style="fill:none;stroke:#f40000;stroke-width:1.88976378;stroke-dasharray:none;stroke-opacity:1"
         id="path38410" /><path
         style="fill:none;stroke:#f40000;stroke-width:1.88976378;stroke-dasharray:none;stroke-opacity:1"
         d="m 382.57363,828.6229 -15.25398,26.42"
         id="path38412" /><path
         d="m 382.57356,828.6181 a 7.5590548,7.5590548 0 0 0 -6.54633,-11.33862"
         style="fill:none;stroke:#f40000;stroke-width:1.88976378;stroke-dasharray:none;stroke-opacity:1"
         id="path38414" /><path
         style="fill:none;stroke:#f40000;stroke-width:1.88976378;stroke-dasharray:none;stroke-opacity:1"
         d="m 345.51964,817.28288 h 30.508"
         id="path38416" /><path
         d="m 345.51964,817.27948 a 7.5590548,7.5590548 0 0 0 -6.54633,11.33862"
         style="fill:none;stroke:#f40000;stroke-width:1.88976378;stroke-dasharray:none;stroke-opacity:1"
         id="path38418" /><path
         style="fill:none;stroke:#f40000;stroke-width:1.88976378;stroke-dasharray:none;stroke-opacity:1"
         d="m 354.22763,855.0429 -15.25398,-26.42"
         id="path38420" /><path
         d="m 259.73891,915.51069 a 7.5590548,7.5590548 0 0 0 13.09266,0"
         style="fill:none;stroke:#f40000;stroke-width:1.88976378;stroke-dasharray:none;stroke-opacity:1"
         id="path38422" /><path
         style="fill:none;stroke:#f40000;stroke-width:1.88976378;stroke-dasharray:none;stroke-opacity:1"
         d="m 288.08563,889.09289 -15.25398,26.41999"
         id="path38424" /><path
         d="m 288.08537,889.09039 a 7.5590548,7.5590548 0 0 0 -6.5463,-11.33858"
         style="fill:none;stroke:#f40000;stroke-width:1.88976378;stroke-dasharray:none;stroke-opacity:1"
         id="path38426" /><path
         style="fill:none;stroke:#f40000;stroke-width:1.88976378;stroke-dasharray:none;stroke-opacity:1"
         d="m 251.03164,877.75291 h 30.50702"
         id="path38428" /><path
         d="m 251.03145,877.75181 a 7.5590548,7.5590548 0 0 0 -6.54633,11.33858"
         style="fill:none;stroke:#f40000;stroke-width:1.88976378;stroke-dasharray:none;stroke-opacity:1"
         id="path38430" /><path
         style="fill:none;stroke:#f40000;stroke-width:1.88976378;stroke-dasharray:none;stroke-opacity:1"
         d="M 259.73865,915.51288 244.48564,889.09289"
         id="path38432" /><path
         d="m 291.72921,855.0381 a 7.5590548,7.5590548 0 0 0 6.54633,11.33862"
         style="fill:none;stroke:#f40000;stroke-width:1.88976378;stroke-dasharray:none;stroke-opacity:1"
         id="path38434" /><path
         style="fill:none;stroke:#f40000;stroke-width:1.88976378;stroke-dasharray:none;stroke-opacity:1"
         d="M 328.78264,866.3729 H 298.27565"
         id="path38436" /><path
         d="m 328.78313,866.37672 a 7.5590548,7.5590548 0 0 0 6.54633,-11.33862"
         style="fill:none;stroke:#f40000;stroke-width:1.88976378;stroke-dasharray:none;stroke-opacity:1"
         id="path38438" /><path
         style="fill:none;stroke:#f40000;stroke-width:1.88976378;stroke-dasharray:none;stroke-opacity:1"
         d="m 320.07563,828.6229 15.25402,26.42"
         id="path38440" /><path
         d="m 320.07563,828.61799 a 7.5590548,7.5590548 0 0 0 -13.09262,1.1e-4"
         style="fill:none;stroke:#f40000;stroke-width:1.88976378;stroke-dasharray:none;stroke-opacity:1"
         id="path38442" /><path
         style="fill:none;stroke:#f40000;stroke-width:1.88976378;stroke-dasharray:none;stroke-opacity:1"
         d="m 291.72966,855.0429 15.25399,-26.42"
         id="path38444" /><path
         d="m 259.73891,855.0381 a 7.5590548,7.5590548 0 0 0 13.09266,0"
         style="fill:none;stroke:#f40000;stroke-width:1.88976378;stroke-dasharray:none;stroke-opacity:1"
         id="path38446" /><path
         style="fill:none;stroke:#f40000;stroke-width:1.88976378;stroke-dasharray:none;stroke-opacity:1"
         d="m 288.08563,828.6229 -15.25398,26.42"
         id="path38448" /><path
         d="m 288.08537,828.6181 a 7.5590548,7.5590548 0 0 0 -6.5463,-11.33862"
         style="fill:none;stroke:#f40000;stroke-width:1.88976378;stroke-dasharray:none;stroke-opacity:1"
         id="path38450" /><path
         style="fill:none;stroke:#f40000;stroke-width:1.88976378;stroke-dasharray:none;stroke-opacity:1"
         d="m 251.03164,817.28288 h 30.50702"
         id="path38452" /><path
         d="m 251.03145,817.27948 a 7.5590548,7.5590548 0 0 0 -6.54633,11.33862"
         style="fill:none;stroke:#f40000;stroke-width:1.88976378;stroke-dasharray:none;stroke-opacity:1"
         id="path38454" /><path
         style="fill:none;stroke:#f40000;stroke-width:1.88976378;stroke-dasharray:none;stroke-opacity:1"
         d="m 259.73865,855.0429 -15.25301,-26.42"
         id="path38456" /><path
         d="m 197.24102,855.0381 a 7.5590548,7.5590548 0 0 0 6.54633,11.33862"
         style="fill:none;stroke:#f40000;stroke-width:1.88976378;stroke-dasharray:none;stroke-opacity:1"
         id="path38464" /><path
         style="fill:none;stroke:#f40000;stroke-width:1.88976378;stroke-dasharray:none;stroke-opacity:1"
         d="M 234.29464,866.3729 H 203.78765"
         id="path38466" /><path
         d="m 234.29494,866.37672 a 7.5590548,7.5590548 0 0 0 6.54633,-11.33862"
         style="fill:none;stroke:#f40000;stroke-width:1.88976378;stroke-dasharray:none;stroke-opacity:1"
         id="path38468" /><path
         style="fill:none;stroke:#f40000;stroke-width:1.88976378;stroke-dasharray:none;stroke-opacity:1"
         d="m 225.58767,828.6229 15.25398,26.42"
         id="path38470" /><path
         d="m 225.58744,828.61799 a 7.5590548,7.5590548 0 0 0 -13.09262,1.1e-4"
         style="fill:none;stroke:#f40000;stroke-width:1.88976378;stroke-dasharray:none;stroke-opacity:1"
         id="path38472" /><path
         style="fill:none;stroke:#f40000;stroke-width:1.88976378;stroke-dasharray:none;stroke-opacity:1"
         d="m 197.24166,855.0429 15.253,-26.42"
         id="path38474" /><path
         d="m 165.25072,915.51069 a 7.5590548,7.5590548 0 0 0 13.09266,0"
         style="fill:none;stroke:#f40000;stroke-width:1.88976378;stroke-dasharray:none;stroke-opacity:1"
         id="path38476" /><path
         style="fill:none;stroke:#f40000;stroke-width:1.88976378;stroke-dasharray:none;stroke-opacity:1"
         d="m 193.59763,889.09289 -15.25398,26.41999"
         id="path38478" /><path
         d="m 193.59718,889.09039 a 7.5590548,7.5590548 0 0 0 -6.5463,-11.33858"
         style="fill:none;stroke:#f40000;stroke-width:1.88976378;stroke-dasharray:none;stroke-opacity:1"
         id="path38480" /><path
         style="fill:none;stroke:#f40000;stroke-width:1.88976378;stroke-dasharray:none;stroke-opacity:1"
         d="m 156.54362,877.75291 h 30.50704"
         id="path38482" /><path
         d="m 156.54328,877.75181 a 7.5590548,7.5590548 0 0 0 -6.54637,11.33858"
         style="fill:none;stroke:#f40000;stroke-width:1.88976378;stroke-dasharray:none;stroke-opacity:1"
         id="path38484" /><path
         style="fill:none;stroke:#f40000;stroke-width:1.88976378;stroke-dasharray:none;stroke-opacity:1"
         d="M 165.25065,915.51288 149.99714,889.09289"
         id="path38486" /><path
         d="m 165.25072,855.0381 a 7.5590548,7.5590548 0 0 0 13.09266,0"
         style="fill:none;stroke:#f40000;stroke-width:1.88976378;stroke-dasharray:none;stroke-opacity:1"
         id="path38488" /><path
         style="fill:none;stroke:#f40000;stroke-width:1.88976378;stroke-dasharray:none;stroke-opacity:1"
         d="m 165.25065,855.0429 -15.25351,-26.42"
         id="path38490" /><path
         style="fill:none;stroke:#f40000;stroke-width:1.88976378;stroke-dasharray:none;stroke-opacity:1"
         d="m 193.59763,828.6229 -15.25398,26.42"
         id="path38492" /><path
         d="m 156.54328,817.27948 a 7.5590548,7.5590548 0 0 0 -6.54637,11.33862"
         style="fill:none;stroke:#f40000;stroke-width:1.88976378;stroke-dasharray:none;stroke-opacity:1"
         id="path38494" /><path
         d="m 193.59718,828.6181 a 7.5590548,7.5590548 0 0 0 -6.5463,-11.33862"
         style="fill:none;stroke:#f40000;stroke-width:1.88976378;stroke-dasharray:none;stroke-opacity:1"
         id="path38496" /><path
         style="fill:none;stroke:#f40000;stroke-width:1.88976378;stroke-dasharray:none;stroke-opacity:1"
         d="m 156.54362,817.28288 h 30.50704"
         id="path38498" /><path
         d="m 102.75282,855.0381 a 7.5590548,7.5590548 0 0 0 6.54633,11.33862"
         style="fill:none;stroke:#f40000;stroke-width:1.88976378;stroke-dasharray:none;stroke-opacity:1"
         id="path38500" /><path
         style="fill:none;stroke:#f40000;stroke-width:1.88976378;stroke-dasharray:none;stroke-opacity:1"
         d="m 102.75305,855.0429 15.25379,-26.42"
         id="path38502" /><path
         style="fill:none;stroke:#f40000;stroke-width:1.88976378;stroke-dasharray:none;stroke-opacity:1"
         d="M 139.80674,866.3729 H 109.29915"
         id="path38504" /><path
         d="m 131.09928,828.61799 a 7.5590548,7.5590548 0 0 0 -13.09267,1.1e-4"
         style="fill:none;stroke:#f40000;stroke-width:1.88976378;stroke-dasharray:none;stroke-opacity:1"
         id="path38506" /><path
         d="m 139.80674,866.37672 a 7.5590548,7.5590548 0 0 0 6.54633,-11.33862"
         style="fill:none;stroke:#f40000;stroke-width:1.88976378;stroke-dasharray:none;stroke-opacity:1"
         id="path38508" /><path
         style="fill:none;stroke:#f40000;stroke-width:1.88976378;stroke-dasharray:none;stroke-opacity:1"
         d="m 131.09943,828.6229 15.25379,26.42"
         id="path38510" /><path
         d="m 575.5111,915.5071 a 7.5590548,7.5590548 0 0 0 6.54633,11.33862"
         style="fill:none;stroke:#f40000;stroke-width:1.88976378;stroke-dasharray:none;stroke-opacity:1"
         id="path61466" /><path
         style="fill:none;stroke:#f40000;stroke-width:1.88976378;stroke-dasharray:none;stroke-opacity:1"
         d="M 612.56453,926.84931 H 582.05754"
         id="path61468" /><path
         d="m 612.56502,926.84572 a 7.5590548,7.5590548 0 0 0 6.54633,-11.33862"
         style="fill:none;stroke:#f40000;stroke-width:1.88976378;stroke-dasharray:none;stroke-opacity:1"
         id="path61470" /><path
         style="fill:none;stroke:#f40000;stroke-width:1.88976378;stroke-dasharray:none;stroke-opacity:1"
         d="m 603.85752,889.0893 15.25402,26.41999"
         id="path61472" /><path
         d="m 603.85752,889.08673 a 7.5590548,7.5590548 0 0 0 -13.09262,7e-5"
         style="fill:none;stroke:#f40000;stroke-width:1.88976378;stroke-dasharray:none;stroke-opacity:1"
         id="path61474" /><path
         style="fill:none;stroke:#f40000;stroke-width:1.88976378;stroke-dasharray:none;stroke-opacity:1"
         d="M 575.51155,915.50929 590.76554,889.0893"
         id="path61476" /><path
         d="m 481.02291,915.5071 a 7.5590548,7.5590548 0 0 0 6.54633,11.33862"
         style="fill:none;stroke:#f40000;stroke-width:1.88976378;stroke-dasharray:none;stroke-opacity:1"
         id="path61478" /><path
         style="fill:none;stroke:#f40000;stroke-width:1.88976378;stroke-dasharray:none;stroke-opacity:1"
         d="M 518.07653,926.84931 H 487.56954"
         id="path61480" /><path
         d="m 518.07683,926.84572 a 7.5590548,7.5590548 0 0 0 6.54633,-11.33862"
         style="fill:none;stroke:#f40000;stroke-width:1.88976378;stroke-dasharray:none;stroke-opacity:1"
         id="path61482" /><path
         style="fill:none;stroke:#f40000;stroke-width:1.88976378;stroke-dasharray:none;stroke-opacity:1"
         d="m 509.36956,889.0893 15.25398,26.41999"
         id="path61484" /><path
         d="m 509.36933,889.08673 a 7.5590548,7.5590548 0 0 0 -13.09262,7e-5"
         style="fill:none;stroke:#f40000;stroke-width:1.88976378;stroke-dasharray:none;stroke-opacity:1"
         id="path61486" /><path
         style="fill:none;stroke:#f40000;stroke-width:1.88976378;stroke-dasharray:none;stroke-opacity:1"
         d="m 481.02355,915.50929 15.253,-26.41999"
         id="path61488" /><path
         d="m 386.53471,915.5071 a 7.5590548,7.5590548 0 0 0 6.54633,11.33862"
         style="fill:none;stroke:#f40000;stroke-width:1.88976378;stroke-dasharray:none;stroke-opacity:1"
         id="path61490" /><path
         style="fill:none;stroke:#f40000;stroke-width:1.88976378;stroke-dasharray:none;stroke-opacity:1"
         d="M 423.58863,926.84931 H 393.08104"
         id="path61492" /><path
         d="m 423.58863,926.84572 a 7.5590548,7.5590548 0 0 0 6.54633,-11.33862"
         style="fill:none;stroke:#f40000;stroke-width:1.88976378;stroke-dasharray:none;stroke-opacity:1"
         id="path61494" /><path
         style="fill:none;stroke:#f40000;stroke-width:1.88976378;stroke-dasharray:none;stroke-opacity:1"
         d="m 414.88132,889.0893 15.25379,26.41999"
         id="path61496" /><path
         d="m 414.88117,889.08673 a 7.5590548,7.5590548 0 0 0 -13.09267,7e-5"
         style="fill:none;stroke:#f40000;stroke-width:1.88976378;stroke-dasharray:none;stroke-opacity:1"
         id="path61498" /><path
         style="fill:none;stroke:#f40000;stroke-width:1.88976378;stroke-dasharray:none;stroke-opacity:1"
         d="M 386.53494,915.50929 401.78873,889.0893"
         id="path61500" /><path
         d="m 638.00899,915.5071 a 7.5590548,7.5590548 0 0 0 13.09266,0"
         style="fill:none;stroke:#f40000;stroke-width:1.88976378;stroke-dasharray:none;stroke-opacity:1"
         id="path61502" /><path
         style="fill:none;stroke:#f40000;stroke-width:1.88976378;stroke-dasharray:none;stroke-opacity:1"
         d="m 666.35552,889.0893 -15.25398,26.41999"
         id="path61504" /><path
         d="m 666.35545,889.0868 a 7.5590548,7.5590548 0 0 0 -6.54633,-11.33858"
         style="fill:none;stroke:#f40000;stroke-width:1.88976378;stroke-dasharray:none;stroke-opacity:1"
         id="path61506" /><path
         style="fill:none;stroke:#f40000;stroke-width:1.88976378;stroke-dasharray:none;stroke-opacity:1"
         d="m 629.30153,877.74932 h 30.508"
         id="path61508" /><path
         d="M 629.30153,877.74822 A 7.5590548,7.5590548 0 0 0 622.7552,889.0868"
         style="fill:none;stroke:#f40000;stroke-width:1.88976378;stroke-dasharray:none;stroke-opacity:1"
         id="path61510" /><path
         style="fill:none;stroke:#f40000;stroke-width:1.88976378;stroke-dasharray:none;stroke-opacity:1"
         d="M 638.00952,915.50929 622.75554,889.0893"
         id="path61512" /><path
         d="m 638.00899,855.03451 a 7.5590548,7.5590548 0 0 0 13.09266,0"
         style="fill:none;stroke:#f40000;stroke-width:1.88976378;stroke-dasharray:none;stroke-opacity:1"
         id="path61514" /><path
         style="fill:none;stroke:#f40000;stroke-width:1.88976378;stroke-dasharray:none;stroke-opacity:1"
         d="m 666.35552,828.61931 -15.25398,26.42"
         id="path61516" /><path
         d="m 666.35545,828.61451 a 7.5590548,7.5590548 0 0 0 -6.54633,-11.33862"
         style="fill:none;stroke:#f40000;stroke-width:1.88976378;stroke-dasharray:none;stroke-opacity:1"
         id="path61518" /><path
         style="fill:none;stroke:#f40000;stroke-width:1.88976378;stroke-dasharray:none;stroke-opacity:1"
         d="m 629.30153,817.27929 h 30.508"
         id="path61520" /><path
         d="m 629.30153,817.27589 a 7.5590548,7.5590548 0 0 0 -6.54633,11.33862"
         style="fill:none;stroke:#f40000;stroke-width:1.88976378;stroke-dasharray:none;stroke-opacity:1"
         id="path61522" /><path
         style="fill:none;stroke:#f40000;stroke-width:1.88976378;stroke-dasharray:none;stroke-opacity:1"
         d="m 638.00952,855.03931 -15.25398,-26.42"
         id="path61524" /><path
         d="m 543.5208,915.5071 a 7.5590548,7.5590548 0 0 0 13.09266,0"
         style="fill:none;stroke:#f40000;stroke-width:1.88976378;stroke-dasharray:none;stroke-opacity:1"
         id="path61526" /><path
         style="fill:none;stroke:#f40000;stroke-width:1.88976378;stroke-dasharray:none;stroke-opacity:1"
         d="m 571.86752,889.0893 -15.25398,26.41999"
         id="path61528" /><path
         d="m 571.86726,889.0868 a 7.5590548,7.5590548 0 0 0 -6.5463,-11.33858"
         style="fill:none;stroke:#f40000;stroke-width:1.88976378;stroke-dasharray:none;stroke-opacity:1"
         id="path61530" /><path
         style="fill:none;stroke:#f40000;stroke-width:1.88976378;stroke-dasharray:none;stroke-opacity:1"
         d="m 534.81353,877.74932 h 30.50702"
         id="path61532" /><path
         d="m 534.81334,877.74822 a 7.5590548,7.5590548 0 0 0 -6.54633,11.33858"
         style="fill:none;stroke:#f40000;stroke-width:1.88976378;stroke-dasharray:none;stroke-opacity:1"
         id="path61534" /><path
         style="fill:none;stroke:#f40000;stroke-width:1.88976378;stroke-dasharray:none;stroke-opacity:1"
         d="M 543.52054,915.50929 528.26753,889.0893"
         id="path61536" /><path
         d="m 575.5111,855.03451 a 7.5590548,7.5590548 0 0 0 6.54633,11.33862"
         style="fill:none;stroke:#f40000;stroke-width:1.88976378;stroke-dasharray:none;stroke-opacity:1"
         id="path61538" /><path
         style="fill:none;stroke:#f40000;stroke-width:1.88976378;stroke-dasharray:none;stroke-opacity:1"
         d="M 612.56453,866.36931 H 582.05754"
         id="path61540" /><path
         d="m 612.56502,866.37313 a 7.5590548,7.5590548 0 0 0 6.54633,-11.33862"
         style="fill:none;stroke:#f40000;stroke-width:1.88976378;stroke-dasharray:none;stroke-opacity:1"
         id="path61542" /><path
         style="fill:none;stroke:#f40000;stroke-width:1.88976378;stroke-dasharray:none;stroke-opacity:1"
         d="m 603.85752,828.61931 15.25402,26.42"
         id="path61544" /><path
         d="m 603.85752,828.6144 a 7.5590548,7.5590548 0 0 0 -13.09262,1.1e-4"
         style="fill:none;stroke:#f40000;stroke-width:1.88976378;stroke-dasharray:none;stroke-opacity:1"
         id="path61546" /><path
         style="fill:none;stroke:#f40000;stroke-width:1.88976378;stroke-dasharray:none;stroke-opacity:1"
         d="m 575.51155,855.03931 15.25399,-26.42"
         id="path61548" /><path
         d="m 543.5208,855.03451 a 7.5590548,7.5590548 0 0 0 13.09266,0"
         style="fill:none;stroke:#f40000;stroke-width:1.88976378;stroke-dasharray:none;stroke-opacity:1"
         id="path61550" /><path
         style="fill:none;stroke:#f40000;stroke-width:1.88976378;stroke-dasharray:none;stroke-opacity:1"
         d="m 571.86752,828.61931 -15.25398,26.42"
         id="path61552" /><path
         d="m 571.86726,828.61451 a 7.5590548,7.5590548 0 0 0 -6.5463,-11.33862"
         style="fill:none;stroke:#f40000;stroke-width:1.88976378;stroke-dasharray:none;stroke-opacity:1"
         id="path61554" /><path
         style="fill:none;stroke:#f40000;stroke-width:1.88976378;stroke-dasharray:none;stroke-opacity:1"
         d="m 534.81353,817.27929 h 30.50702"
         id="path61556" /><path
         d="m 534.81334,817.27589 a 7.5590548,7.5590548 0 0 0 -6.54633,11.33862"
         style="fill:none;stroke:#f40000;stroke-width:1.88976378;stroke-dasharray:none;stroke-opacity:1"
         id="path61558" /><path
         style="fill:none;stroke:#f40000;stroke-width:1.88976378;stroke-dasharray:none;stroke-opacity:1"
         d="m 543.52054,855.03931 -15.25301,-26.42"
         id="path61560" /><path
         d="m 481.02291,855.03451 a 7.5590548,7.5590548 0 0 0 6.54633,11.33862"
         style="fill:none;stroke:#f40000;stroke-width:1.88976378;stroke-dasharray:none;stroke-opacity:1"
         id="path61562" /><path
         style="fill:none;stroke:#f40000;stroke-width:1.88976378;stroke-dasharray:none;stroke-opacity:1"
         d="M 518.07653,866.36931 H 487.56954"
         id="path61564" /><path
         d="m 518.07683,866.37313 a 7.5590548,7.5590548 0 0 0 6.54633,-11.33862"
         style="fill:none;stroke:#f40000;stroke-width:1.88976378;stroke-dasharray:none;stroke-opacity:1"
         id="path61566" /><path
         style="fill:none;stroke:#f40000;stroke-width:1.88976378;stroke-dasharray:none;stroke-opacity:1"
         d="m 509.36956,828.61931 15.25398,26.42"
         id="path61568" /><path
         d="m 509.36933,828.6144 a 7.5590548,7.5590548 0 0 0 -13.09262,1.1e-4"
         style="fill:none;stroke:#f40000;stroke-width:1.88976378;stroke-dasharray:none;stroke-opacity:1"
         id="path61570" /><path
         style="fill:none;stroke:#f40000;stroke-width:1.88976378;stroke-dasharray:none;stroke-opacity:1"
         d="m 481.02355,855.03931 15.253,-26.42"
         id="path61572" /><path
         d="m 449.03261,915.5071 a 7.5590548,7.5590548 0 0 0 13.09266,0"
         style="fill:none;stroke:#f40000;stroke-width:1.88976378;stroke-dasharray:none;stroke-opacity:1"
         id="path61574" /><path
         style="fill:none;stroke:#f40000;stroke-width:1.88976378;stroke-dasharray:none;stroke-opacity:1"
         d="m 477.37952,889.0893 -15.25398,26.41999"
         id="path61576" /><path
         d="m 477.37907,889.0868 a 7.5590548,7.5590548 0 0 0 -6.5463,-11.33858"
         style="fill:none;stroke:#f40000;stroke-width:1.88976378;stroke-dasharray:none;stroke-opacity:1"
         id="path61578" /><path
         style="fill:none;stroke:#f40000;stroke-width:1.88976378;stroke-dasharray:none;stroke-opacity:1"
         d="m 440.32551,877.74932 h 30.50704"
         id="path61580" /><path
         d="M 440.32517,877.74822 A 7.5590548,7.5590548 0 0 0 433.7788,889.0868"
         style="fill:none;stroke:#f40000;stroke-width:1.88976378;stroke-dasharray:none;stroke-opacity:1"
         id="path61582" /><path
         style="fill:none;stroke:#f40000;stroke-width:1.88976378;stroke-dasharray:none;stroke-opacity:1"
         d="M 449.03254,915.50929 433.77903,889.0893"
         id="path61584" /><path
         d="m 449.03261,855.03451 a 7.5590548,7.5590548 0 0 0 13.09266,0"
         style="fill:none;stroke:#f40000;stroke-width:1.88976378;stroke-dasharray:none;stroke-opacity:1"
         id="path61586" /><path
         style="fill:none;stroke:#f40000;stroke-width:1.88976378;stroke-dasharray:none;stroke-opacity:1"
         d="m 449.03254,855.03931 -15.25351,-26.42"
         id="path61588" /><path
         style="fill:none;stroke:#f40000;stroke-width:1.88976378;stroke-dasharray:none;stroke-opacity:1"
         d="m 477.37952,828.61931 -15.25398,26.42"
         id="path61590" /><path
         d="m 440.32517,817.27589 a 7.5590548,7.5590548 0 0 0 -6.54637,11.33862"
         style="fill:none;stroke:#f40000;stroke-width:1.88976378;stroke-dasharray:none;stroke-opacity:1"
         id="path61592" /><path
         d="m 477.37907,828.61451 a 7.5590548,7.5590548 0 0 0 -6.5463,-11.33862"
         style="fill:none;stroke:#f40000;stroke-width:1.88976378;stroke-dasharray:none;stroke-opacity:1"
         id="path61594" /><path
         style="fill:none;stroke:#f40000;stroke-width:1.88976378;stroke-dasharray:none;stroke-opacity:1"
         d="m 440.32551,817.27929 h 30.50704"
         id="path61596" /><path
         d="m 386.53471,855.03451 a 7.5590548,7.5590548 0 0 0 6.54633,11.33862"
         style="fill:none;stroke:#f40000;stroke-width:1.88976378;stroke-dasharray:none;stroke-opacity:1"
         id="path61598" /><path
         style="fill:none;stroke:#f40000;stroke-width:1.88976378;stroke-dasharray:none;stroke-opacity:1"
         d="m 386.53494,855.03931 15.25379,-26.42"
         id="path61600" /><path
         style="fill:none;stroke:#f40000;stroke-width:1.88976378;stroke-dasharray:none;stroke-opacity:1"
         d="M 423.58863,866.36931 H 393.08104"
         id="path61602" /><path
         d="m 414.88117,828.6144 a 7.5590548,7.5590548 0 0 0 -13.09267,1.1e-4"
         style="fill:none;stroke:#f40000;stroke-width:1.88976378;stroke-dasharray:none;stroke-opacity:1"
         id="path61604" /><path
         d="m 423.58863,866.37313 a 7.5590548,7.5590548 0 0 0 6.54633,-11.33862"
         style="fill:none;stroke:#f40000;stroke-width:1.88976378;stroke-dasharray:none;stroke-opacity:1"
         id="path61606" /><path
         style="fill:none;stroke:#f40000;stroke-width:1.88976378;stroke-dasharray:none;stroke-opacity:1"
         d="m 414.88132,828.61931 15.25379,26.42"
         id="path61608" /><path
         d="m 363.41567,559.25672 v -8.35869 h 66.86947 v 8.35869 z m 29.25539,66.86947 V 583.4969 l -10.86629,10.86629 -5.85108,-5.85108 20.89671,-20.89671 20.89672,20.89671 -5.85108,5.85108 -10.86629,-10.86629 v 42.62929 z"
         id="path64971"
         style="stroke-width:1.88976378;stroke:#ff0000;fill:none;fill-opacity:1;stroke-opacity:1;stroke-dasharray:none" /><g
         style="fill:#ff0000;fill-opacity:1;stroke:none"
         id="g67368"
         transform="matrix(0.56073223,0,0,0.56073223,282.95167,665.37153)"><path
           d="M 0,62.5 V 0 H 87.5 L 75,12.5 H 12.5 V 25 h 75 L 75,37.5 H 12.5 v 25 z m 212.5,0 H 200 V 0 l 75,40.723 V 0 h 12.5 v 62.5 l -75,-39.941 z m 106.25,0 L 353.125,31.25 318.75,0 h 18.75 l 25,22.754 L 387.5,0 h 18.75 L 371.875,31.25 406.25,62.5 H 387.5 l -25,-22.754 -25,22.754 z M 187.5,50 175,62.5 H 100 V 50 Z m 0,-25 L 175,37.5 H 100 V 25 Z M 187.5,0 175,12.5 H 100 V 0 Z M 300,0 h 12.5 V 62.5 H 300 Z"
           vector-effect="non-scaling-stroke"
           id="path67357"
           style="font-size:12px;fill:#ff0000;fill-opacity:1;fill-rule:evenodd;stroke:none;stroke-width:0;stroke-linecap:round" /></g><path
         style="fill:#ff0000;fill-opacity:1;stroke:none;stroke-width:0.0592488;stroke-opacity:1"
         d="m 178.65145,699.3245 c 0.71875,-0.0595 2.52385,-0.51429 2.71003,-0.68278 0.24534,-0.22203 -0.006,-0.43529 -0.62058,-0.52662 -0.43762,-0.065 -2.1264,-0.43928 -2.67077,-0.59188 -1.87785,-0.52641 -4.12828,-1.85648 -5.2593,-3.10845 -0.88974,-0.98485 -1.2869,-1.37022 -1.39105,-1.34973 -0.21331,0.042 -0.23163,0.18569 -0.1234,0.96774 0.0913,0.66005 0.14613,0.85004 0.45829,1.58961 0.56586,1.34059 0.77448,1.63282 1.81195,2.538 0.40411,0.35256 0.96791,0.63911 1.76689,0.89798 1.0495,0.34004 1.74821,0.39607 3.31794,0.26613 z m -8.70752,-0.64365 c 0.0734,-0.11881 -0.0334,-0.34682 -0.39222,-0.8375 -1.20066,-1.64181 -2.04836,-3.09615 -2.65487,-4.55475 -0.60875,-1.464 -0.85941,-2.77718 -0.85878,-4.49897 6.2e-4,-1.11779 0.007,-1.18557 0.21575,-2.08465 0.23067,-0.99558 0.44212,-1.56633 0.8617,-2.32584 0.34056,-0.61651 0.5806,-0.94738 1.63511,-2.25384 0.28984,-0.35912 0.64977,-0.81085 0.79986,-1.00384 0.15008,-0.19302 0.52615,-0.64754 0.83573,-1.01006 0.30958,-0.36255 0.77616,-0.92275 1.03686,-1.24494 0.2607,-0.32216 0.59631,-0.72084 0.74582,-0.88589 0.14951,-0.16508 0.56124,-0.66006 0.91496,-1.09998 0.35373,-0.43992 0.74244,-0.91984 0.8638,-1.06649 0.60672,-0.7331 1.82849,-2.20394 2.09347,-2.52025 0.16478,-0.19673 0.45081,-0.54333 0.63559,-0.77024 0.18478,-0.22691 0.81134,-0.98378 1.39235,-1.68192 0.58101,-0.69818 1.29379,-1.56468 1.58397,-1.92561 1.76067,-2.18999 3.35983,-3.43116 5.49785,-4.26715 1.42527,-0.55729 2.01626,-0.62571 5.39247,-0.62433 3.47845,0 9.3388,0.15794 9.94135,0.26558 0.0489,0.009 0.31549,0.0356 0.59249,0.0597 0.27698,0.0242 0.56724,0.0679 0.64501,0.0974 0.0778,0.0294 0.23774,0.0688 0.3555,0.0875 0.11775,0.0187 0.26075,0.0589 0.31777,0.0894 0.057,0.0304 0.10362,0.037 0.10362,0.0144 0,-0.0224 0.0467,0 0.10374,0.0472 0.19399,0.16468 0.63665,0.388 0.71443,0.3604 0.0427,-0.015 0.13054,0.0206 0.19539,0.0792 0.13247,0.11987 0.28997,0.161 0.28997,0.0757 0,-0.031 0.16412,0.0553 0.3647,0.19143 0.68753,0.46691 1.01466,0.77276 1.32316,1.23715 0.26791,0.40328 0.50412,1.00595 0.50469,1.28763 6.1e-4,0.26334 0.10907,0.58253 0.23756,0.69885 0.34471,0.31198 1.63443,-0.19342 2.71989,-1.06584 0.36536,-0.29364 1.2043,-1.13454 1.55165,-1.55524 2.39616,-3.31695 -1.1321,-3.41957 0.79902,-1.50197 0.0846,-0.24196 0.17579,-0.5199 0.20269,-0.61767 0.35754,-1.29962 0.42192,-1.62589 0.50598,-2.56413 0.0602,-0.67174 0.0442,-2.89052 -0.0248,-3.44962 -0.0713,-0.57768 -0.16311,-1.23887 -0.21383,-1.54049 -0.0667,-0.39607 -0.0868,-0.56544 -0.12384,-1.03677 -0.0205,-0.26064 -0.0476,-0.49083 -0.0604,-0.5115 -0.0127,-0.0205 -0.0509,-0.43398 -0.0847,-0.91843 -0.0338,-0.48448 -0.12639,-1.64074 -0.20564,-2.56947 -0.0793,-0.92873 -0.18641,-2.2485 -0.23816,-2.93281 -0.0517,-0.68431 -0.1315,-1.60415 -0.17729,-2.04411 -0.0458,-0.43989 -0.0975,-1.26021 -0.11498,-1.82293 -0.0661,-2.13043 -0.20774,-2.18079 -1.74305,-0.61927 -0.65156,0.66267 -1.02687,1.10096 -1.30447,1.52335 -0.70945,1.07946 -0.83139,1.18382 -0.99919,0.85494 -0.13248,-0.25966 -0.0613,-1.12764 0.16666,-2.03309 0.059,-0.23409 0.0542,-0.29435 -0.0333,-0.42794 -0.0992,-0.15137 -0.11463,-0.15471 -0.58465,-0.12619 -1.37802,0.0836 -4.17323,1.33697 -5.67792,2.5461 -0.89192,0.71672 -1.21435,0.93189 -1.39867,0.93342 -0.0746,0 -0.23458,-0.0505 -0.35549,-0.11371 -0.22057,-0.11522 -1.13744,-0.86102 -1.96767,-1.60051 -0.2444,-0.2177 -0.65766,-0.57844 -0.91836,-0.80164 -0.26069,-0.22323 -0.68729,-0.60933 -0.94798,-0.85804 -0.2607,-0.24869 -0.68729,-0.62353 -0.94799,-0.83293 -0.64339,-0.51684 -2.37317,-2.00139 -3.34033,-2.86679 -0.43594,-0.39006 -0.91959,-0.8175 -1.07478,-0.94986 -0.66089,-0.56361 -2.01573,-1.74323 -3.13451,-2.72909 -0.44374,-0.39104 -1.07291,-0.93625 -1.39814,-1.21158 -0.32523,-0.2753 -0.73821,-0.63524 -0.91775,-0.79987 -0.17953,-0.16459 -0.77942,-0.68587 -1.3331,-1.15837 -0.55367,-0.47252 -1.09999,-0.95369 -1.21404,-1.06931 -0.11406,-0.11561 -0.59398,-0.5326 -1.06649,-0.92667 -1.08767,-0.90708 -1.66847,-1.40985 -2.96245,-2.56423 -0.57027,-0.50877 -1.30347,-1.15055 -1.62935,-1.42619 -0.32586,-0.27563 -1.12989,-0.9678 -1.78671,-1.53812 -1.74457,-1.51485 -2.747,-2.34909 -3.98687,-3.31806 -0.18766,-0.14662 -0.53842,-0.42855 -0.77949,-0.6265 -0.24107,-0.19793 -0.87823,-0.68855 -1.41592,-1.09023 -0.53768,-0.40168 -1.11091,-0.83428 -1.27385,-0.96127 -0.16293,-0.12699 -0.45622,-0.34157 -0.65173,-0.47685 -0.19553,-0.13527 -0.65473,-0.46712 -1.02047,-0.73749 -0.36574,-0.27036 -0.82134,-0.59163 -1.01245,-0.71399 -0.19111,-0.12234 -0.8293,-0.54239 -1.41819,-0.93343 -3.39829,-2.25657 -6.10803,-3.72492 -8.97286,-4.86225 -0.44613,-0.17714 -0.82579,-0.32204 -0.84369,-0.32204 -0.0179,0 -0.38608,-0.12982 -0.81819,-0.28846 -0.6573,-0.24135 -2.37746,-0.80652 -3.56834,-1.17238 -1.21434,-0.3731 -3.39238,-0.90049 -6.07503,-1.47097 -1.342,-0.28539 -4.3654,-0.80029 -5.53978,-0.94345 -0.42363,-0.0516 -0.86355,-0.10651 -0.97761,-0.12196 -1.5946,-0.21572 -3.26408,-0.40855 -4.14742,-0.47909 -1.17002,-0.0934 -1.40818,-0.11261 -2.51809,-0.20289 -0.39104,-0.0318 -1.60416,-0.0722 -2.69583,-0.0898 -5.15445,-0.083 -7.77515,-0.34111 -10.36856,-1.0211 -2.33611,-0.61252 -3.95424,-1.19664 -5.59904,-2.0212 -0.92066,-0.46154 -1.37708,-0.7315 -2.60356,-1.5399 -0.67825,-0.44704 -0.82428,-0.48344 -0.85074,-0.21194 -0.0333,0.34111 0.60006,1.71888 1.2039,2.619 0.43777,0.65257 0.35177,0.76736 -0.36246,0.48371 -0.89629,-0.35592 -2.80496,-1.41367 -3.37128,-1.86829 -0.0977,-0.0785 -0.37771,-0.29345 -0.62212,-0.4777 -0.43328,-0.3267 -1.50383,-1.36857 -2.10795,-2.05153 -0.36437,-0.41189 -0.499,-0.4405 -0.499,-0.10598 0,0.12874 0.0372,0.37536 0.0827,0.54802 0.20891,0.79346 0.40981,1.44989 0.47689,1.55818 0.0403,0.0652 0.18814,0.42511 0.32838,0.79987 0.25548,0.68266 0.6367,1.49979 0.82929,1.77748 0.0564,0.0815 0.1901,0.30809 0.2969,0.50362 0.10686,0.19551 0.42095,0.68876 0.69811,1.09608 1.60949,2.36544 3.58348,4.08466 6.67873,5.81666 0.55398,0.30999 1.12721,0.61927 1.27385,0.68729 0.71462,0.33145 0.68701,0.51708 -0.077,0.51708 -0.6412,0 -1.67388,-0.1262 -2.26342,-0.27659 -1.03714,-0.26457 -1.90514,-0.5468 -2.43862,-0.79287 -0.19362,-0.0893 -0.37103,-0.0643 -0.38199,0.0537 -0.0374,0.40373 0.19298,0.88582 0.79686,1.66744 0.734,0.95008 2.18245,1.83637 3.57633,2.18837 0.69366,0.17517 2.13773,0.41597 3.21697,0.53646 0.40733,0.0455 0.9939,0.11197 1.30348,0.14779 0.3412,0.0395 2.30104,0.0738 4.97691,0.0871 4.18352,0.0209 6.42428,0.0784 8.02824,0.20624 0.39104,0.0312 1.17757,0.0726 1.74784,0.0922 0.57027,0.0196 1.27681,0.0598 1.57009,0.0895 0.29328,0.0297 0.9865,0.0961 1.54048,0.14766 0.55397,0.0515 1.26053,0.13202 1.57009,0.17888 0.30958,0.0469 0.7895,0.11362 1.06649,0.14834 0.27698,0.0348 0.78356,0.11519 1.12573,0.17876 0.34216,0.0636 0.95539,0.17014 1.36273,0.23678 0.40733,0.0666 0.98057,0.16061 1.27385,0.20888 0.78057,0.1284 2.50866,0.48841 3.25869,0.67882 1.92675,0.48921 3.40032,0.95066 4.91767,1.53997 0.26069,0.10123 0.67396,0.25969 0.91835,0.35209 1.83226,0.69277 5.61238,2.48562 7.34688,3.48446 2.33306,1.34357 3.25355,1.97415 5.59902,3.8356 1.27183,1.00936 2.51021,1.97915 3.13383,2.45413 0.23162,0.17643 0.58109,0.45845 0.7766,0.62675 0.19553,0.16827 0.84875,0.69977 1.4516,1.18106 1.24934,0.99746 1.99703,1.60397 2.53791,2.05877 0.20643,0.17357 0.66414,0.55557 1.01713,0.84884 0.95752,0.79554 2.05794,1.72142 2.45473,2.06533 0.19332,0.16753 0.51326,0.42986 0.71099,0.58292 1.07884,0.83514 2.65363,2.1937 2.72408,2.35008 0.0847,0.18796 -0.5755,-0.15159 -0.79448,-0.40862 -0.0163,-0.019 -0.19972,-0.13717 -0.40762,-0.2623 -0.20791,-0.12515 -0.53575,-0.3588 -0.72854,-0.51926 -0.1928,-0.16045 -0.51594,-0.4056 -0.71811,-0.54483 -1.16779,-0.80413 -1.61504,-1.11945 -1.64142,-1.15727 -0.0163,-0.0233 -0.7095,-0.50067 -1.54047,-1.06066 -0.83097,-0.55999 -1.71082,-1.16361 -1.95522,-1.34139 -0.24441,-0.17778 -0.72431,-0.50108 -1.06649,-0.71848 -0.34216,-0.21737 -0.8754,-0.56707 -1.18497,-0.77708 -0.53581,-0.36347 -0.96947,-0.65107 -3.28832,-2.18079 -0.55398,-0.36543 -1.07389,-0.69808 -1.15535,-0.73918 -0.0815,-0.0411 -0.38809,-0.2266 -0.68137,-0.41217 -1.61993,-1.02499 -1.81859,-1.14548 -2.93283,-1.77846 -0.21181,-0.12031 -0.69269,-0.40585 -1.0686,-0.63448 -0.37593,-0.22865 -0.93148,-0.54005 -1.23458,-0.69201 -0.30309,-0.15198 -0.64826,-0.34234 -0.76704,-0.42305 -0.11878,-0.0807 -0.23698,-0.14678 -0.26265,-0.14678 -0.0256,0 -0.14744,-0.0636 -0.2706,-0.14134 -0.12316,-0.0778 -0.36719,-0.20299 -0.54227,-0.27831 -0.17508,-0.0753 -0.65904,-0.3168 -1.07546,-0.53659 -0.41642,-0.21982 -0.95174,-0.48439 -1.18959,-0.58798 -0.23786,-0.10357 -0.62659,-0.27853 -0.86387,-0.38878 -1.06977,-0.49711 -3.95494,-1.43394 -5.61199,-1.82228 -3.00835,-0.70502 -5.1486,-1.11927 -6.63588,-1.28448 -0.29329,-0.0326 -0.70655,-0.0863 -0.91836,-0.11932 -0.51228,-0.0799 -0.62846,-0.0967 -0.9776,-0.14067 -0.16295,-0.0205 -0.54954,-0.0753 -0.85911,-0.12166 -0.30958,-0.0464 -1.30941,-0.1523 -2.22184,-0.23541 -0.91244,-0.0831 -1.88561,-0.17716 -2.16259,-0.20905 -0.27699,-0.0319 -0.99686,-0.085 -1.59972,-0.1181 -0.60286,-0.0331 -1.21609,-0.0737 -1.36273,-0.0903 -0.41341,-0.0467 -6.2199,-0.20216 -8.82809,-0.23635 -2.63123,-0.0345 -4.15697,-0.0731 -4.76955,-0.12056 -0.9756,-0.0756 -3.16431,-0.3585 -3.67343,-0.47476 -1.39287,-0.31805 -2.1457,-0.52429 -2.68897,-0.73666 -0.70666,-0.27622 -0.8647,-0.27242 -0.80547,0.0193 0.13455,0.66291 1.89815,2.82723 3.33142,4.08836 0.50926,0.44812 1.35595,1.0542 2.2393,1.60299 0.54857,0.34077 3.04554,1.30112 3.87824,1.49157 1.4008,0.32038 2.69486,0.89178 3.26101,1.43986 0.43928,0.42527 0.58657,1.05312 0.38759,1.65221 -0.1151,0.34654 -0.44247,0.68005 -0.77502,0.78956 -0.6302,0.20753 -2.66412,-0.003 -3.4957,-0.36132 -0.18634,-0.0803 -1.83977,-0.53232 -1.9474,-0.53232 -0.20371,0 -0.0809,0.23209 0.33287,0.6292 0.40763,0.39119 0.99088,0.852 1.07837,0.852 0.0223,0 0.12533,0.0629 0.22906,0.13978 0.76869,0.56968 3.11274,1.40678 4.33603,1.54852 0.16293,0.019 0.35213,0.0461 0.42042,0.0606 0.0683,0.0144 0.8815,0.0795 1.80711,0.14466 0.9256,0.0651 1.86954,0.15815 2.09765,0.2067 0.89031,0.18952 1.36661,0.33737 1.88733,0.58584 0.56007,0.26723 0.7379,0.4018 1.55932,1.17992 0.2666,0.25255 0.53571,0.45919 0.59804,0.45919 0.0733,0 0.23035,-0.16211 0.44489,-0.45919 0.40015,-0.55416 0.76061,-0.91505 1.11329,-1.11466 1.48105,-0.83824 2.78742,-1.18291 4.73608,-1.24958 0.85953,-0.0294 1.25595,-0.0163 1.83672,0.0617 0.40733,0.0546 0.9539,0.12717 1.2146,0.16131 1.63534,0.21421 3.44901,0.69348 5.48634,1.44983 0.47571,0.17658 0.88058,0.32109 0.89971,0.32109 0.0498,0 2.19131,0.97316 2.64941,1.20403 1.3454,0.67799 2.50289,1.32057 3.66965,2.03714 0.30751,0.18885 0.80075,0.48467 1.09611,0.65733 0.66282,0.38751 4.18173,2.72912 4.95597,3.29791 0.31227,0.22939 0.88341,0.64371 1.26919,0.9207 0.38577,0.27698 1.06347,0.78379 1.50595,1.12619 0.44249,0.34244 0.89785,0.68849 1.0119,0.76899 0.11405,0.0806 0.47399,0.36145 0.79986,0.62433 0.32587,0.26288 0.71248,0.56421 0.85911,0.66965 0.35898,0.25807 2.2086,1.74516 2.36802,1.90392 0.0504,0.0502 0.41137,0.36102 0.80219,0.69082 0.75093,0.63365 1.25027,1.1319 1.19237,1.1898 -0.0692,0.0692 -0.56405,-0.17076 -1.08015,-0.52392 -0.29005,-0.19848 -1.15391,-0.76242 -1.91969,-1.25322 -1.38767,-0.88936 -2.86998,-1.86967 -6.00886,-3.97392 -0.90975,-0.60985 -1.90957,-1.26414 -2.22185,-1.45394 -0.31227,-0.18983 -0.83439,-0.51815 -1.16027,-0.72967 -0.32586,-0.21148 -0.71246,-0.44443 -0.85911,-0.51766 -0.14664,-0.0733 -0.63988,-0.35311 -1.0961,-0.62197 -2.07459,-1.22252 -4.16106,-2.29917 -5.51015,-2.8433 -0.2607,-0.10516 -0.52732,-0.22138 -0.5925,-0.25825 -0.32444,-0.18357 -1.49779,-0.62417 -2.6662,-1.00113 -1.81312,-0.58498 -2.92589,-0.78576 -4.35479,-0.78576 -0.96502,0 -1.49625,0.0616 -2.10334,0.24392 -1.59541,0.47915 -2.86236,1.47066 -3.51204,2.74857 -0.23754,0.46722 -0.2401,0.91558 -0.006,0.91558 0.0653,0 0.40336,-0.0943 0.75143,-0.20956 1.20258,-0.39821 1.33825,-0.42195 2.73619,-0.47835 1.04415,-0.0421 1.23192,-0.0132 2.12535,0.32529 0.79498,0.3014 1.6379,0.9671 2.27069,1.79325 0.46883,0.61209 0.64952,0.98215 0.66061,1.35292 0.008,0.2869 -0.006,0.31974 -0.23676,0.53515 -0.51675,0.48227 -1.36833,0.54392 -2.18131,0.15781 -0.58965,-0.28002 -0.97429,-0.53999 -1.49999,-1.01383 -0.23733,-0.21394 -0.45669,-0.38896 -0.48744,-0.38896 -0.0307,0 -0.097,0.0627 -0.14724,0.13939 -0.083,0.12665 -0.0813,0.17152 0.0187,0.49273 0.0605,0.19434 0.2183,0.51153 0.35068,0.70489 0.50275,0.73433 1.81721,2.00988 2.65207,2.57355 0.22811,0.15404 0.80511,0.57029 1.28221,0.92502 0.47712,0.35473 1.05035,0.77638 1.27386,0.93698 0.22352,0.16061 1.0996,0.80735 1.94685,1.4372 0.84727,0.62984 1.76711,1.31305 2.04409,1.51825 0.277,0.20519 0.94442,0.70492 1.48316,1.1105 0.53876,0.4056 1.46869,1.09737 2.06652,1.53729 0.59782,0.43993 1.34768,0.99982 1.66632,1.24424 0.31866,0.24439 0.81021,0.61767 1.09236,0.82949 0.78551,0.58974 0.85872,0.65365 0.94924,0.82866 0.123,0.23789 0.0155,0.34575 -0.41434,0.41601 -0.21974,0.0359 -3.41009,0.0583 -8.3541,0.0587 -4.73605,0 -8.31339,0.0245 -8.77033,0.0593 -1.23537,0.0942 -3.15441,0.51877 -4.13274,0.91422 -1.80293,0.72878 -3.28184,1.74749 -4.12667,2.84253 -0.46552,0.60341 -0.25441,0.73124 0.55631,0.33682 0.44683,-0.21737 1.77355,-0.77012 2.42748,-1.01135 0.32612,-0.1203 0.52703,-0.0851 0.55459,0.0973 0.0104,0.0687 -0.14966,0.34114 -0.39646,0.6749 -0.41279,0.5583 -1.13773,1.8696 -1.43867,2.60237 -0.57858,1.4088 -0.73633,3.45603 -0.38133,4.94874 0.36996,1.55554 0.57952,2.17772 1.017,3.01945 0.47082,0.90585 1.09925,1.92929 1.50545,2.45171 0.19405,0.24957 0.51846,0.67707 0.72095,0.95004 0.20248,0.273 0.62606,0.76623 0.94125,1.09611 0.3152,0.32989 0.65061,0.68469 0.74535,0.78843 0.35469,0.38847 1.49151,1.40886 1.9201,1.72351 0.2444,0.17944 0.63397,0.46915 0.86571,0.6438 0.42339,0.31916 1.27305,0.79162 1.42356,0.79162 0.0444,0 0.0807,-0.034 0.0807,-0.0754 0,-0.13313 -0.43572,-0.82312 -0.71614,-1.13408 -0.34428,-0.38175 -1.08923,-1.57812 -1.36823,-2.19732 -0.57934,-1.28583 -0.73819,-2.16113 -0.68278,-3.76231 0.0646,-1.86623 0.471,-3.02598 1.42694,-4.07193 0.55801,-0.61055 1.23652,-1.0199 2.2882,-1.38052 0.55033,-0.1887 0.5909,-0.19363 1.82226,-0.22151 2.20234,-0.0498 3.74715,0.27938 3.74715,0.79861 0,0.11488 -0.16106,0.31302 -0.65636,0.80753 -0.77103,0.76982 -1.2777,1.42156 -1.59123,2.04684 -0.23682,0.47228 -0.64908,1.68069 -0.78045,2.28757 -0.11046,0.5104 -0.0952,2.53206 0.0235,3.1106 0.0502,0.24439 0.10919,0.551 0.13128,0.68136 0.0839,0.49571 0.51792,1.99244 0.84108,2.90025 0.34974,0.98243 1.23053,2.83855 1.74152,3.66997 0.39122,0.63656 1.18759,1.76742 1.59804,2.2693 0.18142,0.22181 0.3994,0.50656 0.48439,0.63276 0.24629,0.36564 1.96082,2.18217 2.77032,2.93508 1.41085,1.31223 3.97996,3.24584 4.65224,3.50145 0.48619,0.18483 0.50632,-0.0552 0.0546,-0.65147 -0.18111,-0.23905 -0.37167,-0.51699 -0.42346,-0.61764 -0.0518,-0.10059 -0.2188,-0.3696 -0.37113,-0.59771 -0.28068,-0.42026 -0.98084,-1.85188 -1.14462,-2.34032 -0.14076,-0.41983 -0.38154,-1.56348 -0.49063,-2.33041 -0.13492,-0.94855 -0.0894,-3.09345 0.0847,-3.99449 0.25162,-1.30165 0.97712,-3.08554 1.691,-4.15786 1.07731,-1.61826 3.41202,-3.85271 4.10247,-3.92632 0.24726,-0.0264 0.20386,0.10384 -0.30025,0.90031 -0.74034,1.16974 -1.25352,2.12654 -1.68422,3.14019 -0.52272,1.23019 -0.66928,1.6745 -0.86968,2.63656 -0.14911,0.71578 -0.1606,0.87504 -0.16262,2.25148 -0.002,1.66211 0.061,2.12099 0.46654,3.37719 0.39244,1.21547 1.09999,2.7532 1.56757,3.40681 0.1282,0.17922 0.39778,0.56584 0.59905,0.85912 0.71286,1.03876 1.98247,2.38157 3.37978,3.57459 1.77228,1.51319 4.6767,3.44674 6.00852,4.00004 0.26334,0.10942 0.60299,0.28438 0.7548,0.3888 0.47218,0.32489 0.91988,0.45621 1.01738,0.29843 z m 36.2898,-38.76945 c -9.2e-4,-0.0294 0.0508,-0.006 0.11521,0.0524 0.0645,0.0583 0.10188,0.13067 0.0832,0.16085 -0.0346,0.0561 -0.19499,-0.11623 -0.1984,-0.21323 z m -0.77521,0.14564 c 0.0675,-0.0427 0.052,-0.0627 -0.0716,-0.0938 -0.0866,-0.0218 -0.18616,-0.0742 -0.22128,-0.11645 -0.0351,-0.0423 -0.11593,-0.0633 -0.17959,-0.0467 -0.083,0.0218 -0.13047,-0.009 -0.16778,-0.10976 -0.0286,-0.0771 -0.0399,-0.17211 -0.0249,-0.2113 0.015,-0.0392 0.005,-0.10583 -0.0217,-0.14812 -0.0633,-0.0998 -0.065,-0.40276 -0.002,-0.40276 0.0266,0 0.0328,-0.0492 0.0138,-0.10921 -0.0203,-0.0639 0.0141,-0.17127 0.0829,-0.25868 0.0647,-0.0821 0.0993,-0.16778 0.0769,-0.19016 -0.0224,-0.0224 0.003,-0.0239 0.0563,-0.003 0.0533,0.0206 0.16963,0 0.25843,-0.0474 0.14024,-0.0735 0.20695,-0.0731 0.50764,0.003 0.19041,0.048 0.33355,0.10767 0.3181,0.13266 -0.0154,0.0251 0.0167,0.0818 0.0715,0.12623 0.0857,0.0695 0.0923,0.0684 0.0472,-0.008 -0.0451,-0.0765 -0.0385,-0.0775 0.0472,-0.008 0.0548,0.0444 0.085,0.10446 0.0671,0.13332 -0.0179,0.0288 -0.002,0.0525 0.0337,0.0525 0.0364,0 0.0509,0.0248 0.0321,0.0552 -0.0188,0.0304 -0.012,0.0688 0.015,0.0854 0.0365,0.0227 0.0509,0.63325 0.0171,0.73329 -0.002,0.008 -0.002,0.0325 6.1e-4,0.0539 0.007,0.0519 -0.15453,0.13993 -0.31326,0.17051 -0.0702,0.0135 -0.14304,0.0494 -0.16177,0.0797 -0.0188,0.0304 -0.12735,0.0818 -0.24136,0.11454 -0.26869,0.0771 -0.34677,0.0816 -0.23999,0.0141 z m -2.3637,-1.56475 c 0.057,-0.0526 0.0649,-0.0435 0.0351,0.0408 -0.0211,0.0597 -0.0415,0.13966 -0.0452,0.17772 -0.003,0.038 -0.0196,0.0196 -0.0351,-0.0408 -0.0155,-0.0605 0.005,-0.14045 0.0452,-0.17775 z m -60.55563,27.59254 c 0.15709,-0.0639 0.29625,-0.21388 0.29625,-0.31943 0,-0.0567 -0.3379,-0.40438 -0.75543,-0.77721 -0.74174,-0.66232 -1.59697,-1.53628 -1.81278,-1.85246 -0.14881,-0.21805 -0.38243,-0.3236 -0.46113,-0.20839 -0.129,0.18888 0.11162,1.63424 0.34941,2.09919 0.18701,0.36558 0.51773,0.68891 0.89494,0.87491 0.32029,0.1579 0.45518,0.18872 0.88874,0.20283 0.28111,0.009 0.55112,0 0.6,-0.0193 z m 57.26982,-42.49367 c 2.03211,-1.83689 4.37934,-4.5799 5.98989,-6.99987 0.49976,-0.75095 1.43243,-2.28702 1.6548,-2.72547 0.37203,-0.7335 1.02961,-2.12795 1.02961,-2.18337 0,-0.0307 0.0773,-0.23844 0.17175,-0.46182 0.48599,-1.14914 0.97722,-3.09744 1.19293,-4.7313 0.0842,-0.63703 0.0849,-3.37075 10e-4,-4.17721 -0.0906,-0.8731 -0.22906,-1.8056 -0.32342,-2.1787 -0.0472,-0.18658 -0.12977,-0.57919 -0.1835,-0.87246 -0.16836,-0.91883 -0.73011,-2.74403 -1.02199,-3.3206 -0.0653,-0.1289 -0.19001,-0.43324 -0.27724,-0.67634 -0.16095,-0.44851 -0.38485,-0.89647 -1.00803,-2.01685 -0.57761,-1.03839 -0.74739,-1.30538 -1.28102,-2.01444 -0.91866,-1.22069 -1.74635,-2.10728 -2.93159,-3.14019 -0.61699,-0.53769 -1.30871,-1.15288 -1.53717,-1.36706 -0.22845,-0.21419 -0.682,-0.62099 -1.00786,-0.90396 -0.62949,-0.54664 -1.05084,-0.91895 -2.19221,-1.93713 -0.39105,-0.34885 -0.89933,-0.79116 -1.12953,-0.98296 -0.54681,-0.45556 -1.22643,-1.06198 -1.85786,-1.65778 -0.27958,-0.26377 -0.81491,-0.73593 -1.18967,-1.0492 -0.37475,-0.31326 -0.94798,-0.81142 -1.27385,-1.10703 -1.02881,-0.9333 -2.24082,-1.99298 -2.538,-2.219 -0.31467,-0.23936 -1.14128,-0.62568 -1.33873,-0.62568 -0.10582,0 -0.11908,0.0249 -0.087,0.16294 0.0208,0.0896 0.12441,0.3229 0.23029,0.5184 0.64246,1.18637 0.76013,2.11311 0.34446,2.71293 -0.20301,0.29294 -0.41849,0.40147 -0.80424,0.40503 -0.66597,0.006 -1.09799,-0.32741 -2.08138,-1.6071 -0.30311,-0.39444 -1.02286,-1.70017 -1.23029,-2.23194 -0.49634,-1.27236 -0.68845,-2.15577 -0.82128,-3.77635 -0.0728,-0.88835 -0.11953,-1.08364 -0.27333,-1.14264 -0.17288,-0.0663 -0.64921,0.60663 -1.00752,1.42346 -0.14534,0.33133 -0.30449,0.68998 -0.35366,0.79698 -0.24278,0.52828 -0.47414,1.54886 -0.58504,2.58073 -0.0751,0.69869 -0.21114,0.78704 -0.6124,0.39763 -0.30234,-0.2934 -0.35987,-0.4072 -0.63048,-1.24731 -0.21304,-0.6614 -0.29186,-0.82949 -0.38899,-0.82949 -0.0845,0 -0.28705,0.49344 -0.44998,1.09612 -0.14478,0.53554 -0.15981,0.68643 -0.15641,1.57008 0.003,0.79983 0.0263,1.06075 0.12806,1.4348 0.36748,1.35136 0.86935,2.26292 1.83597,3.33474 0.80403,0.89154 2.84458,2.94435 4.8346,4.86358 0.97692,0.94219 2.43001,2.35504 3.22907,3.1397 1.59182,1.56308 3.5553,3.43959 3.80137,3.63298 0.18807,0.14782 1.23188,1.36439 1.63199,1.90214 0.48023,0.6454 0.99551,1.48559 1.46975,2.39642 0.96821,1.85954 1.32984,3.20774 1.3438,5.0097 0.0127,1.65306 -0.26803,2.66178 -1.21956,4.38041 -0.79306,1.43244 -2.65847,3.78393 -2.8888,3.64157 -0.0967,-0.0597 -0.0442,-0.22133 0.30281,-0.93195 0.50632,-1.03699 0.97846,-2.28077 1.24687,-3.28473 0.1283,-0.47985 0.24683,-0.95247 0.2634,-1.05023 0.21783,-1.28546 0.21686,-3.40835 -0.002,-4.40761 -0.18249,-0.83299 -0.8001,-2.29224 -1.34433,-3.17626 -0.4543,-0.73792 -1.35885,-2.10672 -1.46982,-2.22424 -0.14833,-0.15702 -0.49237,-0.56033 -0.73354,-0.85989 -0.42595,-0.52907 -2.44004,-2.56183 -3.08729,-3.1159 -0.16584,-0.14196 -0.61909,-0.55121 -1.00724,-0.90947 -0.38814,-0.35825 -0.78454,-0.7182 -0.8809,-0.79987 -0.0963,-0.0817 -0.36297,-0.32305 -0.59249,-0.53637 -0.22951,-0.21335 -0.77724,-0.70618 -1.21716,-1.09513 -0.43992,-0.38899 -0.82652,-0.73902 -0.85911,-0.77785 -0.0326,-0.0388 -0.17923,-0.16833 -0.32587,-0.28781 -0.14664,-0.11945 -0.58657,-0.51687 -0.9776,-0.88316 -0.39105,-0.36629 -0.81764,-0.7558 -0.94799,-0.86562 -0.13035,-0.10982 -0.45055,-0.40095 -0.71155,-0.64693 -0.26102,-0.24601 -0.68761,-0.63104 -0.94799,-0.85568 -0.48154,-0.41542 -1.30634,-1.16604 -2.22056,-2.0208 -0.27882,-0.2607 -0.66619,-0.60731 -0.8608,-0.77024 -2.26607,-1.89724 -3.93365,-3.50384 -5.19061,-5.00081 -1.01395,-1.20756 -1.92889,-2.74618 -2.15739,-3.62802 -0.12417,-0.47914 -0.1827,-0.58436 -0.32511,-0.58436 -0.14416,0 -0.35858,0.32939 -0.66588,1.02294 -0.49396,1.11479 -0.59703,2.46912 -0.28205,3.7056 0.19096,0.74964 0.40778,1.31873 0.71537,1.8777 0.26288,0.47774 0.64426,1.10523 0.7382,1.21462 0.18296,0.21301 0.6894,1.26144 0.8586,1.77745 0.25348,0.77306 0.27212,1.52929 0.0496,2.01448 -0.18519,0.40383 -0.53247,0.72421 -0.92709,0.85528 -0.24893,0.0827 -0.36036,0.0891 -0.645,0.0373 -0.83951,-0.1529 -1.51732,-0.70029 -1.95282,-1.57704 -0.33842,-0.6813 -0.43435,-1.26944 -0.43492,-2.66659 -6.1e-4,-1.18787 -0.0276,-1.27245 -0.35467,-1.10761 -0.29216,0.14723 -1.02644,1.02653 -1.29753,1.55382 -0.12614,0.24531 -0.315,0.7064 -0.41972,1.02466 -0.20946,0.6366 -0.30809,0.77975 -0.50346,0.73071 -0.0708,-0.0178 -0.18695,0.009 -0.2581,0.0583 -0.31214,0.21863 -0.0559,1.19113 0.54811,2.07996 0.27221,0.40064 1.18788,1.28377 2.26125,2.181 0.62138,0.51942 2.34539,1.91653 2.77827,2.25148 1.12733,0.87227 3.97949,3.22284 5.77894,4.76262 1.97781,1.69241 4.70311,4.3628 5.70595,5.59094 1.84108,2.25476 2.53664,4.45334 1.8109,5.72404 -0.21114,0.3697 -0.47973,0.55882 -0.73895,0.52033 -0.10478,-0.0156 -0.88527,-0.49031 -1.83672,-1.11724 -2.45681,-1.61887 -2.68167,-1.76457 -2.72302,-1.76457 -0.0208,0 -0.14886,-0.0772 -0.28454,-0.17162 -0.35453,-0.24662 -0.8025,-0.5237 -2.14265,-1.32532 -0.65174,-0.38984 -1.3183,-0.78947 -1.48123,-0.88806 -0.56809,-0.34379 -1.36914,-0.80088 -2.28109,-1.30165 -0.50509,-0.27736 -1.17253,-0.65125 -1.48317,-0.8309 -0.31066,-0.17962 -0.78883,-0.43922 -1.0626,-0.57689 -0.27379,-0.13766 -0.59865,-0.31394 -0.7219,-0.39174 -0.29957,-0.18913 -1.85858,-0.85345 -2.00279,-0.85345 -0.30948,0 -0.19249,0.12988 1.15266,1.27966 0.81211,0.69416 1.64046,1.38031 3.79754,3.14571 0.58964,0.48258 1.9452,1.59728 3.01235,2.47713 1.06715,0.87985 2.20088,1.81302 2.51941,2.07373 0.31853,0.26067 0.80266,0.66419 1.07583,0.89668 0.47644,0.40546 1.20197,1.01828 2.86665,2.42135 0.42362,0.35703 0.82355,0.69921 0.88873,0.76036 0.0651,0.0612 0.55842,0.47385 1.09611,0.91711 0.53768,0.44324 1.25756,1.04736 1.59972,1.3425 0.69484,0.5993 0.94925,0.81545 2.16376,1.83836 0.46431,0.39104 1.15832,0.99092 1.54227,1.33308 0.38394,0.34218 0.93032,0.8221 1.21418,1.06649 1.32877,1.14408 1.82478,1.57523 2.07117,1.80051 0.25137,0.22982 1.13581,1.00454 2.13296,1.86835 0.24441,0.2117 0.67188,0.5993 0.94994,0.8613 0.27807,0.26202 0.97092,0.88963 1.53967,1.39472 0.56875,0.50512 1.22267,1.10571 1.45314,1.3347 1.08939,1.08229 1.1184,1.08621 2.01746,0.27353 z m -87.84733,-16.2333 c 0.0774,-0.14472 -0.1384,-0.46599 -0.4483,-0.66732 -0.25239,-0.16395 -1.4725,-0.64558 -1.63548,-0.64558 -0.33751,0 0.18699,0.66382 0.8229,1.04146 0.66563,0.39527 1.13995,0.4974 1.26088,0.27144 z m -7.0202,-15.74425 c 0.0512,-0.0512 0.0931,-0.11583 0.0931,-0.14358 0,-0.13123 -0.35056,-0.4413 -0.70424,-0.62292 -0.21553,-0.11068 -0.53236,-0.28333 -0.70408,-0.38365 -0.27637,-0.16149 -0.31661,-0.17097 -0.35053,-0.0825 -0.0552,0.14389 0.20031,0.59077 0.4502,0.78729 0.31203,0.24543 0.85527,0.53852 0.99814,0.53852 0.0684,0 0.16619,-0.0419 0.2174,-0.0931 z"
         id="path23477"
         sodipodi:nodetypes="ssssssssssscssccssssssscssscsccssssscccscsccscccscccssccscsssccssscssscssssssssssssssssssssssssssssssssssssssscssccsssssssssssssssssssssssssssssssscscsssssssssssssssssssssssssssssssssssssssssssssssssssssssssssssssssscssssssssssssscsscsscccsccsssscssssssssssssccsssscssssssssssssssssssssssccssssssssssscscssscssssssccccsccccscsscsccccccccscssscccccccccscscssssssscsscsssccssssssssssssssssscsssscsssssssssccsssssscssssccsssssssssssssssssssssssssssscsssscsssssssssssssssssssssssssssscsssssccssssssssssssss" /><path
         style="fill:#ff0000;fill-opacity:1;stroke:none;stroke-width:0.0592488;stroke-opacity:1"
         d="m 591.88166,695.77241 c -0.71875,-0.0595 -2.52385,-0.51429 -2.71003,-0.68278 -0.24534,-0.22203 0.006,-0.43529 0.62058,-0.52662 0.43762,-0.065 2.1264,-0.43928 2.67077,-0.59188 1.87785,-0.52641 4.12828,-1.85648 5.2593,-3.10845 0.88974,-0.98485 1.2869,-1.37022 1.39105,-1.34973 0.21331,0.042 0.23163,0.18569 0.1234,0.96774 -0.0913,0.66005 -0.14613,0.85004 -0.45829,1.58961 -0.56586,1.34059 -0.77448,1.63282 -1.81195,2.538 -0.40411,0.35256 -0.96791,0.63911 -1.76689,0.89798 -1.0495,0.34004 -1.74821,0.39607 -3.31794,0.26613 z m 8.70752,-0.64365 c -0.0734,-0.11881 0.0334,-0.34682 0.39222,-0.8375 1.20066,-1.64181 2.04836,-3.09615 2.65487,-4.55475 0.60875,-1.464 0.85941,-2.77718 0.85878,-4.49897 -6.2e-4,-1.11779 -0.007,-1.18557 -0.21575,-2.08465 -0.23067,-0.99558 -0.44212,-1.56633 -0.8617,-2.32584 -0.34056,-0.61651 -0.5806,-0.94738 -1.63511,-2.25384 -0.28984,-0.35912 -0.64977,-0.81085 -0.79986,-1.00384 -0.15008,-0.19302 -0.52615,-0.64754 -0.83573,-1.01006 -0.30958,-0.36255 -0.77616,-0.92275 -1.03686,-1.24494 -0.2607,-0.32216 -0.59631,-0.72084 -0.74582,-0.88589 -0.14951,-0.16508 -0.56124,-0.66006 -0.91496,-1.09998 -0.35373,-0.43992 -0.74244,-0.91984 -0.8638,-1.06649 -0.60672,-0.7331 -1.82849,-2.20394 -2.09347,-2.52025 -0.16478,-0.19673 -0.45081,-0.54333 -0.63559,-0.77024 -0.18478,-0.22691 -0.81134,-0.98378 -1.39235,-1.68192 -0.58101,-0.69818 -1.29379,-1.56468 -1.58397,-1.92561 -1.76067,-2.18999 -3.35983,-3.43116 -5.49785,-4.26715 -1.42527,-0.55729 -2.01626,-0.62571 -5.39247,-0.62433 -3.47845,0 -9.3388,0.15794 -9.94135,0.26558 -0.0489,0.009 -0.31549,0.0356 -0.59249,0.0597 -0.27698,0.0242 -0.56724,0.0679 -0.64501,0.0974 -0.0778,0.0294 -0.23774,0.0688 -0.3555,0.0875 -0.11775,0.0187 -0.26075,0.0589 -0.31777,0.0894 -0.057,0.0304 -0.10362,0.037 -0.10362,0.0144 0,-0.0224 -0.0467,0 -0.10374,0.0472 -0.19399,0.16468 -0.63665,0.388 -0.71443,0.3604 -0.0427,-0.015 -0.13054,0.0206 -0.19539,0.0792 -0.13247,0.11987 -0.28997,0.161 -0.28997,0.0757 0,-0.031 -0.16412,0.0553 -0.3647,0.19143 -0.68753,0.46691 -1.01466,0.77276 -1.32316,1.23715 -0.26791,0.40328 -0.50412,1.00595 -0.50469,1.28763 -6.1e-4,0.26334 -0.10907,0.58253 -0.23756,0.69885 -0.34471,0.31198 -1.63443,-0.19342 -2.71989,-1.06584 -0.36536,-0.29364 -1.2043,-1.13454 -1.55165,-1.55524 -2.39616,-3.31695 1.1321,-3.41957 -0.79902,-1.50197 -0.0846,-0.24196 -0.17579,-0.5199 -0.20269,-0.61767 -0.35754,-1.29962 -0.42192,-1.62589 -0.50598,-2.56413 -0.0602,-0.67174 -0.0442,-2.89052 0.0248,-3.44962 0.0713,-0.57768 0.16311,-1.23887 0.21383,-1.54049 0.0667,-0.39607 0.0868,-0.56544 0.12384,-1.03677 0.0205,-0.26064 0.0476,-0.49083 0.0604,-0.5115 0.0127,-0.0205 0.0509,-0.43398 0.0847,-0.91843 0.0338,-0.48448 0.12639,-1.64074 0.20564,-2.56947 0.0793,-0.92873 0.18641,-2.2485 0.23816,-2.93281 0.0517,-0.68431 0.1315,-1.60415 0.17729,-2.04411 0.0458,-0.43989 0.0975,-1.26021 0.11498,-1.82293 0.0661,-2.13043 0.20774,-2.18079 1.74305,-0.61927 0.65156,0.66267 1.02687,1.10096 1.30447,1.52335 0.70945,1.07946 0.83139,1.18382 0.99919,0.85494 0.13248,-0.25966 0.0613,-1.12764 -0.16666,-2.03309 -0.059,-0.23409 -0.0542,-0.29435 0.0333,-0.42794 0.0992,-0.15137 0.11463,-0.15471 0.58465,-0.12619 1.37802,0.0836 4.17323,1.33697 5.67792,2.5461 0.89192,0.71672 1.21435,0.93189 1.39867,0.93342 0.0746,0 0.23458,-0.0505 0.35549,-0.11371 0.22057,-0.11522 1.13744,-0.86102 1.96767,-1.60051 0.2444,-0.2177 0.65766,-0.57844 0.91836,-0.80164 0.26069,-0.22323 0.68729,-0.60933 0.94798,-0.85804 0.2607,-0.24869 0.68729,-0.62353 0.94799,-0.83293 0.64339,-0.51684 2.37317,-2.00139 3.34033,-2.86679 0.43594,-0.39006 0.91959,-0.8175 1.07478,-0.94986 0.66089,-0.56361 2.01573,-1.74323 3.13451,-2.72909 0.44374,-0.39104 1.07291,-0.93625 1.39814,-1.21158 0.32523,-0.2753 0.73821,-0.63524 0.91775,-0.79987 0.17953,-0.16459 0.77942,-0.68587 1.3331,-1.15837 0.55367,-0.47252 1.09999,-0.95369 1.21404,-1.06931 0.11406,-0.11561 0.59398,-0.5326 1.06649,-0.92667 1.08767,-0.90708 1.66847,-1.40985 2.96245,-2.56423 0.57027,-0.50877 1.30347,-1.15055 1.62935,-1.42619 0.32586,-0.27563 1.12989,-0.9678 1.78671,-1.53812 1.74457,-1.51485 2.747,-2.34909 3.98687,-3.31806 0.18766,-0.14662 0.53842,-0.42855 0.77949,-0.6265 0.24107,-0.19793 0.87823,-0.68855 1.41592,-1.09023 0.53768,-0.40168 1.11091,-0.83428 1.27385,-0.96127 0.16293,-0.12699 0.45622,-0.34157 0.65173,-0.47685 0.19553,-0.13527 0.65473,-0.46712 1.02047,-0.73749 0.36574,-0.27036 0.82134,-0.59163 1.01245,-0.71399 0.19111,-0.12234 0.8293,-0.54239 1.41819,-0.93343 3.39829,-2.25657 6.10803,-3.72492 8.97286,-4.86225 0.44613,-0.17714 0.82579,-0.32204 0.84369,-0.32204 0.0179,0 0.38608,-0.12982 0.81819,-0.28846 0.6573,-0.24135 2.37746,-0.80652 3.56834,-1.17238 1.21434,-0.3731 3.39238,-0.90049 6.07503,-1.47097 1.342,-0.28539 4.3654,-0.80029 5.53978,-0.94345 0.42363,-0.0516 0.86355,-0.10651 0.97761,-0.12196 1.5946,-0.21572 3.26408,-0.40855 4.14742,-0.47909 1.17002,-0.0934 1.40818,-0.11261 2.51809,-0.20289 0.39104,-0.0318 1.60416,-0.0722 2.69583,-0.0898 5.15445,-0.083 7.77515,-0.34111 10.36856,-1.0211 2.33611,-0.61252 3.95424,-1.19664 5.59904,-2.0212 0.92066,-0.46154 1.37708,-0.7315 2.60356,-1.5399 0.67825,-0.44704 0.82428,-0.48344 0.85074,-0.21194 0.0333,0.34111 -0.60006,1.71888 -1.2039,2.619 -0.43777,0.65257 -0.35177,0.76736 0.36246,0.48371 0.89629,-0.35592 2.80496,-1.41367 3.37128,-1.86829 0.0977,-0.0785 0.37771,-0.29345 0.62212,-0.4777 0.43328,-0.3267 1.50383,-1.36857 2.10795,-2.05153 0.36437,-0.41189 0.499,-0.4405 0.499,-0.10598 0,0.12874 -0.0372,0.37536 -0.0827,0.54802 -0.20891,0.79346 -0.40981,1.44989 -0.47689,1.55818 -0.0403,0.0652 -0.18814,0.42511 -0.32838,0.79987 -0.25548,0.68266 -0.6367,1.49979 -0.82929,1.77748 -0.0564,0.0815 -0.1901,0.30809 -0.2969,0.50362 -0.10686,0.19551 -0.42095,0.68876 -0.69811,1.09608 -1.60949,2.36544 -3.58348,4.08466 -6.67873,5.81666 -0.55398,0.30999 -1.12721,0.61927 -1.27385,0.68729 -0.71462,0.33145 -0.68701,0.51708 0.077,0.51708 0.6412,0 1.67388,-0.1262 2.26342,-0.27659 1.03714,-0.26457 1.90514,-0.5468 2.43862,-0.79287 0.19362,-0.0893 0.37103,-0.0643 0.38199,0.0537 0.0374,0.40373 -0.19298,0.88582 -0.79686,1.66744 -0.734,0.95008 -2.18245,1.83637 -3.57633,2.18837 -0.69366,0.17517 -2.13773,0.41597 -3.21697,0.53646 -0.40733,0.0455 -0.9939,0.11197 -1.30348,0.14779 -0.3412,0.0395 -2.30104,0.0738 -4.97691,0.0871 -4.18352,0.0209 -6.42428,0.0784 -8.02824,0.20624 -0.39104,0.0312 -1.17757,0.0726 -1.74784,0.0922 -0.57027,0.0196 -1.27681,0.0598 -1.57009,0.0895 -0.29328,0.0297 -0.9865,0.0961 -1.54048,0.14766 -0.55397,0.0515 -1.26053,0.13202 -1.57009,0.17888 -0.30958,0.0469 -0.7895,0.11362 -1.06649,0.14834 -0.27698,0.0348 -0.78356,0.11519 -1.12573,0.17876 -0.34216,0.0636 -0.95539,0.17014 -1.36273,0.23678 -0.40733,0.0666 -0.98057,0.16061 -1.27385,0.20888 -0.78057,0.1284 -2.50866,0.48841 -3.25869,0.67882 -1.92675,0.48921 -3.40032,0.95066 -4.91767,1.53997 -0.26069,0.10123 -0.67396,0.25969 -0.91835,0.35209 -1.83226,0.69277 -5.61238,2.48562 -7.34688,3.48446 -2.33306,1.34357 -3.25355,1.97415 -5.59902,3.8356 -1.27183,1.00936 -2.51021,1.97915 -3.13383,2.45413 -0.23162,0.17643 -0.58109,0.45845 -0.7766,0.62675 -0.19553,0.16827 -0.84875,0.69977 -1.4516,1.18106 -1.24934,0.99746 -1.99703,1.60397 -2.53791,2.05877 -0.20643,0.17357 -0.66414,0.55557 -1.01713,0.84884 -0.95752,0.79554 -2.05794,1.72142 -2.45473,2.06533 -0.19332,0.16753 -0.51326,0.42986 -0.71099,0.58292 -1.07884,0.83514 -2.65363,2.1937 -2.72408,2.35008 -0.0847,0.18796 0.5755,-0.15159 0.79448,-0.40862 0.0163,-0.019 0.19972,-0.13717 0.40762,-0.2623 0.20791,-0.12515 0.53575,-0.3588 0.72854,-0.51926 0.1928,-0.16045 0.51594,-0.4056 0.71811,-0.54483 1.16779,-0.80413 1.61504,-1.11945 1.64142,-1.15727 0.0163,-0.0233 0.7095,-0.50067 1.54047,-1.06066 0.83097,-0.55999 1.71082,-1.16361 1.95522,-1.34139 0.24441,-0.17778 0.72431,-0.50108 1.06649,-0.71848 0.34216,-0.21737 0.8754,-0.56707 1.18497,-0.77708 0.53581,-0.36347 0.96947,-0.65107 3.28832,-2.18079 0.55398,-0.36543 1.07389,-0.69808 1.15535,-0.73918 0.0815,-0.0411 0.38809,-0.2266 0.68137,-0.41217 1.61993,-1.02499 1.81859,-1.14548 2.93283,-1.77846 0.21181,-0.12031 0.69269,-0.40585 1.0686,-0.63448 0.37593,-0.22865 0.93148,-0.54005 1.23458,-0.69201 0.30309,-0.15198 0.64826,-0.34234 0.76704,-0.42305 0.11878,-0.0807 0.23698,-0.14678 0.26265,-0.14678 0.0256,0 0.14744,-0.0636 0.2706,-0.14134 0.12316,-0.0778 0.36719,-0.20299 0.54227,-0.27831 0.17508,-0.0753 0.65904,-0.3168 1.07546,-0.53659 0.41642,-0.21982 0.95174,-0.48439 1.18959,-0.58798 0.23786,-0.10357 0.62659,-0.27853 0.86387,-0.38878 1.06977,-0.49711 3.95494,-1.43394 5.61199,-1.82228 3.00835,-0.70502 5.1486,-1.11927 6.63588,-1.28448 0.29329,-0.0326 0.70655,-0.0863 0.91836,-0.11932 0.51228,-0.0799 0.62846,-0.0967 0.9776,-0.14067 0.16295,-0.0205 0.54954,-0.0753 0.85911,-0.12166 0.30958,-0.0464 1.30941,-0.1523 2.22184,-0.23541 0.91244,-0.0831 1.88561,-0.17716 2.16259,-0.20905 0.27699,-0.0319 0.99686,-0.085 1.59972,-0.1181 0.60286,-0.0331 1.21609,-0.0737 1.36273,-0.0903 0.41341,-0.0467 6.2199,-0.20216 8.82809,-0.23635 2.63123,-0.0345 4.15697,-0.0731 4.76955,-0.12056 0.9756,-0.0756 3.16431,-0.3585 3.67343,-0.47476 1.39287,-0.31805 2.1457,-0.52429 2.68897,-0.73666 0.70666,-0.27622 0.8647,-0.27242 0.80547,0.0193 -0.13455,0.66291 -1.89815,2.82723 -3.33142,4.08836 -0.50926,0.44812 -1.35595,1.0542 -2.2393,1.60299 -0.54857,0.34077 -3.04554,1.30112 -3.87824,1.49157 -1.4008,0.32038 -2.69486,0.89178 -3.26101,1.43986 -0.43928,0.42527 -0.58657,1.05312 -0.38759,1.65221 0.1151,0.34654 0.44247,0.68005 0.77502,0.78956 0.6302,0.20753 2.66412,-0.003 3.4957,-0.36132 0.18634,-0.0803 1.83977,-0.53232 1.9474,-0.53232 0.20371,0 0.0809,0.23209 -0.33287,0.6292 -0.40763,0.39119 -0.99088,0.852 -1.07837,0.852 -0.0223,0 -0.12533,0.0629 -0.22906,0.13978 -0.76869,0.56968 -3.11274,1.40678 -4.33603,1.54852 -0.16293,0.019 -0.35213,0.0461 -0.42042,0.0606 -0.0683,0.0144 -0.8815,0.0795 -1.80711,0.14466 -0.9256,0.0651 -1.86954,0.15815 -2.09765,0.2067 -0.89031,0.18952 -1.36661,0.33737 -1.88733,0.58584 -0.56007,0.26723 -0.7379,0.4018 -1.55932,1.17992 -0.2666,0.25255 -0.53571,0.45919 -0.59804,0.45919 -0.0733,0 -0.23035,-0.16211 -0.44489,-0.45919 -0.40015,-0.55416 -0.76061,-0.91505 -1.11329,-1.11466 -1.48105,-0.83824 -2.78742,-1.18291 -4.73608,-1.24958 -0.85953,-0.0294 -1.25595,-0.0163 -1.83672,0.0617 -0.40733,0.0546 -0.9539,0.12717 -1.2146,0.16131 -1.63534,0.21421 -3.44901,0.69348 -5.48634,1.44983 -0.47571,0.17658 -0.88058,0.32109 -0.89971,0.32109 -0.0498,0 -2.19131,0.97316 -2.64941,1.20403 -1.3454,0.67799 -2.50289,1.32057 -3.66965,2.03714 -0.30751,0.18885 -0.80075,0.48467 -1.09611,0.65733 -0.66282,0.38751 -4.18173,2.72912 -4.95597,3.29791 -0.31227,0.22939 -0.88341,0.64371 -1.26919,0.9207 -0.38577,0.27698 -1.06347,0.78379 -1.50595,1.12619 -0.44249,0.34244 -0.89785,0.68849 -1.0119,0.76899 -0.11405,0.0806 -0.47399,0.36145 -0.79986,0.62433 -0.32587,0.26288 -0.71248,0.56421 -0.85911,0.66965 -0.35898,0.25807 -2.2086,1.74516 -2.36802,1.90392 -0.0504,0.0502 -0.41137,0.36102 -0.80219,0.69082 -0.75093,0.63365 -1.25027,1.1319 -1.19237,1.1898 0.0692,0.0692 0.56405,-0.17076 1.08015,-0.52392 0.29005,-0.19848 1.15391,-0.76242 1.91969,-1.25322 1.38767,-0.88936 2.86998,-1.86967 6.00886,-3.97392 0.90975,-0.60985 1.90957,-1.26414 2.22185,-1.45394 0.31227,-0.18983 0.83439,-0.51815 1.16027,-0.72967 0.32586,-0.21148 0.71246,-0.44443 0.85911,-0.51766 0.14664,-0.0733 0.63988,-0.35311 1.0961,-0.62197 2.07459,-1.22252 4.16106,-2.29917 5.51015,-2.8433 0.2607,-0.10516 0.52732,-0.22138 0.5925,-0.25825 0.32444,-0.18357 1.49779,-0.62417 2.6662,-1.00113 1.81312,-0.58498 2.92589,-0.78576 4.35479,-0.78576 0.96502,0 1.49625,0.0616 2.10334,0.24392 1.59541,0.47915 2.86236,1.47066 3.51204,2.74857 0.23754,0.46722 0.2401,0.91558 0.006,0.91558 -0.0653,0 -0.40336,-0.0943 -0.75143,-0.20956 -1.20258,-0.39821 -1.33825,-0.42195 -2.73619,-0.47835 -1.04415,-0.0421 -1.23192,-0.0132 -2.12535,0.32529 -0.79498,0.3014 -1.6379,0.9671 -2.27069,1.79325 -0.46883,0.61209 -0.64952,0.98215 -0.66061,1.35292 -0.008,0.2869 0.006,0.31974 0.23676,0.53515 0.51675,0.48227 1.36833,0.54392 2.18131,0.15781 0.58965,-0.28002 0.97429,-0.53999 1.49999,-1.01383 0.23733,-0.21394 0.45669,-0.38896 0.48744,-0.38896 0.0307,0 0.097,0.0627 0.14724,0.13939 0.083,0.12665 0.0813,0.17152 -0.0187,0.49273 -0.0605,0.19434 -0.2183,0.51153 -0.35068,0.70489 -0.50275,0.73433 -1.81721,2.00988 -2.65207,2.57355 -0.22811,0.15404 -0.80511,0.57029 -1.28221,0.92502 -0.47712,0.35473 -1.05035,0.77638 -1.27386,0.93698 -0.22352,0.16061 -1.0996,0.80735 -1.94685,1.4372 -0.84727,0.62984 -1.76711,1.31305 -2.04409,1.51825 -0.277,0.20519 -0.94442,0.70492 -1.48316,1.1105 -0.53876,0.4056 -1.46869,1.09737 -2.06652,1.53729 -0.59782,0.43993 -1.34768,0.99982 -1.66632,1.24424 -0.31866,0.24439 -0.81021,0.61767 -1.09236,0.82949 -0.78551,0.58974 -0.85872,0.65365 -0.94924,0.82866 -0.123,0.23789 -0.0155,0.34575 0.41434,0.41601 0.21974,0.0359 3.41009,0.0583 8.3541,0.0587 4.73605,0 8.31339,0.0245 8.77033,0.0593 1.23537,0.0942 3.15441,0.51877 4.13274,0.91422 1.80293,0.72878 3.28184,1.74749 4.12667,2.84253 0.46552,0.60341 0.25441,0.73124 -0.55631,0.33682 -0.44683,-0.21737 -1.77355,-0.77012 -2.42748,-1.01135 -0.32612,-0.1203 -0.52703,-0.0851 -0.55459,0.0973 -0.0104,0.0687 0.14966,0.34114 0.39646,0.6749 0.41279,0.5583 1.13773,1.8696 1.43867,2.60237 0.57858,1.4088 0.73633,3.45603 0.38133,4.94874 -0.36996,1.55554 -0.57952,2.17772 -1.017,3.01945 -0.47082,0.90585 -1.09925,1.92929 -1.50545,2.45171 -0.19405,0.24957 -0.51846,0.67707 -0.72095,0.95004 -0.20248,0.273 -0.62606,0.76623 -0.94125,1.09611 -0.3152,0.32989 -0.65061,0.68469 -0.74535,0.78843 -0.35469,0.38847 -1.49151,1.40886 -1.9201,1.72351 -0.2444,0.17944 -0.63397,0.46915 -0.86571,0.6438 -0.42339,0.31916 -1.27305,0.79162 -1.42356,0.79162 -0.0444,0 -0.0807,-0.034 -0.0807,-0.0754 0,-0.13313 0.43572,-0.82312 0.71614,-1.13408 0.34428,-0.38175 1.08923,-1.57812 1.36823,-2.19732 0.57934,-1.28583 0.73819,-2.16113 0.68278,-3.76231 -0.0646,-1.86623 -0.471,-3.02598 -1.42694,-4.07193 -0.55801,-0.61055 -1.23652,-1.0199 -2.2882,-1.38052 -0.55033,-0.1887 -0.5909,-0.19363 -1.82226,-0.22151 -2.20234,-0.0498 -3.74715,0.27938 -3.74715,0.79861 0,0.11488 0.16106,0.31302 0.65636,0.80753 0.77103,0.76982 1.2777,1.42156 1.59123,2.04684 0.23682,0.47228 0.64908,1.68069 0.78045,2.28757 0.11046,0.5104 0.0952,2.53206 -0.0235,3.1106 -0.0502,0.24439 -0.10919,0.551 -0.13128,0.68136 -0.0839,0.49571 -0.51792,1.99244 -0.84108,2.90025 -0.34974,0.98243 -1.23053,2.83855 -1.74152,3.66997 -0.39122,0.63656 -1.18759,1.76742 -1.59804,2.2693 -0.18142,0.22181 -0.3994,0.50656 -0.48439,0.63276 -0.24629,0.36564 -1.96082,2.18217 -2.77032,2.93508 -1.41085,1.31223 -3.97996,3.24584 -4.65224,3.50145 -0.48619,0.18483 -0.50632,-0.0552 -0.0546,-0.65147 0.18111,-0.23905 0.37167,-0.51699 0.42346,-0.61764 0.0518,-0.10059 0.2188,-0.3696 0.37113,-0.59771 0.28068,-0.42026 0.98084,-1.85188 1.14462,-2.34032 0.14076,-0.41983 0.38154,-1.56348 0.49063,-2.33041 0.13492,-0.94855 0.0894,-3.09345 -0.0847,-3.99449 -0.25162,-1.30165 -0.97712,-3.08554 -1.691,-4.15786 -1.07731,-1.61826 -3.41202,-3.85271 -4.10247,-3.92632 -0.24726,-0.0264 -0.20386,0.10384 0.30025,0.90031 0.74034,1.16974 1.25352,2.12654 1.68422,3.14019 0.52272,1.23019 0.66928,1.6745 0.86968,2.63656 0.14911,0.71578 0.1606,0.87504 0.16262,2.25148 0.002,1.66211 -0.061,2.12099 -0.46654,3.37719 -0.39244,1.21547 -1.09999,2.7532 -1.56757,3.40681 -0.1282,0.17922 -0.39778,0.56584 -0.59905,0.85912 -0.71286,1.03876 -1.98247,2.38157 -3.37978,3.57459 -1.77228,1.51319 -4.6767,3.44674 -6.00852,4.00004 -0.26334,0.10942 -0.60299,0.28438 -0.7548,0.3888 -0.47218,0.32489 -0.91988,0.45621 -1.01738,0.29843 z m -36.2898,-38.76945 c 9.2e-4,-0.0294 -0.0508,-0.006 -0.11521,0.0524 -0.0645,0.0583 -0.10188,0.13067 -0.0832,0.16085 0.0346,0.0561 0.19499,-0.11623 0.1984,-0.21323 z m 0.77521,0.14564 c -0.0675,-0.0427 -0.052,-0.0627 0.0716,-0.0938 0.0866,-0.0218 0.18616,-0.0742 0.22128,-0.11645 0.0351,-0.0423 0.11593,-0.0633 0.17959,-0.0467 0.083,0.0218 0.13047,-0.009 0.16778,-0.10976 0.0286,-0.0771 0.0399,-0.17211 0.0249,-0.2113 -0.015,-0.0392 -0.005,-0.10583 0.0217,-0.14812 0.0633,-0.0998 0.065,-0.40276 0.002,-0.40276 -0.0266,0 -0.0328,-0.0492 -0.0138,-0.10921 0.0203,-0.0639 -0.0141,-0.17127 -0.0829,-0.25868 -0.0647,-0.0821 -0.0993,-0.16778 -0.0769,-0.19016 0.0224,-0.0224 -0.003,-0.0239 -0.0563,-0.003 -0.0533,0.0206 -0.16963,0 -0.25843,-0.0474 -0.14024,-0.0735 -0.20695,-0.0731 -0.50764,0.003 -0.19041,0.048 -0.33355,0.10767 -0.3181,0.13266 0.0154,0.0251 -0.0167,0.0818 -0.0715,0.12623 -0.0857,0.0695 -0.0923,0.0684 -0.0472,-0.008 0.0451,-0.0765 0.0385,-0.0775 -0.0472,-0.008 -0.0548,0.0444 -0.085,0.10446 -0.0671,0.13332 0.0179,0.0288 0.002,0.0525 -0.0337,0.0525 -0.0364,0 -0.0509,0.0248 -0.0321,0.0552 0.0188,0.0304 0.012,0.0688 -0.015,0.0854 -0.0365,0.0227 -0.0509,0.63325 -0.0171,0.73329 0.002,0.008 0.002,0.0325 -6.1e-4,0.0539 -0.007,0.0519 0.15453,0.13993 0.31326,0.17051 0.0702,0.0135 0.14304,0.0494 0.16177,0.0797 0.0188,0.0304 0.12735,0.0818 0.24136,0.11454 0.26869,0.0771 0.34677,0.0816 0.23999,0.0141 z m 2.3637,-1.56475 c -0.057,-0.0526 -0.0649,-0.0435 -0.0351,0.0408 0.0211,0.0597 0.0415,0.13966 0.0452,0.17772 0.003,0.038 0.0196,0.0196 0.0351,-0.0408 0.0155,-0.0605 -0.005,-0.14045 -0.0452,-0.17775 z m 60.55563,27.59254 c -0.15709,-0.0639 -0.29625,-0.21388 -0.29625,-0.31943 0,-0.0567 0.3379,-0.40438 0.75543,-0.77721 0.74174,-0.66232 1.59697,-1.53628 1.81278,-1.85246 0.14881,-0.21805 0.38243,-0.3236 0.46113,-0.20839 0.129,0.18888 -0.11162,1.63424 -0.34941,2.09919 -0.18701,0.36558 -0.51773,0.68891 -0.89494,0.87491 -0.32029,0.1579 -0.45518,0.18872 -0.88874,0.20283 -0.28111,0.009 -0.55112,0 -0.6,-0.0193 z M 570.7241,640.03907 c -2.03211,-1.83689 -4.37934,-4.5799 -5.98989,-6.99987 -0.49976,-0.75095 -1.43243,-2.28702 -1.6548,-2.72547 -0.37203,-0.7335 -1.02961,-2.12795 -1.02961,-2.18337 0,-0.0307 -0.0773,-0.23844 -0.17175,-0.46182 -0.48599,-1.14914 -0.97722,-3.09744 -1.19293,-4.7313 -0.0842,-0.63703 -0.0849,-3.37075 -10e-4,-4.17721 0.0906,-0.8731 0.22906,-1.8056 0.32342,-2.1787 0.0472,-0.18658 0.12977,-0.57919 0.1835,-0.87246 0.16836,-0.91883 0.73011,-2.74403 1.02199,-3.3206 0.0653,-0.1289 0.19001,-0.43324 0.27724,-0.67634 0.16095,-0.44851 0.38485,-0.89647 1.00803,-2.01685 0.57761,-1.03839 0.74739,-1.30538 1.28102,-2.01444 0.91866,-1.22069 1.74635,-2.10728 2.93159,-3.14019 0.61699,-0.53769 1.30871,-1.15288 1.53717,-1.36706 0.22845,-0.21419 0.682,-0.62099 1.00786,-0.90396 0.62949,-0.54664 1.05084,-0.91895 2.19221,-1.93713 0.39105,-0.34885 0.89933,-0.79116 1.12953,-0.98296 0.54681,-0.45556 1.22643,-1.06198 1.85786,-1.65778 0.27958,-0.26377 0.81491,-0.73593 1.18967,-1.0492 0.37475,-0.31326 0.94798,-0.81142 1.27385,-1.10703 1.02881,-0.9333 2.24082,-1.99298 2.538,-2.219 0.31467,-0.23936 1.14128,-0.62568 1.33873,-0.62568 0.10582,0 0.11908,0.0249 0.087,0.16294 -0.0208,0.0896 -0.12441,0.3229 -0.23029,0.5184 -0.64246,1.18637 -0.76013,2.11311 -0.34446,2.71293 0.20301,0.29294 0.41849,0.40147 0.80424,0.40503 0.66597,0.006 1.09799,-0.32741 2.08138,-1.6071 0.30311,-0.39444 1.02286,-1.70017 1.23029,-2.23194 0.49634,-1.27236 0.68845,-2.15577 0.82128,-3.77635 0.0728,-0.88835 0.11953,-1.08364 0.27333,-1.14264 0.17288,-0.0663 0.64921,0.60663 1.00752,1.42346 0.14534,0.33133 0.30449,0.68998 0.35366,0.79698 0.24278,0.52828 0.47414,1.54886 0.58504,2.58073 0.0751,0.69869 0.21114,0.78704 0.6124,0.39763 0.30234,-0.2934 0.35987,-0.4072 0.63048,-1.24731 0.21304,-0.6614 0.29186,-0.82949 0.38899,-0.82949 0.0845,0 0.28705,0.49344 0.44998,1.09612 0.14478,0.53554 0.15981,0.68643 0.15641,1.57008 -0.003,0.79983 -0.0263,1.06075 -0.12806,1.4348 -0.36748,1.35136 -0.86935,2.26292 -1.83597,3.33474 -0.80403,0.89154 -2.84458,2.94435 -4.8346,4.86358 -0.97692,0.94219 -2.43001,2.35504 -3.22907,3.1397 -1.59182,1.56308 -3.5553,3.43959 -3.80137,3.63298 -0.18807,0.14782 -1.23188,1.36439 -1.63199,1.90214 -0.48023,0.6454 -0.99551,1.48559 -1.46975,2.39642 -0.96821,1.85954 -1.32984,3.20774 -1.3438,5.0097 -0.0127,1.65306 0.26803,2.66178 1.21956,4.38041 0.79306,1.43244 2.65847,3.78393 2.8888,3.64157 0.0967,-0.0597 0.0442,-0.22133 -0.30281,-0.93195 -0.50632,-1.03699 -0.97846,-2.28077 -1.24687,-3.28473 -0.1283,-0.47985 -0.24683,-0.95247 -0.2634,-1.05023 -0.21783,-1.28546 -0.21686,-3.40835 0.002,-4.40761 0.18249,-0.83299 0.8001,-2.29224 1.34433,-3.17626 0.4543,-0.73792 1.35885,-2.10672 1.46982,-2.22424 0.14833,-0.15702 0.49237,-0.56033 0.73354,-0.85989 0.42595,-0.52907 2.44004,-2.56183 3.08729,-3.1159 0.16584,-0.14196 0.61909,-0.55121 1.00724,-0.90947 0.38814,-0.35825 0.78454,-0.7182 0.8809,-0.79987 0.0963,-0.0817 0.36297,-0.32305 0.59249,-0.53637 0.22951,-0.21335 0.77724,-0.70618 1.21716,-1.09513 0.43992,-0.38899 0.82652,-0.73902 0.85911,-0.77785 0.0326,-0.0388 0.17923,-0.16833 0.32587,-0.28781 0.14664,-0.11945 0.58657,-0.51687 0.9776,-0.88316 0.39105,-0.36629 0.81764,-0.7558 0.94799,-0.86562 0.13035,-0.10982 0.45055,-0.40095 0.71155,-0.64693 0.26102,-0.24601 0.68761,-0.63104 0.94799,-0.85568 0.48154,-0.41542 1.30634,-1.16604 2.22056,-2.0208 0.27882,-0.2607 0.66619,-0.60731 0.8608,-0.77024 2.26607,-1.89724 3.93365,-3.50384 5.19061,-5.00081 1.01395,-1.20756 1.92889,-2.74618 2.15739,-3.62802 0.12417,-0.47914 0.1827,-0.58436 0.32511,-0.58436 0.14416,0 0.35858,0.32939 0.66588,1.02294 0.49396,1.11479 0.59703,2.46912 0.28205,3.7056 -0.19096,0.74964 -0.40778,1.31873 -0.71537,1.8777 -0.26288,0.47774 -0.64426,1.10523 -0.7382,1.21462 -0.18296,0.21301 -0.6894,1.26144 -0.8586,1.77745 -0.25348,0.77306 -0.27212,1.52929 -0.0496,2.01448 0.18519,0.40383 0.53247,0.72421 0.92709,0.85528 0.24893,0.0827 0.36036,0.0891 0.645,0.0373 0.83951,-0.1529 1.51732,-0.70029 1.95282,-1.57704 0.33842,-0.6813 0.43435,-1.26944 0.43492,-2.66659 6.1e-4,-1.18787 0.0276,-1.27245 0.35467,-1.10761 0.29216,0.14723 1.02644,1.02653 1.29753,1.55382 0.12614,0.24531 0.315,0.7064 0.41972,1.02466 0.20946,0.6366 0.30809,0.77975 0.50346,0.73071 0.0708,-0.0178 0.18695,0.009 0.2581,0.0583 0.31214,0.21863 0.0559,1.19113 -0.54811,2.07996 -0.27221,0.40064 -1.18788,1.28377 -2.26125,2.181 -0.62138,0.51942 -2.34539,1.91653 -2.77827,2.25148 -1.12733,0.87227 -3.97949,3.22284 -5.77894,4.76262 -1.97781,1.69241 -4.70311,4.3628 -5.70595,5.59094 -1.84108,2.25476 -2.53664,4.45334 -1.8109,5.72404 0.21114,0.3697 0.47973,0.55882 0.73895,0.52033 0.10478,-0.0156 0.88527,-0.49031 1.83672,-1.11724 2.45681,-1.61887 2.68167,-1.76457 2.72302,-1.76457 0.0208,0 0.14886,-0.0772 0.28454,-0.17162 0.35453,-0.24662 0.8025,-0.5237 2.14265,-1.32532 0.65174,-0.38984 1.3183,-0.78947 1.48123,-0.88806 0.56809,-0.34379 1.36914,-0.80088 2.28109,-1.30165 0.50509,-0.27736 1.17253,-0.65125 1.48317,-0.8309 0.31066,-0.17962 0.78883,-0.43922 1.0626,-0.57689 0.27379,-0.13766 0.59865,-0.31394 0.7219,-0.39174 0.29957,-0.18913 1.85858,-0.85345 2.00279,-0.85345 0.30948,0 0.19249,0.12988 -1.15266,1.27966 -0.81211,0.69416 -1.64046,1.38031 -3.79754,3.14571 -0.58964,0.48258 -1.9452,1.59728 -3.01235,2.47713 -1.06715,0.87985 -2.20088,1.81302 -2.51941,2.07373 -0.31853,0.26067 -0.80266,0.66419 -1.07583,0.89668 -0.47644,0.40546 -1.20197,1.01828 -2.86665,2.42135 -0.42362,0.35703 -0.82355,0.69921 -0.88873,0.76036 -0.0651,0.0612 -0.55842,0.47385 -1.09611,0.91711 -0.53768,0.44324 -1.25756,1.04736 -1.59972,1.3425 -0.69484,0.5993 -0.94925,0.81545 -2.16376,1.83836 -0.46431,0.39104 -1.15832,0.99092 -1.54227,1.33308 -0.38394,0.34218 -0.93032,0.8221 -1.21418,1.06649 -1.32877,1.14408 -1.82478,1.57523 -2.07117,1.80051 -0.25137,0.22982 -1.13581,1.00454 -2.13296,1.86835 -0.24441,0.2117 -0.67188,0.5993 -0.94994,0.8613 -0.27807,0.26202 -0.97092,0.88963 -1.53967,1.39472 -0.56875,0.50512 -1.22267,1.10571 -1.45314,1.3347 -1.08939,1.08229 -1.1184,1.08621 -2.01746,0.27353 z m 87.84733,-16.2333 c -0.0774,-0.14472 0.1384,-0.46599 0.4483,-0.66732 0.25239,-0.16395 1.4725,-0.64558 1.63548,-0.64558 0.33751,0 -0.18699,0.66382 -0.8229,1.04146 -0.66563,0.39527 -1.13995,0.4974 -1.26088,0.27144 z m 7.0202,-15.74425 c -0.0512,-0.0512 -0.0931,-0.11583 -0.0931,-0.14358 0,-0.13123 0.35056,-0.4413 0.70424,-0.62292 0.21553,-0.11068 0.53236,-0.28333 0.70408,-0.38365 0.27637,-0.16149 0.31661,-0.17097 0.35053,-0.0825 0.0552,0.14389 -0.20031,0.59077 -0.4502,0.78729 -0.31203,0.24543 -0.85527,0.53852 -0.99814,0.53852 -0.0684,0 -0.16619,-0.0419 -0.2174,-0.0931 z"
         id="path69238"
         sodipodi:nodetypes="ssssssssssscssccssssssscssscsccssssscccscsccscccscccssccscsssccssscssscssssssssssssssssssssssssssssssssssssssscssccsssssssssssssssssssssssssssssssscscsssssssssssssssssssssssssssssssssssssssssssssssssssssssssssssssssscssssssssssssscsscsscccsccsssscssssssssssssccsssscssssssssssssssssssssssccssssssssssscscssscssssssccccsccccscsscsccccccccscssscccccccccscscssssssscsscsssccssssssssssssssssscsssscsssssssssccsssssscssssccsssssssssssssssssssssssssssscsssscsssssssssssssssssssssssssssscsssssccssssssssssssss" /></g></g></svg>
